<svg width="63" height="14" viewBox="0 0 63 14" fill="none" xmlns="http://www.w3.org/2000/svg">
<g filter="url(#filter0_i_6_11)">
<path d="M4.05753 13L0.773438 1.36364H3.04048L5.13707 9.91477H5.24503L7.48366 1.36364H9.54617L11.7905 9.92045H11.8928L13.9893 1.36364H16.2564L12.9723 13H10.8928L8.56321 4.83523H8.4723L6.13707 13H4.05753ZM17.6271 13V4.27273H19.6839V13H17.6271ZM18.6612 3.03409C18.3355 3.03409 18.0552 2.92614 17.8203 2.71023C17.5855 2.49053 17.468 2.22727 17.468 1.92045C17.468 1.60985 17.5855 1.34659 17.8203 1.13068C18.0552 0.910984 18.3355 0.801136 18.6612 0.801136C18.9908 0.801136 19.2711 0.910984 19.5021 1.13068C19.737 1.34659 19.8544 1.60985 19.8544 1.92045C19.8544 2.22727 19.737 2.49053 19.5021 2.71023C19.2711 2.92614 18.9908 3.03409 18.6612 3.03409ZM28.6967 6.57955L26.8217 6.78409C26.7687 6.5947 26.6759 6.41667 26.5433 6.25C26.4145 6.08333 26.2403 5.94886 26.0206 5.84659C25.8009 5.74432 25.532 5.69318 25.2138 5.69318C24.7857 5.69318 24.4259 5.78598 24.1342 5.97159C23.8464 6.1572 23.7043 6.39773 23.7081 6.69318C23.7043 6.94697 23.7971 7.15341 23.9865 7.3125C24.1797 7.47159 24.4979 7.60227 24.9411 7.70455L26.4297 8.02273C27.2554 8.20076 27.8691 8.48295 28.2706 8.86932C28.6759 9.25568 28.8804 9.76136 28.8842 10.3864C28.8804 10.9356 28.7195 11.4205 28.4013 11.8409C28.0869 12.2576 27.6494 12.5833 27.0888 12.8182C26.5282 13.053 25.8842 13.1705 25.157 13.1705C24.0888 13.1705 23.2289 12.947 22.5774 12.5C21.9259 12.0492 21.5376 11.4223 21.4126 10.6193L23.4183 10.4261C23.5092 10.8201 23.7024 11.1174 23.9979 11.3182C24.2933 11.5189 24.6778 11.6193 25.1513 11.6193C25.6399 11.6193 26.032 11.5189 26.3274 11.3182C26.6267 11.1174 26.7763 10.8693 26.7763 10.5739C26.7763 10.3239 26.6797 10.1174 26.4865 9.95455C26.2971 9.79167 26.0017 9.66667 25.6001 9.57955L24.1115 9.26705C23.2744 9.0928 22.6551 8.79924 22.2536 8.38636C21.852 7.9697 21.6532 7.44318 21.657 6.80682C21.6532 6.26894 21.799 5.80303 22.0945 5.40909C22.3937 5.01136 22.8085 4.70455 23.3388 4.48864C23.8729 4.26894 24.4884 4.15909 25.1854 4.15909C26.2081 4.15909 27.013 4.37689 27.6001 4.8125C28.1911 5.24811 28.5566 5.83712 28.6967 6.57955ZM32.6371 7.88636V13H30.5803V1.36364H32.5916V5.75568H32.6939C32.8984 5.26326 33.2147 4.875 33.6428 4.59091C34.0746 4.30303 34.6238 4.15909 35.2905 4.15909C35.8965 4.15909 36.425 4.28598 36.8757 4.53977C37.3265 4.79356 37.675 5.16477 37.9212 5.65341C38.1712 6.14205 38.2962 6.73864 38.2962 7.44318V13H36.2393V7.76136C36.2393 7.17424 36.0878 6.7178 35.7848 6.39205C35.4856 6.0625 35.0651 5.89773 34.5234 5.89773C34.1598 5.89773 33.834 5.97727 33.5462 6.13636C33.2621 6.29167 33.0386 6.51705 32.8757 6.8125C32.7166 7.10795 32.6371 7.46591 32.6371 7.88636ZM42.4496 1.36364V13H40.3928V1.36364H42.4496ZM44.5646 13V4.27273H46.6214V13H44.5646ZM45.5987 3.03409C45.273 3.03409 44.9927 2.92614 44.7578 2.71023C44.523 2.49053 44.4055 2.22727 44.4055 1.92045C44.4055 1.60985 44.523 1.34659 44.7578 1.13068C44.9927 0.910984 45.273 0.801136 45.5987 0.801136C45.9283 0.801136 46.2086 0.910984 46.4396 1.13068C46.6745 1.34659 46.7919 1.60985 46.7919 1.92045C46.7919 2.22727 46.6745 2.49053 46.4396 2.71023C46.2086 2.92614 45.9283 3.03409 45.5987 3.03409ZM55.6342 6.57955L53.7592 6.78409C53.7062 6.5947 53.6134 6.41667 53.4808 6.25C53.352 6.08333 53.1778 5.94886 52.9581 5.84659C52.7384 5.74432 52.4695 5.69318 52.1513 5.69318C51.7232 5.69318 51.3634 5.78598 51.0717 5.97159C50.7839 6.1572 50.6418 6.39773 50.6456 6.69318C50.6418 6.94697 50.7346 7.15341 50.924 7.3125C51.1172 7.47159 51.4354 7.60227 51.8786 7.70455L53.3672 8.02273C54.1929 8.20076 54.8066 8.48295 55.2081 8.86932C55.6134 9.25568 55.8179 9.76136 55.8217 10.3864C55.8179 10.9356 55.657 11.4205 55.3388 11.8409C55.0244 12.2576 54.5869 12.5833 54.0263 12.8182C53.4657 13.053 52.8217 13.1705 52.0945 13.1705C51.0263 13.1705 50.1664 12.947 49.5149 12.5C48.8634 12.0492 48.4751 11.4223 48.3501 10.6193L50.3558 10.4261C50.4467 10.8201 50.6399 11.1174 50.9354 11.3182C51.2308 11.5189 51.6153 11.6193 52.0888 11.6193C52.5774 11.6193 52.9695 11.5189 53.2649 11.3182C53.5642 11.1174 53.7138 10.8693 53.7138 10.5739C53.7138 10.3239 53.6172 10.1174 53.424 9.95455C53.2346 9.79167 52.9392 9.66667 52.5376 9.57955L51.049 9.26705C50.2119 9.0928 49.5926 8.79924 49.1911 8.38636C48.7895 7.9697 48.5907 7.44318 48.5945 6.80682C48.5907 6.26894 48.7365 5.80303 49.032 5.40909C49.3312 5.01136 49.746 4.70455 50.2763 4.48864C50.8104 4.26894 51.4259 4.15909 52.1229 4.15909C53.1456 4.15909 53.9505 4.37689 54.5376 4.8125C55.1286 5.24811 55.4941 5.83712 55.6342 6.57955ZM61.8757 4.27273V5.86364H56.8587V4.27273H61.8757ZM58.0973 2.18182H60.1541V10.375C60.1541 10.6515 60.1958 10.8636 60.2791 11.0114C60.3662 11.1553 60.4799 11.2538 60.62 11.3068C60.7602 11.3598 60.9155 11.3864 61.0859 11.3864C61.2147 11.3864 61.3321 11.3769 61.4382 11.358C61.5481 11.339 61.6314 11.322 61.6882 11.3068L62.0348 12.9148C61.925 12.9527 61.7678 12.9943 61.5632 13.0398C61.3625 13.0852 61.1162 13.1117 60.8246 13.1193C60.3094 13.1345 59.8454 13.0568 59.4325 12.8864C59.0196 12.7121 58.692 12.4432 58.4496 12.0795C58.2109 11.7159 58.0935 11.2614 58.0973 10.7159V2.18182Z" fill="#4E8EED"/>
</g>
<defs>
<filter id="filter0_i_6_11" x="0.773438" y="0.801136" width="61.2614" height="16.3693" filterUnits="userSpaceOnUse" color-interpolation-filters="sRGB">
<feFlood flood-opacity="0" result="BackgroundImageFix"/>
<feBlend mode="normal" in="SourceGraphic" in2="BackgroundImageFix" result="shape"/>
<feColorMatrix in="SourceAlpha" type="matrix" values="0 0 0 0 0 0 0 0 0 0 0 0 0 0 0 0 0 0 127 0" result="hardAlpha"/>
<feOffset dy="4"/>
<feGaussianBlur stdDeviation="2"/>
<feComposite in2="hardAlpha" operator="arithmetic" k2="-1" k3="1"/>
<feColorMatrix type="matrix" values="0 0 0 0 0 0 0 0 0 0 0 0 0 0 0 0 0 0 0.25 0"/>
<feBlend mode="normal" in2="shape" result="effect1_innerShadow_6_11"/>
</filter>
</defs>
</svg>
