<svg width="147" height="76" viewBox="0 0 147 76" fill="none" xmlns="http://www.w3.org/2000/svg">
<rect width="147" height="76" rx="38" fill="url(#paint0_linear_6_9)"/>
<g filter="url(#filter0_i_6_9)">
<path d="M41.2983 44H39.0483L43.1449 32.3636H45.7472L49.8494 44H47.5994L44.4915 34.75H44.4006L41.2983 44ZM41.3722 39.4375H47.5085V41.1307H41.3722V39.4375ZM51.3821 44V32.3636H53.4389V36.7159H53.5241C53.6302 36.5038 53.7798 36.2784 53.973 36.0398C54.1662 35.7973 54.4276 35.5909 54.7571 35.4205C55.0866 35.2462 55.5071 35.1591 56.0185 35.1591C56.6927 35.1591 57.3007 35.3314 57.8423 35.6761C58.3878 36.017 58.8196 36.5227 59.1378 37.1932C59.4598 37.8598 59.6207 38.678 59.6207 39.6477C59.6207 40.6061 59.4635 41.4205 59.1491 42.0909C58.8348 42.7614 58.4067 43.2727 57.8651 43.625C57.3234 43.9773 56.7098 44.1534 56.0241 44.1534C55.5241 44.1534 55.1094 44.0701 54.7798 43.9034C54.4503 43.7367 54.1851 43.536 53.9844 43.3011C53.7874 43.0625 53.634 42.8371 53.5241 42.625H53.4048V44H51.3821ZM53.3991 39.6364C53.3991 40.2008 53.4787 40.6951 53.6378 41.1193C53.8007 41.5436 54.0336 41.875 54.3366 42.1136C54.6435 42.3485 55.0147 42.4659 55.4503 42.4659C55.9048 42.4659 56.2855 42.3447 56.5923 42.1023C56.8991 41.8561 57.1302 41.5208 57.2855 41.0966C57.4446 40.6686 57.5241 40.1818 57.5241 39.6364C57.5241 39.0947 57.4465 38.6136 57.2912 38.1932C57.1359 37.7727 56.9048 37.4432 56.598 37.2045C56.2912 36.9659 55.9086 36.8466 55.4503 36.8466C55.0109 36.8466 54.6378 36.9621 54.331 37.1932C54.0241 37.4242 53.7912 37.7481 53.6321 38.1648C53.4768 38.5814 53.3991 39.072 53.3991 39.6364ZM65.1761 44.1705C64.3239 44.1705 63.5852 43.983 62.9602 43.608C62.3352 43.233 61.8504 42.7083 61.5057 42.0341C61.1648 41.3598 60.9943 40.572 60.9943 39.6705C60.9943 38.7689 61.1648 37.9792 61.5057 37.3011C61.8504 36.6231 62.3352 36.0966 62.9602 35.7216C63.5852 35.3466 64.3239 35.1591 65.1761 35.1591C66.0284 35.1591 66.767 35.3466 67.392 35.7216C68.017 36.0966 68.5 36.6231 68.8409 37.3011C69.1856 37.9792 69.358 38.7689 69.358 39.6705C69.358 40.572 69.1856 41.3598 68.8409 42.0341C68.5 42.7083 68.017 43.233 67.392 43.608C66.767 43.983 66.0284 44.1705 65.1761 44.1705ZM65.1875 42.5227C65.6496 42.5227 66.036 42.3958 66.3466 42.142C66.6572 41.8845 66.8883 41.5398 67.0398 41.108C67.1951 40.6761 67.2727 40.1951 67.2727 39.6648C67.2727 39.1307 67.1951 38.6477 67.0398 38.2159C66.8883 37.7803 66.6572 37.4337 66.3466 37.1761C66.036 36.9186 65.6496 36.7898 65.1875 36.7898C64.714 36.7898 64.3201 36.9186 64.0057 37.1761C63.6951 37.4337 63.4621 37.7803 63.3068 38.2159C63.1553 38.6477 63.0795 39.1307 63.0795 39.6648C63.0795 40.1951 63.1553 40.6761 63.3068 41.108C63.4621 41.5398 63.6951 41.8845 64.0057 42.142C64.3201 42.3958 64.714 42.5227 65.1875 42.5227ZM76.6662 40.3295V35.2727H78.723V44H76.7287V42.4489H76.6378C76.4408 42.9375 76.117 43.3371 75.6662 43.6477C75.2192 43.9583 74.6681 44.1136 74.0128 44.1136C73.4408 44.1136 72.9351 43.9867 72.4957 43.733C72.0601 43.4754 71.7192 43.1023 71.473 42.6136C71.2268 42.1212 71.1037 41.5265 71.1037 40.8295V35.2727H73.1605V40.5114C73.1605 41.0644 73.312 41.5038 73.6151 41.8295C73.9181 42.1553 74.3158 42.3182 74.8082 42.3182C75.1113 42.3182 75.4048 42.2443 75.6889 42.0966C75.973 41.9489 76.206 41.7292 76.3878 41.4375C76.5734 41.142 76.6662 40.7727 76.6662 40.3295ZM85.196 35.2727V36.8636H80.179V35.2727H85.196ZM81.4176 33.1818H83.4744V41.375C83.4744 41.6515 83.5161 41.8636 83.5994 42.0114C83.6866 42.1553 83.8002 42.2538 83.9403 42.3068C84.0805 42.3598 84.2358 42.3864 84.4062 42.3864C84.535 42.3864 84.6525 42.3769 84.7585 42.358C84.8684 42.339 84.9517 42.322 85.0085 42.3068L85.3551 43.9148C85.2453 43.9527 85.0881 43.9943 84.8835 44.0398C84.6828 44.0852 84.4366 44.1117 84.1449 44.1193C83.6297 44.1345 83.1657 44.0568 82.7528 43.8864C82.34 43.7121 82.0123 43.4432 81.7699 43.0795C81.5313 42.7159 81.4138 42.2614 81.4176 41.7159V33.1818ZM96.4474 40.3295V35.2727H98.5043V44H96.5099V42.4489H96.419C96.2221 42.9375 95.8982 43.3371 95.4474 43.6477C95.0005 43.9583 94.4493 44.1136 93.794 44.1136C93.2221 44.1136 92.7164 43.9867 92.277 43.733C91.8414 43.4754 91.5005 43.1023 91.2543 42.6136C91.008 42.1212 90.8849 41.5265 90.8849 40.8295V35.2727H92.9418V40.5114C92.9418 41.0644 93.0933 41.5038 93.3963 41.8295C93.6993 42.1553 94.0971 42.3182 94.5895 42.3182C94.8925 42.3182 95.1861 42.2443 95.4702 42.0966C95.7543 41.9489 95.9872 41.7292 96.169 41.4375C96.3546 41.142 96.4474 40.7727 96.4474 40.3295ZM107.517 37.5795L105.642 37.7841C105.589 37.5947 105.496 37.4167 105.364 37.25C105.235 37.0833 105.061 36.9489 104.841 36.8466C104.621 36.7443 104.352 36.6932 104.034 36.6932C103.606 36.6932 103.246 36.786 102.955 36.9716C102.667 37.1572 102.525 37.3977 102.528 37.6932C102.525 37.947 102.617 38.1534 102.807 38.3125C103 38.4716 103.318 38.6023 103.761 38.7045L105.25 39.0227C106.076 39.2008 106.689 39.483 107.091 39.8693C107.496 40.2557 107.701 40.7614 107.705 41.3864C107.701 41.9356 107.54 42.4205 107.222 42.8409C106.907 43.2576 106.47 43.5833 105.909 43.8182C105.348 44.053 104.705 44.1705 103.977 44.1705C102.909 44.1705 102.049 43.947 101.398 43.5C100.746 43.0492 100.358 42.4223 100.233 41.6193L102.239 41.4261C102.33 41.8201 102.523 42.1174 102.818 42.3182C103.114 42.5189 103.498 42.6193 103.972 42.6193C104.46 42.6193 104.852 42.5189 105.148 42.3182C105.447 42.1174 105.597 41.8693 105.597 41.5739C105.597 41.3239 105.5 41.1174 105.307 40.9545C105.117 40.7917 104.822 40.6667 104.42 40.5795L102.932 40.267C102.095 40.0928 101.475 39.7992 101.074 39.3864C100.672 38.9697 100.473 38.4432 100.477 37.8068C100.473 37.2689 100.619 36.803 100.915 36.4091C101.214 36.0114 101.629 35.7045 102.159 35.4886C102.693 35.2689 103.309 35.1591 104.006 35.1591C105.028 35.1591 105.833 35.3769 106.42 35.8125C107.011 36.2481 107.377 36.8371 107.517 37.5795Z" fill="#4E8EED"/>
</g>
<defs>
<filter id="filter0_i_6_9" x="39.0483" y="32.3636" width="68.6562" height="15.8068" filterUnits="userSpaceOnUse" color-interpolation-filters="sRGB">
<feFlood flood-opacity="0" result="BackgroundImageFix"/>
<feBlend mode="normal" in="SourceGraphic" in2="BackgroundImageFix" result="shape"/>
<feColorMatrix in="SourceAlpha" type="matrix" values="0 0 0 0 0 0 0 0 0 0 0 0 0 0 0 0 0 0 127 0" result="hardAlpha"/>
<feOffset dy="4"/>
<feGaussianBlur stdDeviation="2"/>
<feComposite in2="hardAlpha" operator="arithmetic" k2="-1" k3="1"/>
<feColorMatrix type="matrix" values="0 0 0 0 0 0 0 0 0 0 0 0 0 0 0 0 0 0 0.25 0"/>
<feBlend mode="normal" in2="shape" result="effect1_innerShadow_6_9"/>
</filter>
<linearGradient id="paint0_linear_6_9" x1="86.7897" y1="100.444" x2="94.1085" y2="27.6451" gradientUnits="userSpaceOnUse">
<stop stop-color="#A68656"/>
<stop offset="1" stop-color="#A65656" stop-opacity="0"/>
</linearGradient>
</defs>
</svg>
