<svg width="271" height="171" viewBox="0 0 271 171" fill="none" xmlns="http://www.w3.org/2000/svg">
<rect width="271" height="171" rx="50" fill="url(#paint0_linear_4_5)"/>
<path d="M51.718 50L48.5362 38.3636H49.968L52.3999 47.8409H52.5135L54.9908 38.3636H56.5817L59.0589 47.8409H59.1726L61.6044 38.3636H63.0362L59.8544 50H58.3999L55.8317 40.7273H55.7408L53.1726 50H51.718ZM64.6101 50V41.2727H65.951V50H64.6101ZM65.2919 39.8182C65.0305 39.8182 64.8052 39.7292 64.6158 39.5511C64.4302 39.3731 64.3374 39.1591 64.3374 38.9091C64.3374 38.6591 64.4302 38.4451 64.6158 38.267C64.8052 38.089 65.0305 38 65.2919 38C65.5533 38 65.7768 38.089 65.9624 38.267C66.1518 38.4451 66.2464 38.6591 66.2464 38.9091C66.2464 39.1591 66.1518 39.3731 65.9624 39.5511C65.7768 39.7292 65.5533 39.8182 65.2919 39.8182ZM72.2024 41.2727V42.4091H67.6797V41.2727H72.2024ZM68.9979 39.1818H70.3388V47.5C70.3388 47.8788 70.3937 48.1629 70.5036 48.3523C70.6172 48.5379 70.7611 48.6629 70.9354 48.7273C71.1134 48.7879 71.3009 48.8182 71.4979 48.8182C71.6456 48.8182 71.7668 48.8106 71.8615 48.7955C71.9562 48.7765 72.032 48.7614 72.0888 48.75L72.3615 49.9545C72.2706 49.9886 72.1437 50.0227 71.9808 50.0568C71.8179 50.0947 71.6115 50.1136 71.3615 50.1136C70.9827 50.1136 70.6115 50.0322 70.2479 49.8693C69.888 49.7064 69.5888 49.4583 69.3501 49.125C69.1153 48.7917 68.9979 48.3712 68.9979 47.8636V39.1818ZM75.7479 44.75V50H74.407V38.3636H75.7479V42.6364H75.8615C76.0661 42.1856 76.3729 41.8277 76.782 41.5625C77.1948 41.2936 77.7441 41.1591 78.4297 41.1591C79.0244 41.1591 79.5452 41.2784 79.9922 41.517C80.4392 41.7519 80.7857 42.1136 81.032 42.6023C81.282 43.0871 81.407 43.7045 81.407 44.4545V50H80.0661V44.5455C80.0661 43.8523 79.8861 43.3163 79.5263 42.9375C79.1702 42.5549 78.6759 42.3636 78.0433 42.3636C77.6039 42.3636 77.21 42.4564 76.8615 42.642C76.5168 42.8277 76.2441 43.0985 76.0433 43.4545C75.8464 43.8106 75.7479 44.2424 75.7479 44.75ZM90.9283 50.2045C90.3752 50.2045 89.8733 50.1004 89.4226 49.892C88.9718 49.6799 88.6139 49.375 88.3487 48.9773C88.0836 48.5758 87.951 48.0909 87.951 47.5227C87.951 47.0227 88.0495 46.6174 88.2464 46.3068C88.4434 45.9924 88.7067 45.7462 89.0362 45.5682C89.3658 45.3902 89.7294 45.2576 90.1271 45.1705C90.5286 45.0795 90.9321 45.0076 91.3374 44.9545C91.8677 44.8864 92.2976 44.8352 92.6271 44.8011C92.9605 44.7633 93.2029 44.7008 93.3544 44.6136C93.5097 44.5265 93.5874 44.375 93.5874 44.1591V44.1136C93.5874 43.553 93.4339 43.1174 93.1271 42.8068C92.8241 42.4962 92.3639 42.3409 91.7464 42.3409C91.1063 42.3409 90.6044 42.4811 90.2408 42.7614C89.8771 43.0417 89.6214 43.3409 89.4737 43.6591L88.201 43.2045C88.4283 42.6742 88.7313 42.2614 89.1101 41.9659C89.4927 41.6667 89.9093 41.4583 90.3601 41.3409C90.8146 41.2197 91.2616 41.1591 91.701 41.1591C91.9813 41.1591 92.3033 41.1932 92.6669 41.2614C93.0343 41.3258 93.3885 41.4602 93.7294 41.6648C94.0741 41.8693 94.3601 42.178 94.5874 42.5909C94.8146 43.0038 94.9283 43.5568 94.9283 44.25V50H93.5874V48.8182H93.5192C93.4283 49.0076 93.2768 49.2102 93.0646 49.4261C92.8525 49.642 92.5703 49.8258 92.218 49.9773C91.8658 50.1288 91.4358 50.2045 90.9283 50.2045ZM91.1328 49C91.6631 49 92.1101 48.8958 92.4737 48.6875C92.8411 48.4792 93.1177 48.2102 93.3033 47.8807C93.4927 47.5511 93.5874 47.2045 93.5874 46.8409V45.6136C93.5305 45.6818 93.4055 45.7443 93.2124 45.8011C93.023 45.8542 92.8033 45.9015 92.5533 45.9432C92.3071 45.9811 92.0665 46.0152 91.8317 46.0455C91.6006 46.072 91.4131 46.0947 91.2692 46.1136C90.9207 46.1591 90.5949 46.233 90.2919 46.3352C89.9927 46.4337 89.7502 46.5833 89.5646 46.7841C89.3828 46.9811 89.2919 47.25 89.2919 47.5909C89.2919 48.0568 89.4643 48.4091 89.8089 48.6477C90.1574 48.8826 90.5987 49 91.1328 49ZM101.876 50V41.2727H103.171V42.6364H103.285C103.467 42.1705 103.76 41.8087 104.165 41.5511C104.571 41.2898 105.058 41.1591 105.626 41.1591C106.201 41.1591 106.681 41.2898 107.063 41.5511C107.45 41.8087 107.751 42.1705 107.967 42.6364H108.058C108.281 42.1856 108.616 41.8277 109.063 41.5625C109.51 41.2936 110.046 41.1591 110.671 41.1591C111.451 41.1591 112.09 41.4034 112.586 41.892C113.082 42.3769 113.33 43.1326 113.33 44.1591V50H111.989V44.1591C111.989 43.5152 111.813 43.0549 111.461 42.7784C111.109 42.5019 110.694 42.3636 110.217 42.3636C109.603 42.3636 109.128 42.5492 108.79 42.9205C108.453 43.2879 108.285 43.7538 108.285 44.3182V50H106.921V44.0227C106.921 43.5265 106.76 43.1269 106.438 42.8239C106.116 42.517 105.701 42.3636 105.194 42.3636C104.845 42.3636 104.52 42.4564 104.217 42.642C103.917 42.8277 103.675 43.0852 103.489 43.4148C103.308 43.7405 103.217 44.1174 103.217 44.5455V50H101.876ZM118.35 50.2045C117.797 50.2045 117.295 50.1004 116.844 49.892C116.394 49.6799 116.036 49.375 115.771 48.9773C115.505 48.5758 115.373 48.0909 115.373 47.5227C115.373 47.0227 115.471 46.6174 115.668 46.3068C115.865 45.9924 116.129 45.7462 116.458 45.5682C116.788 45.3902 117.151 45.2576 117.549 45.1705C117.951 45.0795 118.354 45.0076 118.759 44.9545C119.29 44.8864 119.719 44.8352 120.049 44.8011C120.382 44.7633 120.625 44.7008 120.776 44.6136C120.932 44.5265 121.009 44.375 121.009 44.1591V44.1136C121.009 43.553 120.856 43.1174 120.549 42.8068C120.246 42.4962 119.786 42.3409 119.168 42.3409C118.528 42.3409 118.026 42.4811 117.663 42.7614C117.299 43.0417 117.043 43.3409 116.896 43.6591L115.623 43.2045C115.85 42.6742 116.153 42.2614 116.532 41.9659C116.915 41.6667 117.331 41.4583 117.782 41.3409C118.237 41.2197 118.683 41.1591 119.123 41.1591C119.403 41.1591 119.725 41.1932 120.089 41.2614C120.456 41.3258 120.81 41.4602 121.151 41.6648C121.496 41.8693 121.782 42.178 122.009 42.5909C122.237 43.0038 122.35 43.5568 122.35 44.25V50H121.009V48.8182H120.941C120.85 49.0076 120.699 49.2102 120.487 49.4261C120.274 49.642 119.992 49.8258 119.64 49.9773C119.288 50.1288 118.858 50.2045 118.35 50.2045ZM118.555 49C119.085 49 119.532 48.8958 119.896 48.6875C120.263 48.4792 120.54 48.2102 120.725 47.8807C120.915 47.5511 121.009 47.2045 121.009 46.8409V45.6136C120.952 45.6818 120.827 45.7443 120.634 45.8011C120.445 45.8542 120.225 45.9015 119.975 45.9432C119.729 45.9811 119.488 46.0152 119.254 46.0455C119.022 46.072 118.835 46.0947 118.691 46.1136C118.343 46.1591 118.017 46.233 117.714 46.3352C117.415 46.4337 117.172 46.5833 116.987 46.7841C116.805 46.9811 116.714 47.25 116.714 47.5909C116.714 48.0568 116.886 48.4091 117.231 48.6477C117.579 48.8826 118.021 49 118.555 49ZM128.32 53.4545C127.673 53.4545 127.116 53.3712 126.65 53.2045C126.184 53.0417 125.796 52.8258 125.485 52.5568C125.178 52.2917 124.934 52.0076 124.752 51.7045L125.82 50.9545C125.942 51.1136 126.095 51.2955 126.281 51.5C126.466 51.7083 126.72 51.8883 127.042 52.0398C127.368 52.1951 127.794 52.2727 128.32 52.2727C129.025 52.2727 129.606 52.1023 130.065 51.7614C130.523 51.4205 130.752 50.8864 130.752 50.1591V48.3864H130.638C130.54 48.5455 130.4 48.7424 130.218 48.9773C130.04 49.2083 129.782 49.4148 129.445 49.5966C129.112 49.7746 128.661 49.8636 128.093 49.8636C127.388 49.8636 126.756 49.697 126.195 49.3636C125.638 49.0303 125.197 48.5455 124.871 47.9091C124.549 47.2727 124.388 46.5 124.388 45.5909C124.388 44.697 124.546 43.9186 124.86 43.2557C125.174 42.589 125.612 42.0739 126.173 41.7102C126.733 41.3428 127.381 41.1591 128.116 41.1591C128.684 41.1591 129.135 41.2538 129.468 41.4432C129.805 41.6288 130.063 41.8409 130.241 42.0795C130.423 42.3144 130.563 42.5076 130.661 42.6591H130.798V41.2727H132.093V50.25C132.093 51 131.923 51.6098 131.582 52.0795C131.245 52.553 130.79 52.8996 130.218 53.1193C129.65 53.3428 129.017 53.4545 128.32 53.4545ZM128.275 48.6591C128.813 48.6591 129.267 48.536 129.638 48.2898C130.01 48.0436 130.292 47.6894 130.485 47.2273C130.678 46.7652 130.775 46.2121 130.775 45.5682C130.775 44.9394 130.68 44.3845 130.491 43.9034C130.301 43.4223 130.021 43.0455 129.65 42.7727C129.279 42.5 128.82 42.3636 128.275 42.3636C127.707 42.3636 127.233 42.5076 126.854 42.7955C126.479 43.0833 126.197 43.4697 126.008 43.9545C125.822 44.4394 125.729 44.9773 125.729 45.5682C125.729 46.1742 125.824 46.7102 126.013 47.1761C126.207 47.6383 126.491 48.0019 126.866 48.267C127.245 48.5284 127.714 48.6591 128.275 48.6591ZM134.548 50V41.2727H135.888V50H134.548ZM135.229 39.8182C134.968 39.8182 134.743 39.7292 134.553 39.5511C134.368 39.3731 134.275 39.1591 134.275 38.9091C134.275 38.6591 134.368 38.4451 134.553 38.267C134.743 38.089 134.968 38 135.229 38C135.491 38 135.714 38.089 135.9 38.267C136.089 38.4451 136.184 38.6591 136.184 38.9091C136.184 39.1591 136.089 39.3731 135.9 39.5511C135.714 39.7292 135.491 39.8182 135.229 39.8182ZM141.89 50.1818C141.072 50.1818 140.367 49.9886 139.776 49.6023C139.185 49.2159 138.731 48.6837 138.413 48.0057C138.094 47.3277 137.935 46.553 137.935 45.6818C137.935 44.7955 138.098 44.0133 138.424 43.3352C138.754 42.6534 139.212 42.1212 139.799 41.7386C140.39 41.3523 141.079 41.1591 141.867 41.1591C142.481 41.1591 143.034 41.2727 143.526 41.5C144.019 41.7273 144.422 42.0455 144.737 42.4545C145.051 42.8636 145.246 43.3409 145.322 43.8864H143.981C143.879 43.4886 143.651 43.1364 143.299 42.8295C142.951 42.5189 142.481 42.3636 141.89 42.3636C141.367 42.3636 140.909 42.5 140.515 42.7727C140.125 43.0417 139.82 43.4223 139.6 43.9148C139.384 44.4034 139.276 44.9773 139.276 45.6364C139.276 46.3106 139.382 46.8977 139.594 47.3977C139.81 47.8977 140.113 48.286 140.504 48.5625C140.897 48.839 141.36 48.9773 141.89 48.9773C142.238 48.9773 142.555 48.9167 142.839 48.7955C143.123 48.6742 143.363 48.5 143.56 48.2727C143.757 48.0455 143.897 47.7727 143.981 47.4545H145.322C145.246 47.9697 145.058 48.4337 144.759 48.8466C144.464 49.2557 144.072 49.5814 143.583 49.8239C143.098 50.0625 142.534 50.1818 141.89 50.1818ZM153.759 50L151.1 41.2727H152.509L154.396 47.9545H154.487L156.35 41.2727H157.782L159.623 47.9318H159.714L161.6 41.2727H163.009L160.35 50H159.032L157.123 43.2955H156.987L155.077 50H153.759ZM167.35 50.2045C166.797 50.2045 166.295 50.1004 165.844 49.892C165.394 49.6799 165.036 49.375 164.771 48.9773C164.505 48.5758 164.373 48.0909 164.373 47.5227C164.373 47.0227 164.471 46.6174 164.668 46.3068C164.865 45.9924 165.129 45.7462 165.458 45.5682C165.788 45.3902 166.151 45.2576 166.549 45.1705C166.951 45.0795 167.354 45.0076 167.759 44.9545C168.29 44.8864 168.719 44.8352 169.049 44.8011C169.382 44.7633 169.625 44.7008 169.776 44.6136C169.932 44.5265 170.009 44.375 170.009 44.1591V44.1136C170.009 43.553 169.856 43.1174 169.549 42.8068C169.246 42.4962 168.786 42.3409 168.168 42.3409C167.528 42.3409 167.026 42.4811 166.663 42.7614C166.299 43.0417 166.043 43.3409 165.896 43.6591L164.623 43.2045C164.85 42.6742 165.153 42.2614 165.532 41.9659C165.915 41.6667 166.331 41.4583 166.782 41.3409C167.237 41.2197 167.683 41.1591 168.123 41.1591C168.403 41.1591 168.725 41.1932 169.089 41.2614C169.456 41.3258 169.81 41.4602 170.151 41.6648C170.496 41.8693 170.782 42.178 171.009 42.5909C171.237 43.0038 171.35 43.5568 171.35 44.25V50H170.009V48.8182H169.941C169.85 49.0076 169.699 49.2102 169.487 49.4261C169.274 49.642 168.992 49.8258 168.64 49.9773C168.288 50.1288 167.858 50.2045 167.35 50.2045ZM167.555 49C168.085 49 168.532 48.8958 168.896 48.6875C169.263 48.4792 169.54 48.2102 169.725 47.8807C169.915 47.5511 170.009 47.2045 170.009 46.8409V45.6136C169.952 45.6818 169.827 45.7443 169.634 45.8011C169.445 45.8542 169.225 45.9015 168.975 45.9432C168.729 45.9811 168.488 46.0152 168.254 46.0455C168.022 46.072 167.835 46.0947 167.691 46.1136C167.343 46.1591 167.017 46.233 166.714 46.3352C166.415 46.4337 166.172 46.5833 165.987 46.7841C165.805 46.9811 165.714 47.25 165.714 47.5909C165.714 48.0568 165.886 48.4091 166.231 48.6477C166.579 48.8826 167.021 49 167.555 49ZM175.138 44.75V50H173.798V41.2727H175.093V42.6364H175.207C175.411 42.1932 175.722 41.8371 176.138 41.5682C176.555 41.2955 177.093 41.1591 177.752 41.1591C178.343 41.1591 178.86 41.2803 179.303 41.5227C179.746 41.7614 180.091 42.125 180.337 42.6136C180.584 43.0985 180.707 43.7121 180.707 44.4545V50H179.366V44.5455C179.366 43.8598 179.188 43.3258 178.832 42.9432C178.476 42.5568 177.987 42.3636 177.366 42.3636C176.938 42.3636 176.555 42.4564 176.218 42.642C175.885 42.8277 175.621 43.0985 175.428 43.4545C175.235 43.8106 175.138 44.2424 175.138 44.75ZM186.452 50.1818C185.725 50.1818 185.083 49.9981 184.526 49.6307C183.969 49.2595 183.534 48.7367 183.219 48.0625C182.905 47.3845 182.748 46.5833 182.748 45.6591C182.748 44.7424 182.905 43.947 183.219 43.2727C183.534 42.5985 183.971 42.0777 184.532 41.7102C185.093 41.3428 185.74 41.1591 186.475 41.1591C187.043 41.1591 187.492 41.2538 187.822 41.4432C188.155 41.6288 188.409 41.8409 188.583 42.0795C188.761 42.3144 188.899 42.5076 188.998 42.6591H189.112V38.3636H190.452V50H189.157V48.6591H188.998C188.899 48.8182 188.759 49.0189 188.577 49.2614C188.396 49.5 188.136 49.714 187.799 49.9034C187.462 50.089 187.013 50.1818 186.452 50.1818ZM186.634 48.9773C187.172 48.9773 187.627 48.8371 187.998 48.5568C188.369 48.2727 188.651 47.8807 188.844 47.3807C189.038 46.8769 189.134 46.2955 189.134 45.6364C189.134 44.9848 189.04 44.4148 188.85 43.9261C188.661 43.4337 188.38 43.0511 188.009 42.7784C187.638 42.5019 187.18 42.3636 186.634 42.3636C186.066 42.3636 185.593 42.5095 185.214 42.8011C184.839 43.089 184.557 43.4811 184.367 43.9773C184.182 44.4697 184.089 45.0227 184.089 45.6364C184.089 46.2576 184.183 46.822 184.373 47.3295C184.566 47.8333 184.85 48.2348 185.225 48.5341C185.604 48.8295 186.074 48.9773 186.634 48.9773ZM198.458 53.2727C198.231 53.2727 198.028 53.2538 197.85 53.2159C197.672 53.1818 197.549 53.1477 197.481 53.1136L197.822 51.9318C198.147 52.0152 198.435 52.0455 198.685 52.0227C198.935 52 199.157 51.8883 199.35 51.6875C199.547 51.4905 199.727 51.1705 199.89 50.7273L200.14 50.0455L196.913 41.2727H198.367L200.776 48.2273H200.867L203.276 41.2727H204.731L201.026 51.2727C200.86 51.7235 200.653 52.0966 200.407 52.392C200.161 52.6913 199.875 52.9129 199.549 53.0568C199.227 53.2008 198.863 53.2727 198.458 53.2727ZM209.734 50.1818C208.946 50.1818 208.254 49.9943 207.66 49.6193C207.069 49.2443 206.607 48.7197 206.273 48.0455C205.944 47.3712 205.779 46.5833 205.779 45.6818C205.779 44.7727 205.944 43.9792 206.273 43.3011C206.607 42.6231 207.069 42.0966 207.66 41.7216C208.254 41.3466 208.946 41.1591 209.734 41.1591C210.522 41.1591 211.211 41.3466 211.802 41.7216C212.397 42.0966 212.859 42.6231 213.188 43.3011C213.522 43.9792 213.688 44.7727 213.688 45.6818C213.688 46.5833 213.522 47.3712 213.188 48.0455C212.859 48.7197 212.397 49.2443 211.802 49.6193C211.211 49.9943 210.522 50.1818 209.734 50.1818ZM209.734 48.9773C210.332 48.9773 210.825 48.8239 211.211 48.517C211.597 48.2102 211.883 47.8068 212.069 47.3068C212.254 46.8068 212.347 46.2652 212.347 45.6818C212.347 45.0985 212.254 44.5549 212.069 44.0511C211.883 43.5473 211.597 43.1402 211.211 42.8295C210.825 42.5189 210.332 42.3636 209.734 42.3636C209.135 42.3636 208.643 42.5189 208.256 42.8295C207.87 43.1402 207.584 43.5473 207.398 44.0511C207.213 44.5549 207.12 45.0985 207.12 45.6818C207.12 46.2652 207.213 46.8068 207.398 47.3068C207.584 47.8068 207.87 48.2102 208.256 48.517C208.643 48.8239 209.135 48.9773 209.734 48.9773ZM221.235 46.4318V41.2727H222.576V50H221.235V48.5227H221.144C220.94 48.9659 220.621 49.3428 220.19 49.6534C219.758 49.9602 219.212 50.1136 218.553 50.1136C218.008 50.1136 217.523 49.9943 217.099 49.7557C216.674 49.5133 216.341 49.1496 216.099 48.6648C215.856 48.1761 215.735 47.5606 215.735 46.8182V41.2727H217.076V46.7273C217.076 47.3636 217.254 47.8712 217.61 48.25C217.97 48.6288 218.428 48.8182 218.985 48.8182C219.318 48.8182 219.657 48.733 220.002 48.5625C220.351 48.392 220.642 48.1307 220.877 47.7784C221.116 47.4261 221.235 46.9773 221.235 46.4318ZM58.929 69.1818C58.1108 69.1818 57.4063 68.9886 56.8153 68.6023C56.2244 68.2159 55.7699 67.6837 55.4517 67.0057C55.1335 66.3277 54.9744 65.553 54.9744 64.6818C54.9744 63.7955 55.1373 63.0133 55.4631 62.3352C55.7926 61.6534 56.2509 61.1212 56.8381 60.7386C57.429 60.3523 58.1184 60.1591 58.9062 60.1591C59.5199 60.1591 60.0729 60.2727 60.5653 60.5C61.0578 60.7273 61.4612 61.0455 61.7756 61.4545C62.09 61.8636 62.285 62.3409 62.3608 62.8864H61.0199C60.9176 62.4886 60.6903 62.1364 60.3381 61.8295C59.9896 61.5189 59.5199 61.3636 58.929 61.3636C58.4063 61.3636 57.9479 61.5 57.554 61.7727C57.1638 62.0417 56.8589 62.4223 56.6392 62.9148C56.4233 63.4034 56.3153 63.9773 56.3153 64.6364C56.3153 65.3106 56.4214 65.8977 56.6335 66.3977C56.8494 66.8977 57.1525 67.286 57.5426 67.5625C57.9366 67.839 58.3987 67.9773 58.929 67.9773C59.2775 67.9773 59.5938 67.9167 59.8778 67.7955C60.1619 67.6742 60.4025 67.5 60.5994 67.2727C60.7964 67.0455 60.9366 66.7727 61.0199 66.4545H62.3608C62.285 66.9697 62.0975 67.4337 61.7983 67.8466C61.5028 68.2557 61.1108 68.5814 60.6222 68.8239C60.1373 69.0625 59.5729 69.1818 58.929 69.1818ZM66.8892 69.2045C66.3362 69.2045 65.8343 69.1004 65.3835 68.892C64.9328 68.6799 64.5748 68.375 64.3097 67.9773C64.0445 67.5758 63.9119 67.0909 63.9119 66.5227C63.9119 66.0227 64.0104 65.6174 64.2074 65.3068C64.4044 64.9924 64.6676 64.7462 64.9972 64.5682C65.3267 64.3902 65.6903 64.2576 66.0881 64.1705C66.4896 64.0795 66.893 64.0076 67.2983 63.9545C67.8286 63.8864 68.2585 63.8352 68.5881 63.8011C68.9214 63.7633 69.1638 63.7008 69.3153 63.6136C69.4706 63.5265 69.5483 63.375 69.5483 63.1591V63.1136C69.5483 62.553 69.3949 62.1174 69.0881 61.8068C68.785 61.4962 68.3248 61.3409 67.7074 61.3409C67.0672 61.3409 66.5653 61.4811 66.2017 61.7614C65.8381 62.0417 65.5824 62.3409 65.4347 62.6591L64.1619 62.2045C64.3892 61.6742 64.6922 61.2614 65.071 60.9659C65.4536 60.6667 65.8703 60.4583 66.321 60.3409C66.7756 60.2197 67.2225 60.1591 67.6619 60.1591C67.9422 60.1591 68.2642 60.1932 68.6278 60.2614C68.9953 60.3258 69.3494 60.4602 69.6903 60.6648C70.035 60.8693 70.321 61.178 70.5483 61.5909C70.7756 62.0038 70.8892 62.5568 70.8892 63.25V69H69.5483V67.8182H69.4801C69.3892 68.0076 69.2377 68.2102 69.0256 68.4261C68.8134 68.642 68.5313 68.8258 68.179 68.9773C67.8267 69.1288 67.3968 69.2045 66.8892 69.2045ZM67.0938 68C67.6241 68 68.071 67.8958 68.4347 67.6875C68.8021 67.4792 69.0786 67.2102 69.2642 66.8807C69.4536 66.5511 69.5483 66.2045 69.5483 65.8409V64.6136C69.4915 64.6818 69.3665 64.7443 69.1733 64.8011C68.9839 64.8542 68.7642 64.9015 68.5142 64.9432C68.268 64.9811 68.0275 65.0152 67.7926 65.0455C67.5616 65.072 67.3741 65.0947 67.2301 65.1136C66.8816 65.1591 66.5559 65.233 66.2528 65.3352C65.9536 65.4337 65.7112 65.5833 65.5256 65.7841C65.3438 65.9811 65.2528 66.25 65.2528 66.5909C65.2528 67.0568 65.4252 67.4091 65.7699 67.6477C66.1184 67.8826 66.5597 68 67.0938 68ZM74.6776 63.75V69H73.3366V60.2727H74.6321V61.6364H74.7457C74.9503 61.1932 75.2609 60.8371 75.6776 60.5682C76.0942 60.2955 76.6321 60.1591 77.2912 60.1591C77.8821 60.1591 78.3991 60.2803 78.8423 60.5227C79.2855 60.7614 79.6302 61.125 79.8764 61.6136C80.1226 62.0985 80.2457 62.7121 80.2457 63.4545V69H78.9048V63.5455C78.9048 62.8598 78.7268 62.3258 78.3707 61.9432C78.0147 61.5568 77.526 61.3636 76.9048 61.3636C76.4768 61.3636 76.0942 61.4564 75.7571 61.642C75.4238 61.8277 75.1605 62.0985 74.9673 62.4545C74.7741 62.8106 74.6776 63.2424 74.6776 63.75ZM89.7642 69.2045C89.2112 69.2045 88.7093 69.1004 88.2585 68.892C87.8078 68.6799 87.4498 68.375 87.1847 67.9773C86.9195 67.5758 86.7869 67.0909 86.7869 66.5227C86.7869 66.0227 86.8854 65.6174 87.0824 65.3068C87.2794 64.9924 87.5426 64.7462 87.8722 64.5682C88.2017 64.3902 88.5653 64.2576 88.9631 64.1705C89.3646 64.0795 89.768 64.0076 90.1733 63.9545C90.7036 63.8864 91.1335 63.8352 91.4631 63.8011C91.7964 63.7633 92.0388 63.7008 92.1903 63.6136C92.3456 63.5265 92.4233 63.375 92.4233 63.1591V63.1136C92.4233 62.553 92.2699 62.1174 91.9631 61.8068C91.66 61.4962 91.1998 61.3409 90.5824 61.3409C89.9422 61.3409 89.4403 61.4811 89.0767 61.7614C88.7131 62.0417 88.4574 62.3409 88.3097 62.6591L87.0369 62.2045C87.2642 61.6742 87.5672 61.2614 87.946 60.9659C88.3286 60.6667 88.7453 60.4583 89.196 60.3409C89.6506 60.2197 90.0975 60.1591 90.5369 60.1591C90.8172 60.1591 91.1392 60.1932 91.5028 60.2614C91.8703 60.3258 92.2244 60.4602 92.5653 60.6648C92.91 60.8693 93.196 61.178 93.4233 61.5909C93.6506 62.0038 93.7642 62.5568 93.7642 63.25V69H92.4233V67.8182H92.3551C92.2642 68.0076 92.1127 68.2102 91.9006 68.4261C91.6884 68.642 91.4063 68.8258 91.054 68.9773C90.7017 69.1288 90.2718 69.2045 89.7642 69.2045ZM89.9688 68C90.4991 68 90.946 67.8958 91.3097 67.6875C91.6771 67.4792 91.9536 67.2102 92.1392 66.8807C92.3286 66.5511 92.4233 66.2045 92.4233 65.8409V64.6136C92.3665 64.6818 92.2415 64.7443 92.0483 64.8011C91.8589 64.8542 91.6392 64.9015 91.3892 64.9432C91.143 64.9811 90.9025 65.0152 90.6676 65.0455C90.4366 65.072 90.2491 65.0947 90.1051 65.1136C89.7566 65.1591 89.4309 65.233 89.1278 65.3352C88.8286 65.4337 88.5862 65.5833 88.4006 65.7841C88.2188 65.9811 88.1278 66.25 88.1278 66.5909C88.1278 67.0568 88.3002 67.4091 88.6449 67.6477C88.9934 67.8826 89.4347 68 89.9688 68ZM99.7571 69.1818C98.9389 69.1818 98.2344 68.9886 97.6435 68.6023C97.0526 68.2159 96.598 67.6837 96.2798 67.0057C95.9616 66.3277 95.8026 65.553 95.8026 64.6818C95.8026 63.7955 95.9654 63.0133 96.2912 62.3352C96.6207 61.6534 97.0791 61.1212 97.6662 60.7386C98.2571 60.3523 98.9465 60.1591 99.7344 60.1591C100.348 60.1591 100.901 60.2727 101.393 60.5C101.886 60.7273 102.289 61.0455 102.604 61.4545C102.918 61.8636 103.113 62.3409 103.189 62.8864H101.848C101.746 62.4886 101.518 62.1364 101.166 61.8295C100.818 61.5189 100.348 61.3636 99.7571 61.3636C99.2344 61.3636 98.776 61.5 98.3821 61.7727C97.992 62.0417 97.687 62.4223 97.4673 62.9148C97.2514 63.4034 97.1435 63.9773 97.1435 64.6364C97.1435 65.3106 97.2495 65.8977 97.4616 66.3977C97.6776 66.8977 97.9806 67.286 98.3707 67.5625C98.7647 67.839 99.2268 67.9773 99.7571 67.9773C100.106 67.9773 100.422 67.9167 100.706 67.7955C100.99 67.6742 101.231 67.5 101.428 67.2727C101.625 67.0455 101.765 66.7727 101.848 66.4545H103.189C103.113 66.9697 102.926 67.4337 102.626 67.8466C102.331 68.2557 101.939 68.5814 101.45 68.8239C100.965 69.0625 100.401 69.1818 99.7571 69.1818ZM106.49 63.75V69H105.149V57.3636H106.49V61.6364H106.604C106.808 61.1856 107.115 60.8277 107.524 60.5625C107.937 60.2936 108.486 60.1591 109.172 60.1591C109.767 60.1591 110.287 60.2784 110.734 60.517C111.181 60.7519 111.528 61.1136 111.774 61.6023C112.024 62.0871 112.149 62.7045 112.149 63.4545V69H110.808V63.5455C110.808 62.8523 110.628 62.3163 110.268 61.9375C109.912 61.5549 109.418 61.3636 108.786 61.3636C108.346 61.3636 107.952 61.4564 107.604 61.642C107.259 61.8277 106.986 62.0985 106.786 62.4545C106.589 62.8106 106.49 63.2424 106.49 63.75ZM114.602 69V60.2727H115.943V69H114.602ZM115.284 58.8182C115.023 58.8182 114.797 58.7292 114.608 58.5511C114.422 58.3731 114.33 58.1591 114.33 57.9091C114.33 57.6591 114.422 57.4451 114.608 57.267C114.797 57.089 115.023 57 115.284 57C115.545 57 115.769 57.089 115.955 57.267C116.144 57.4451 116.239 57.6591 116.239 57.9091C116.239 58.1591 116.144 58.3731 115.955 58.5511C115.769 58.7292 115.545 58.8182 115.284 58.8182ZM122.058 69.1818C121.217 69.1818 120.492 68.9962 119.882 68.625C119.276 68.25 118.808 67.7273 118.479 67.0568C118.153 66.3826 117.99 65.5985 117.99 64.7045C117.99 63.8106 118.153 63.0227 118.479 62.3409C118.808 61.6553 119.267 61.1212 119.854 60.7386C120.445 60.3523 121.134 60.1591 121.922 60.1591C122.376 60.1591 122.825 60.2348 123.268 60.3864C123.712 60.5379 124.115 60.7841 124.479 61.125C124.842 61.4621 125.132 61.9091 125.348 62.4659C125.564 63.0227 125.672 63.7083 125.672 64.5227V65.0909H118.945V63.9318H124.308C124.308 63.4394 124.21 63 124.013 62.6136C123.82 62.2273 123.543 61.9223 123.183 61.6989C122.827 61.4754 122.407 61.3636 121.922 61.3636C121.388 61.3636 120.926 61.4962 120.536 61.7614C120.149 62.0227 119.852 62.3636 119.643 62.7841C119.435 63.2045 119.331 63.6553 119.331 64.1364V64.9091C119.331 65.5682 119.445 66.1269 119.672 66.5852C119.903 67.0398 120.223 67.3864 120.632 67.625C121.041 67.8598 121.517 67.9773 122.058 67.9773C122.411 67.9773 122.729 67.928 123.013 67.8295C123.301 67.7273 123.549 67.5758 123.757 67.375C123.965 67.1705 124.126 66.9167 124.24 66.6136L125.536 66.9773C125.399 67.4167 125.17 67.803 124.848 68.1364C124.526 68.4659 124.128 68.7235 123.655 68.9091C123.181 69.0909 122.649 69.1818 122.058 69.1818ZM134.582 60.2727L131.355 69H129.991L126.764 60.2727H128.219L130.628 67.2273H130.719L133.128 60.2727H134.582ZM139.699 69.1818C138.858 69.1818 138.133 68.9962 137.523 68.625C136.917 68.25 136.449 67.7273 136.119 67.0568C135.794 66.3826 135.631 65.5985 135.631 64.7045C135.631 63.8106 135.794 63.0227 136.119 62.3409C136.449 61.6553 136.907 61.1212 137.494 60.7386C138.085 60.3523 138.775 60.1591 139.562 60.1591C140.017 60.1591 140.466 60.2348 140.909 60.3864C141.352 60.5379 141.756 60.7841 142.119 61.125C142.483 61.4621 142.773 61.9091 142.989 62.4659C143.205 63.0227 143.312 63.7083 143.312 64.5227V65.0909H136.585V63.9318H141.949C141.949 63.4394 141.85 63 141.653 62.6136C141.46 62.2273 141.184 61.9223 140.824 61.6989C140.468 61.4754 140.047 61.3636 139.562 61.3636C139.028 61.3636 138.566 61.4962 138.176 61.7614C137.79 62.0227 137.492 62.3636 137.284 62.7841C137.076 63.2045 136.972 63.6553 136.972 64.1364V64.9091C136.972 65.5682 137.085 66.1269 137.312 66.5852C137.544 67.0398 137.864 67.3864 138.273 67.625C138.682 67.8598 139.157 67.9773 139.699 67.9773C140.051 67.9773 140.369 67.928 140.653 67.8295C140.941 67.7273 141.189 67.5758 141.398 67.375C141.606 67.1705 141.767 66.9167 141.881 66.6136L143.176 66.9773C143.04 67.4167 142.811 67.803 142.489 68.1364C142.167 68.4659 141.769 68.7235 141.295 68.9091C140.822 69.0909 140.29 69.1818 139.699 69.1818ZM151.83 69L149.17 60.2727H150.58L152.466 66.9545H152.557L154.42 60.2727H155.852L157.693 66.9318H157.784L159.67 60.2727H161.08L158.42 69H157.102L155.193 62.2955H155.057L153.148 69H151.83ZM164.193 63.75V69H162.852V57.3636H164.193V61.6364H164.307C164.511 61.1856 164.818 60.8277 165.227 60.5625C165.64 60.2936 166.189 60.1591 166.875 60.1591C167.47 60.1591 167.991 60.2784 168.438 60.517C168.884 60.7519 169.231 61.1136 169.477 61.6023C169.727 62.0871 169.852 62.7045 169.852 63.4545V69H168.511V63.5455C168.511 62.8523 168.331 62.3163 167.972 61.9375C167.616 61.5549 167.121 61.3636 166.489 61.3636C166.049 61.3636 165.655 61.4564 165.307 61.642C164.962 61.8277 164.689 62.0985 164.489 62.4545C164.292 62.8106 164.193 63.2424 164.193 63.75ZM174.874 69.2045C174.321 69.2045 173.819 69.1004 173.368 68.892C172.917 68.6799 172.559 68.375 172.294 67.9773C172.029 67.5758 171.896 67.0909 171.896 66.5227C171.896 66.0227 171.995 65.6174 172.192 65.3068C172.389 64.9924 172.652 64.7462 172.982 64.5682C173.311 64.3902 173.675 64.2576 174.072 64.1705C174.474 64.0795 174.877 64.0076 175.283 63.9545C175.813 63.8864 176.243 63.8352 176.572 63.8011C176.906 63.7633 177.148 63.7008 177.3 63.6136C177.455 63.5265 177.533 63.375 177.533 63.1591V63.1136C177.533 62.553 177.379 62.1174 177.072 61.8068C176.769 61.4962 176.309 61.3409 175.692 61.3409C175.052 61.3409 174.55 61.4811 174.186 61.7614C173.822 62.0417 173.567 62.3409 173.419 62.6591L172.146 62.2045C172.374 61.6742 172.677 61.2614 173.055 60.9659C173.438 60.6667 173.855 60.4583 174.305 60.3409C174.76 60.2197 175.207 60.1591 175.646 60.1591C175.927 60.1591 176.249 60.1932 176.612 60.2614C176.98 60.3258 177.334 60.4602 177.675 60.6648C178.019 60.8693 178.305 61.178 178.533 61.5909C178.76 62.0038 178.874 62.5568 178.874 63.25V69H177.533V67.8182H177.464C177.374 68.0076 177.222 68.2102 177.01 68.4261C176.798 68.642 176.516 68.8258 176.163 68.9773C175.811 69.1288 175.381 69.2045 174.874 69.2045ZM175.078 68C175.608 68 176.055 67.8958 176.419 67.6875C176.786 67.4792 177.063 67.2102 177.249 66.8807C177.438 66.5511 177.533 66.2045 177.533 65.8409V64.6136C177.476 64.6818 177.351 64.7443 177.158 64.8011C176.968 64.8542 176.749 64.9015 176.499 64.9432C176.252 64.9811 176.012 65.0152 175.777 65.0455C175.546 65.072 175.358 65.0947 175.214 65.1136C174.866 65.1591 174.54 65.233 174.237 65.3352C173.938 65.4337 173.696 65.5833 173.51 65.7841C173.328 65.9811 173.237 66.25 173.237 66.5909C173.237 67.0568 173.41 67.4091 173.754 67.6477C174.103 67.8826 174.544 68 175.078 68ZM185.116 60.2727V61.4091H180.594V60.2727H185.116ZM181.912 58.1818H183.253V66.5C183.253 66.8788 183.308 67.1629 183.418 67.3523C183.531 67.5379 183.675 67.6629 183.849 67.7273C184.027 67.7879 184.215 67.8182 184.412 67.8182C184.56 67.8182 184.681 67.8106 184.776 67.7955C184.87 67.7765 184.946 67.7614 185.003 67.75L185.276 68.9545C185.185 68.9886 185.058 69.0227 184.895 69.0568C184.732 69.0947 184.526 69.1136 184.276 69.1136C183.897 69.1136 183.526 69.0322 183.162 68.8693C182.802 68.7064 182.503 68.4583 182.264 68.125C182.029 67.7917 181.912 67.3712 181.912 66.8636V58.1818ZM192.497 72.2727C192.27 72.2727 192.067 72.2538 191.889 72.2159C191.711 72.1818 191.588 72.1477 191.52 72.1136L191.861 70.9318C192.187 71.0152 192.474 71.0455 192.724 71.0227C192.974 71 193.196 70.8883 193.389 70.6875C193.586 70.4905 193.766 70.1705 193.929 69.7273L194.179 69.0455L190.952 60.2727H192.406L194.815 67.2273H194.906L197.315 60.2727H198.77L195.065 70.2727C194.899 70.7235 194.692 71.0966 194.446 71.392C194.2 71.6913 193.914 71.9129 193.588 72.0568C193.266 72.2008 192.902 72.2727 192.497 72.2727ZM203.773 69.1818C202.985 69.1818 202.294 68.9943 201.699 68.6193C201.108 68.2443 200.646 67.7197 200.312 67.0455C199.983 66.3712 199.818 65.5833 199.818 64.6818C199.818 63.7727 199.983 62.9792 200.312 62.3011C200.646 61.6231 201.108 61.0966 201.699 60.7216C202.294 60.3466 202.985 60.1591 203.773 60.1591C204.561 60.1591 205.25 60.3466 205.841 60.7216C206.436 61.0966 206.898 61.6231 207.227 62.3011C207.561 62.9792 207.727 63.7727 207.727 64.6818C207.727 65.5833 207.561 66.3712 207.227 67.0455C206.898 67.7197 206.436 68.2443 205.841 68.6193C205.25 68.9943 204.561 69.1818 203.773 69.1818ZM203.773 67.9773C204.371 67.9773 204.864 67.8239 205.25 67.517C205.636 67.2102 205.922 66.8068 206.108 66.3068C206.294 65.8068 206.386 65.2652 206.386 64.6818C206.386 64.0985 206.294 63.5549 206.108 63.0511C205.922 62.5473 205.636 62.1402 205.25 61.8295C204.864 61.5189 204.371 61.3636 203.773 61.3636C203.174 61.3636 202.682 61.5189 202.295 61.8295C201.909 62.1402 201.623 62.5473 201.438 63.0511C201.252 63.5549 201.159 64.0985 201.159 64.6818C201.159 65.2652 201.252 65.8068 201.438 66.3068C201.623 66.8068 201.909 67.2102 202.295 67.517C202.682 67.8239 203.174 67.9773 203.773 67.9773ZM215.274 65.4318V60.2727H216.615V69H215.274V67.5227H215.183C214.979 67.9659 214.661 68.3428 214.229 68.6534C213.797 68.9602 213.251 69.1136 212.592 69.1136C212.047 69.1136 211.562 68.9943 211.138 68.7557C210.714 68.5133 210.38 68.1496 210.138 67.6648C209.895 67.1761 209.774 66.5606 209.774 65.8182V60.2727H211.115V65.7273C211.115 66.3636 211.293 66.8712 211.649 67.25C212.009 67.6288 212.467 67.8182 213.024 67.8182C213.357 67.8182 213.696 67.733 214.041 67.5625C214.39 67.392 214.681 67.1307 214.916 66.7784C215.155 66.4261 215.274 65.9773 215.274 65.4318ZM59.5149 88.1818C58.7876 88.1818 58.1456 87.9981 57.5888 87.6307C57.032 87.2595 56.5964 86.7367 56.282 86.0625C55.9676 85.3845 55.8104 84.5833 55.8104 83.6591C55.8104 82.7424 55.9676 81.947 56.282 81.2727C56.5964 80.5985 57.0339 80.0777 57.5945 79.7102C58.1551 79.3428 58.8028 79.1591 59.5376 79.1591C60.1058 79.1591 60.5547 79.2538 60.8842 79.4432C61.2176 79.6288 61.4714 79.8409 61.6456 80.0795C61.8236 80.3144 61.9619 80.5076 62.0604 80.6591H62.174V76.3636H63.5149V88H62.2195V86.6591H62.0604C61.9619 86.8182 61.8217 87.0189 61.6399 87.2614C61.4581 87.5 61.1986 87.714 60.8615 87.9034C60.5244 88.089 60.0755 88.1818 59.5149 88.1818ZM59.6967 86.9773C60.2346 86.9773 60.6892 86.8371 61.0604 86.5568C61.4316 86.2727 61.7138 85.8807 61.907 85.3807C62.1001 84.8769 62.1967 84.2955 62.1967 83.6364C62.1967 82.9848 62.102 82.4148 61.9126 81.9261C61.7232 81.4337 61.4429 81.0511 61.0717 80.7784C60.7005 80.5019 60.2422 80.3636 59.6967 80.3636C59.1286 80.3636 58.6551 80.5095 58.2763 80.8011C57.9013 81.089 57.6191 81.4811 57.4297 81.9773C57.2441 82.4697 57.1513 83.0227 57.1513 83.6364C57.1513 84.2576 57.246 84.822 57.4354 85.3295C57.6286 85.8333 57.9126 86.2348 58.2876 86.5341C58.6664 86.8295 59.1361 86.9773 59.6967 86.9773ZM66.157 88V79.2727H67.4524V80.5909H67.5433C67.7024 80.1591 67.9903 79.8087 68.407 79.5398C68.8236 79.2708 69.2933 79.1364 69.8161 79.1364C69.9145 79.1364 70.0376 79.1383 70.1854 79.142C70.3331 79.1458 70.4448 79.1515 70.5206 79.1591V80.5227C70.4751 80.5114 70.371 80.4943 70.2081 80.4716C70.049 80.4451 69.8804 80.4318 69.7024 80.4318C69.2782 80.4318 68.8994 80.5208 68.5661 80.6989C68.2365 80.8731 67.9751 81.1155 67.782 81.4261C67.5926 81.733 67.4979 82.0833 67.4979 82.4773V88H66.157ZM75.5036 88.1818C74.6626 88.1818 73.9373 87.9962 73.3274 87.625C72.7214 87.25 72.2536 86.7273 71.924 86.0568C71.5982 85.3826 71.4354 84.5985 71.4354 83.7045C71.4354 82.8106 71.5982 82.0227 71.924 81.3409C72.2536 80.6553 72.7119 80.1212 73.299 79.7386C73.8899 79.3523 74.5793 79.1591 75.3672 79.1591C75.8217 79.1591 76.2706 79.2348 76.7138 79.3864C77.157 79.5379 77.5604 79.7841 77.924 80.125C78.2876 80.4621 78.5774 80.9091 78.7933 81.4659C79.0092 82.0227 79.1172 82.7083 79.1172 83.5227V84.0909H72.3899V82.9318H77.7536C77.7536 82.4394 77.6551 82 77.4581 81.6136C77.2649 81.2273 76.9884 80.9223 76.6286 80.6989C76.2725 80.4754 75.852 80.3636 75.3672 80.3636C74.8331 80.3636 74.371 80.4962 73.9808 80.7614C73.5945 81.0227 73.2971 81.3636 73.0888 81.7841C72.8804 82.2045 72.7763 82.6553 72.7763 83.1364V83.9091C72.7763 84.5682 72.8899 85.1269 73.1172 85.5852C73.3482 86.0398 73.6683 86.3864 74.0774 86.625C74.4865 86.8598 74.9619 86.9773 75.5036 86.9773C75.8558 86.9773 76.174 86.928 76.4581 86.8295C76.746 86.7273 76.9941 86.5758 77.2024 86.375C77.4107 86.1705 77.5717 85.9167 77.6854 85.6136L78.9808 85.9773C78.8445 86.4167 78.6153 86.803 78.2933 87.1364C77.9714 87.4659 77.5736 87.7235 77.1001 87.9091C76.6267 88.0909 76.0945 88.1818 75.5036 88.1818ZM83.7251 88.2045C83.1721 88.2045 82.6702 88.1004 82.2195 87.892C81.7687 87.6799 81.4107 87.375 81.1456 86.9773C80.8804 86.5758 80.7479 86.0909 80.7479 85.5227C80.7479 85.0227 80.8464 84.6174 81.0433 84.3068C81.2403 83.9924 81.5036 83.7462 81.8331 83.5682C82.1626 83.3902 82.5263 83.2576 82.924 83.1705C83.3255 83.0795 83.7289 83.0076 84.1342 82.9545C84.6645 82.8864 85.0945 82.8352 85.424 82.8011C85.7573 82.7633 85.9998 82.7008 86.1513 82.6136C86.3066 82.5265 86.3842 82.375 86.3842 82.1591V82.1136C86.3842 81.553 86.2308 81.1174 85.924 80.8068C85.621 80.4962 85.1607 80.3409 84.5433 80.3409C83.9032 80.3409 83.4013 80.4811 83.0376 80.7614C82.674 81.0417 82.4183 81.3409 82.2706 81.6591L80.9979 81.2045C81.2251 80.6742 81.5282 80.2614 81.907 79.9659C82.2895 79.6667 82.7062 79.4583 83.157 79.3409C83.6115 79.2197 84.0585 79.1591 84.4979 79.1591C84.7782 79.1591 85.1001 79.1932 85.4638 79.2614C85.8312 79.3258 86.1854 79.4602 86.5263 79.6648C86.871 79.8693 87.157 80.178 87.3842 80.5909C87.6115 81.0038 87.7251 81.5568 87.7251 82.25V88H86.3842V86.8182H86.3161C86.2251 87.0076 86.0736 87.2102 85.8615 87.4261C85.6494 87.642 85.3672 87.8258 85.0149 87.9773C84.6626 88.1288 84.2327 88.2045 83.7251 88.2045ZM83.9297 87C84.46 87 84.907 86.8958 85.2706 86.6875C85.638 86.4792 85.9145 86.2102 86.1001 85.8807C86.2895 85.5511 86.3842 85.2045 86.3842 84.8409V83.6136C86.3274 83.6818 86.2024 83.7443 86.0092 83.8011C85.8198 83.8542 85.6001 83.9015 85.3501 83.9432C85.1039 83.9811 84.8634 84.0152 84.6286 84.0455C84.3975 84.072 84.21 84.0947 84.0661 84.1136C83.7176 84.1591 83.3918 84.233 83.0888 84.3352C82.7895 84.4337 82.5471 84.5833 82.3615 84.7841C82.1797 84.9811 82.0888 85.25 82.0888 85.5909C82.0888 86.0568 82.2611 86.4091 82.6058 86.6477C82.9543 86.8826 83.3956 87 83.9297 87ZM90.1726 88V79.2727H91.468V80.6364H91.5817C91.7635 80.1705 92.0571 79.8087 92.4624 79.5511C92.8677 79.2898 93.3544 79.1591 93.9226 79.1591C94.4983 79.1591 94.9775 79.2898 95.3601 79.5511C95.7464 79.8087 96.0476 80.1705 96.2635 80.6364H96.3544C96.5779 80.1856 96.9131 79.8277 97.3601 79.5625C97.8071 79.2936 98.343 79.1591 98.968 79.1591C99.7483 79.1591 100.387 79.4034 100.883 79.892C101.379 80.3769 101.627 81.1326 101.627 82.1591V88H100.286V82.1591C100.286 81.5152 100.11 81.0549 99.7578 80.7784C99.4055 80.5019 98.9908 80.3636 98.5135 80.3636C97.8999 80.3636 97.4245 80.5492 97.0874 80.9205C96.7502 81.2879 96.5817 81.7538 96.5817 82.3182V88H95.218V82.0227C95.218 81.5265 95.0571 81.1269 94.7351 80.8239C94.4131 80.517 93.9983 80.3636 93.4908 80.3636C93.1423 80.3636 92.8165 80.4564 92.5135 80.642C92.2143 80.8277 91.9718 81.0852 91.7862 81.4148C91.6044 81.7405 91.5135 82.1174 91.5135 82.5455V88H90.1726ZM111.147 88.2045C110.594 88.2045 110.092 88.1004 109.641 87.892C109.191 87.6799 108.833 87.375 108.567 86.9773C108.302 86.5758 108.17 86.0909 108.17 85.5227C108.17 85.0227 108.268 84.6174 108.465 84.3068C108.662 83.9924 108.925 83.7462 109.255 83.5682C109.585 83.3902 109.948 83.2576 110.346 83.1705C110.747 83.0795 111.151 83.0076 111.556 82.9545C112.086 82.8864 112.516 82.8352 112.846 82.8011C113.179 82.7633 113.422 82.7008 113.573 82.6136C113.728 82.5265 113.806 82.375 113.806 82.1591V82.1136C113.806 81.553 113.653 81.1174 113.346 80.8068C113.043 80.4962 112.583 80.3409 111.965 80.3409C111.325 80.3409 110.823 80.4811 110.46 80.7614C110.096 81.0417 109.84 81.3409 109.692 81.6591L108.42 81.2045C108.647 80.6742 108.95 80.2614 109.329 79.9659C109.711 79.6667 110.128 79.4583 110.579 79.3409C111.033 79.2197 111.48 79.1591 111.92 79.1591C112.2 79.1591 112.522 79.1932 112.886 79.2614C113.253 79.3258 113.607 79.4602 113.948 79.6648C114.293 79.8693 114.579 80.178 114.806 80.5909C115.033 81.0038 115.147 81.5568 115.147 82.25V88H113.806V86.8182H113.738C113.647 87.0076 113.496 87.2102 113.283 87.4261C113.071 87.642 112.789 87.8258 112.437 87.9773C112.085 88.1288 111.655 88.2045 111.147 88.2045ZM111.352 87C111.882 87 112.329 86.8958 112.692 86.6875C113.06 86.4792 113.336 86.2102 113.522 85.8807C113.711 85.5511 113.806 85.2045 113.806 84.8409V83.6136C113.749 83.6818 113.624 83.7443 113.431 83.8011C113.242 83.8542 113.022 83.9015 112.772 83.9432C112.526 83.9811 112.285 84.0152 112.05 84.0455C111.819 84.072 111.632 84.0947 111.488 84.1136C111.139 84.1591 110.814 84.233 110.511 84.3352C110.211 84.4337 109.969 84.5833 109.783 84.7841C109.602 84.9811 109.511 85.25 109.511 85.5909C109.511 86.0568 109.683 86.4091 110.028 86.6477C110.376 86.8826 110.817 87 111.352 87ZM117.776 88V76.3636H119.117V80.6591H119.231C119.329 80.5076 119.466 80.3144 119.64 80.0795C119.818 79.8409 120.072 79.6288 120.401 79.4432C120.735 79.2538 121.185 79.1591 121.754 79.1591C122.488 79.1591 123.136 79.3428 123.697 79.7102C124.257 80.0777 124.695 80.5985 125.009 81.2727C125.324 81.947 125.481 82.7424 125.481 83.6591C125.481 84.5833 125.324 85.3845 125.009 86.0625C124.695 86.7367 124.259 87.2595 123.702 87.6307C123.146 87.9981 122.504 88.1818 121.776 88.1818C121.216 88.1818 120.767 88.089 120.43 87.9034C120.093 87.714 119.833 87.5 119.651 87.2614C119.469 87.0189 119.329 86.8182 119.231 86.6591H119.072V88H117.776ZM119.094 83.6364C119.094 84.2955 119.191 84.8769 119.384 85.3807C119.577 85.8807 119.86 86.2727 120.231 86.5568C120.602 86.8371 121.057 86.9773 121.594 86.9773C122.155 86.9773 122.623 86.8295 122.998 86.5341C123.377 86.2348 123.661 85.8333 123.85 85.3295C124.043 84.822 124.14 84.2576 124.14 83.6364C124.14 83.0227 124.045 82.4697 123.856 81.9773C123.67 81.4811 123.388 81.089 123.009 80.8011C122.634 80.5095 122.163 80.3636 121.594 80.3636C121.049 80.3636 120.591 80.5019 120.219 80.7784C119.848 81.0511 119.568 81.4337 119.379 81.9261C119.189 82.4148 119.094 82.9848 119.094 83.6364ZM131.077 88.1818C130.29 88.1818 129.598 87.9943 129.004 87.6193C128.413 87.2443 127.951 86.7197 127.617 86.0455C127.288 85.3712 127.123 84.5833 127.123 83.6818C127.123 82.7727 127.288 81.9792 127.617 81.3011C127.951 80.6231 128.413 80.0966 129.004 79.7216C129.598 79.3466 130.29 79.1591 131.077 79.1591C131.865 79.1591 132.555 79.3466 133.146 79.7216C133.74 80.0966 134.202 80.6231 134.532 81.3011C134.865 81.9792 135.032 82.7727 135.032 83.6818C135.032 84.5833 134.865 85.3712 134.532 86.0455C134.202 86.7197 133.74 87.2443 133.146 87.6193C132.555 87.9943 131.865 88.1818 131.077 88.1818ZM131.077 86.9773C131.676 86.9773 132.168 86.8239 132.555 86.517C132.941 86.2102 133.227 85.8068 133.413 85.3068C133.598 84.8068 133.691 84.2652 133.691 83.6818C133.691 83.0985 133.598 82.5549 133.413 82.0511C133.227 81.5473 132.941 81.1402 132.555 80.8295C132.168 80.5189 131.676 80.3636 131.077 80.3636C130.479 80.3636 129.987 80.5189 129.6 80.8295C129.214 81.1402 128.928 81.5473 128.742 82.0511C128.557 82.5549 128.464 83.0985 128.464 83.6818C128.464 84.2652 128.557 84.8068 128.742 85.3068C128.928 85.8068 129.214 86.2102 129.6 86.517C129.987 86.8239 130.479 86.9773 131.077 86.9773ZM142.579 84.4318V79.2727H143.92V88H142.579V86.5227H142.488C142.283 86.9659 141.965 87.3428 141.533 87.6534C141.102 87.9602 140.556 88.1136 139.897 88.1136C139.352 88.1136 138.867 87.9943 138.442 87.7557C138.018 87.5133 137.685 87.1496 137.442 86.6648C137.2 86.1761 137.079 85.5606 137.079 84.8182V79.2727H138.42V84.7273C138.42 85.3636 138.598 85.8712 138.954 86.25C139.314 86.6288 139.772 86.8182 140.329 86.8182C140.662 86.8182 141.001 86.733 141.346 86.5625C141.694 86.392 141.986 86.1307 142.221 85.7784C142.46 85.4261 142.579 84.9773 142.579 84.4318ZM150.171 79.2727V80.4091H145.648V79.2727H150.171ZM146.967 77.1818H148.308V85.5C148.308 85.8788 148.362 86.1629 148.472 86.3523C148.586 86.5379 148.73 86.6629 148.904 86.7273C149.082 86.7879 149.27 86.8182 149.467 86.8182C149.614 86.8182 149.736 86.8106 149.83 86.7955C149.925 86.7765 150.001 86.7614 150.058 86.75L150.33 87.9545C150.239 87.9886 150.112 88.0227 149.95 88.0568C149.787 88.0947 149.58 88.1136 149.33 88.1136C148.951 88.1136 148.58 88.0322 148.217 87.8693C147.857 87.7064 147.558 87.4583 147.319 87.125C147.084 86.7917 146.967 86.3712 146.967 85.8636V77.1818ZM153.165 88.0909C152.885 88.0909 152.645 87.9905 152.444 87.7898C152.243 87.589 152.143 87.3485 152.143 87.0682C152.143 86.7879 152.243 86.5473 152.444 86.3466C152.645 86.1458 152.885 86.0455 153.165 86.0455C153.446 86.0455 153.686 86.1458 153.887 86.3466C154.088 86.5473 154.188 86.7879 154.188 87.0682C154.188 87.2538 154.141 87.4242 154.046 87.5795C153.955 87.7348 153.832 87.8598 153.677 87.9545C153.525 88.0455 153.355 88.0909 153.165 88.0909ZM160.276 76.3636H161.89L165.117 81.7955H165.254L168.481 76.3636H170.094L165.89 83.2045V88H164.481V83.2045L160.276 76.3636ZM174.046 88.1818C173.258 88.1818 172.567 87.9943 171.972 87.6193C171.381 87.2443 170.919 86.7197 170.586 86.0455C170.256 85.3712 170.092 84.5833 170.092 83.6818C170.092 82.7727 170.256 81.9792 170.586 81.3011C170.919 80.6231 171.381 80.0966 171.972 79.7216C172.567 79.3466 173.258 79.1591 174.046 79.1591C174.834 79.1591 175.523 79.3466 176.114 79.7216C176.709 80.0966 177.171 80.6231 177.501 81.3011C177.834 81.9792 178.001 82.7727 178.001 83.6818C178.001 84.5833 177.834 85.3712 177.501 86.0455C177.171 86.7197 176.709 87.2443 176.114 87.6193C175.523 87.9943 174.834 88.1818 174.046 88.1818ZM174.046 86.9773C174.645 86.9773 175.137 86.8239 175.523 86.517C175.91 86.2102 176.196 85.8068 176.381 85.3068C176.567 84.8068 176.66 84.2652 176.66 83.6818C176.66 83.0985 176.567 82.5549 176.381 82.0511C176.196 81.5473 175.91 81.1402 175.523 80.8295C175.137 80.5189 174.645 80.3636 174.046 80.3636C173.448 80.3636 172.955 80.5189 172.569 80.8295C172.183 81.1402 171.897 81.5473 171.711 82.0511C171.525 82.5549 171.433 83.0985 171.433 83.6818C171.433 84.2652 171.525 84.8068 171.711 85.3068C171.897 85.8068 172.183 86.2102 172.569 86.517C172.955 86.8239 173.448 86.9773 174.046 86.9773ZM185.548 84.4318V79.2727H186.888V88H185.548V86.5227H185.457C185.252 86.9659 184.934 87.3428 184.502 87.6534C184.07 87.9602 183.525 88.1136 182.866 88.1136C182.32 88.1136 181.835 87.9943 181.411 87.7557C180.987 87.5133 180.654 87.1496 180.411 86.6648C180.169 86.1761 180.048 85.5606 180.048 84.8182V79.2727H181.388V84.7273C181.388 85.3636 181.567 85.8712 181.923 86.25C182.282 86.6288 182.741 86.8182 183.298 86.8182C183.631 86.8182 183.97 86.733 184.315 86.5625C184.663 86.392 184.955 86.1307 185.19 85.7784C185.428 85.4261 185.548 84.9773 185.548 84.4318ZM195.822 88L193.163 79.2727H194.572L196.458 85.9545H196.549L198.413 79.2727H199.844L201.685 85.9318H201.776L203.663 79.2727H205.072L202.413 88H201.094L199.185 81.2955H199.049L197.14 88H195.822ZM206.844 88V79.2727H208.185V88H206.844ZM207.526 77.8182C207.265 77.8182 207.04 77.7292 206.85 77.5511C206.665 77.3731 206.572 77.1591 206.572 76.9091C206.572 76.6591 206.665 76.4451 206.85 76.267C207.04 76.089 207.265 76 207.526 76C207.788 76 208.011 76.089 208.197 76.267C208.386 76.4451 208.481 76.6591 208.481 76.9091C208.481 77.1591 208.386 77.3731 208.197 77.5511C208.011 77.7292 207.788 77.8182 207.526 77.8182ZM211.982 76.3636V88H210.641V76.3636H211.982ZM215.779 76.3636V88H214.438V76.3636H215.779ZM53.0497 107V95.3636H54.3906V99.6591H54.5043C54.6027 99.5076 54.7391 99.3144 54.9134 99.0795C55.0914 98.8409 55.3452 98.6288 55.6747 98.4432C56.008 98.2538 56.4588 98.1591 57.027 98.1591C57.7618 98.1591 58.4096 98.3428 58.9702 98.7102C59.5308 99.0777 59.9683 99.5985 60.2827 100.273C60.5971 100.947 60.7543 101.742 60.7543 102.659C60.7543 103.583 60.5971 104.384 60.2827 105.062C59.9683 105.737 59.5327 106.259 58.9759 106.631C58.419 106.998 57.777 107.182 57.0497 107.182C56.4891 107.182 56.0402 107.089 55.7031 106.903C55.366 106.714 55.1065 106.5 54.9247 106.261C54.7429 106.019 54.6027 105.818 54.5043 105.659H54.3452V107H53.0497ZM54.3679 102.636C54.3679 103.295 54.4645 103.877 54.6577 104.381C54.8509 104.881 55.133 105.273 55.5043 105.557C55.8755 105.837 56.33 105.977 56.8679 105.977C57.4285 105.977 57.8963 105.83 58.2713 105.534C58.6501 105.235 58.9342 104.833 59.1236 104.33C59.3168 103.822 59.4134 103.258 59.4134 102.636C59.4134 102.023 59.3187 101.47 59.1293 100.977C58.9437 100.481 58.6615 100.089 58.2827 99.8011C57.9077 99.5095 57.4361 99.3636 56.8679 99.3636C56.3224 99.3636 55.8641 99.5019 55.4929 99.7784C55.1217 100.051 54.8414 100.434 54.652 100.926C54.4626 101.415 54.3679 101.985 54.3679 102.636ZM66.4645 107.182C65.6236 107.182 64.8982 106.996 64.2884 106.625C63.6823 106.25 63.2145 105.727 62.8849 105.057C62.5592 104.383 62.3963 103.598 62.3963 102.705C62.3963 101.811 62.5592 101.023 62.8849 100.341C63.2145 99.6553 63.6728 99.1212 64.2599 98.7386C64.8509 98.3523 65.5402 98.1591 66.3281 98.1591C66.7827 98.1591 67.2315 98.2348 67.6747 98.3864C68.1179 98.5379 68.5213 98.7841 68.8849 99.125C69.2486 99.4621 69.5384 99.9091 69.7543 100.466C69.9702 101.023 70.0781 101.708 70.0781 102.523V103.091H63.3509V101.932H68.7145C68.7145 101.439 68.616 101 68.419 100.614C68.2259 100.227 67.9493 99.9223 67.5895 99.6989C67.2334 99.4754 66.813 99.3636 66.3281 99.3636C65.794 99.3636 65.3319 99.4962 64.9418 99.7614C64.5554 100.023 64.258 100.364 64.0497 100.784C63.8414 101.205 63.7372 101.655 63.7372 102.136V102.909C63.7372 103.568 63.8509 104.127 64.0781 104.585C64.3092 105.04 64.6293 105.386 65.0384 105.625C65.4474 105.86 65.9228 105.977 66.4645 105.977C66.8168 105.977 67.1349 105.928 67.419 105.83C67.7069 105.727 67.955 105.576 68.1634 105.375C68.3717 105.17 68.5327 104.917 68.6463 104.614L69.9418 104.977C69.8054 105.417 69.5762 105.803 69.2543 106.136C68.9323 106.466 68.5346 106.723 68.0611 106.909C67.5876 107.091 67.0554 107.182 66.4645 107.182ZM79.1861 107.205C78.633 107.205 78.1312 107.1 77.6804 106.892C77.2296 106.68 76.8717 106.375 76.6065 105.977C76.3414 105.576 76.2088 105.091 76.2088 104.523C76.2088 104.023 76.3073 103.617 76.5043 103.307C76.7012 102.992 76.9645 102.746 77.294 102.568C77.6236 102.39 77.9872 102.258 78.3849 102.17C78.7865 102.08 79.1899 102.008 79.5952 101.955C80.1255 101.886 80.5554 101.835 80.8849 101.801C81.2183 101.763 81.4607 101.701 81.6122 101.614C81.7675 101.527 81.8452 101.375 81.8452 101.159V101.114C81.8452 100.553 81.6918 100.117 81.3849 99.8068C81.0819 99.4962 80.6217 99.3409 80.0043 99.3409C79.3641 99.3409 78.8622 99.4811 78.4986 99.7614C78.1349 100.042 77.8793 100.341 77.7315 100.659L76.4588 100.205C76.6861 99.6742 76.9891 99.2614 77.3679 98.9659C77.7505 98.6667 78.1671 98.4583 78.6179 98.3409C79.0724 98.2197 79.5194 98.1591 79.9588 98.1591C80.2391 98.1591 80.5611 98.1932 80.9247 98.2614C81.2921 98.3258 81.6463 98.4602 81.9872 98.6648C82.3319 98.8693 82.6179 99.178 82.8452 99.5909C83.0724 100.004 83.1861 100.557 83.1861 101.25V107H81.8452V105.818H81.777C81.6861 106.008 81.5346 106.21 81.3224 106.426C81.1103 106.642 80.8281 106.826 80.4759 106.977C80.1236 107.129 79.6937 107.205 79.1861 107.205ZM79.3906 106C79.9209 106 80.3679 105.896 80.7315 105.688C81.099 105.479 81.3755 105.21 81.5611 104.881C81.7505 104.551 81.8452 104.205 81.8452 103.841V102.614C81.7884 102.682 81.6634 102.744 81.4702 102.801C81.2808 102.854 81.0611 102.902 80.8111 102.943C80.5649 102.981 80.3243 103.015 80.0895 103.045C79.8584 103.072 79.6709 103.095 79.527 103.114C79.1785 103.159 78.8527 103.233 78.5497 103.335C78.2505 103.434 78.008 103.583 77.8224 103.784C77.6406 103.981 77.5497 104.25 77.5497 104.591C77.5497 105.057 77.7221 105.409 78.0668 105.648C78.4152 105.883 78.8565 106 79.3906 106ZM85.8153 107V95.3636H87.1562V99.6591H87.2699C87.3684 99.5076 87.5047 99.3144 87.679 99.0795C87.857 98.8409 88.1108 98.6288 88.4403 98.4432C88.7737 98.2538 89.2244 98.1591 89.7926 98.1591C90.5275 98.1591 91.1752 98.3428 91.7358 98.7102C92.2964 99.0777 92.7339 99.5985 93.0483 100.273C93.3627 100.947 93.5199 101.742 93.5199 102.659C93.5199 103.583 93.3627 104.384 93.0483 105.062C92.7339 105.737 92.2983 106.259 91.7415 106.631C91.1847 106.998 90.5426 107.182 89.8153 107.182C89.2547 107.182 88.8059 107.089 88.4688 106.903C88.1316 106.714 87.8722 106.5 87.6903 106.261C87.5085 106.019 87.3684 105.818 87.2699 105.659H87.1108V107H85.8153ZM87.1335 102.636C87.1335 103.295 87.2301 103.877 87.4233 104.381C87.6165 104.881 87.8987 105.273 88.2699 105.557C88.6411 105.837 89.0956 105.977 89.6335 105.977C90.1941 105.977 90.6619 105.83 91.0369 105.534C91.4157 105.235 91.6998 104.833 91.8892 104.33C92.0824 103.822 92.179 103.258 92.179 102.636C92.179 102.023 92.0843 101.47 91.8949 100.977C91.7093 100.481 91.4271 100.089 91.0483 99.8011C90.6733 99.5095 90.2017 99.3636 89.6335 99.3636C89.0881 99.3636 88.6297 99.5019 88.2585 99.7784C87.8873 100.051 87.607 100.434 87.4176 100.926C87.2282 101.415 87.1335 101.985 87.1335 102.636ZM96.9119 95.3636V107H95.571V95.3636H96.9119ZM103.027 107.182C102.186 107.182 101.461 106.996 100.851 106.625C100.245 106.25 99.777 105.727 99.4474 105.057C99.1217 104.383 98.9588 103.598 98.9588 102.705C98.9588 101.811 99.1217 101.023 99.4474 100.341C99.777 99.6553 100.235 99.1212 100.822 98.7386C101.413 98.3523 102.103 98.1591 102.891 98.1591C103.345 98.1591 103.794 98.2348 104.237 98.3864C104.68 98.5379 105.084 98.7841 105.447 99.125C105.811 99.4621 106.101 99.9091 106.317 100.466C106.533 101.023 106.641 101.708 106.641 102.523V103.091H99.9134V101.932H105.277C105.277 101.439 105.179 101 104.982 100.614C104.788 100.227 104.512 99.9223 104.152 99.6989C103.796 99.4754 103.375 99.3636 102.891 99.3636C102.357 99.3636 101.894 99.4962 101.504 99.7614C101.118 100.023 100.821 100.364 100.612 100.784C100.404 101.205 100.3 101.655 100.3 102.136V102.909C100.3 103.568 100.413 104.127 100.641 104.585C100.872 105.04 101.192 105.386 101.601 105.625C102.01 105.86 102.485 105.977 103.027 105.977C103.379 105.977 103.697 105.928 103.982 105.83C104.269 105.727 104.518 105.576 104.726 105.375C104.934 105.17 105.095 104.917 105.209 104.614L106.504 104.977C106.368 105.417 106.139 105.803 105.817 106.136C105.495 106.466 105.097 106.723 104.624 106.909C104.15 107.091 103.618 107.182 103.027 107.182ZM116.976 98.2727V99.4091H112.453V98.2727H116.976ZM113.771 96.1818H115.112V104.5C115.112 104.879 115.167 105.163 115.277 105.352C115.391 105.538 115.535 105.663 115.709 105.727C115.887 105.788 116.074 105.818 116.271 105.818C116.419 105.818 116.54 105.811 116.635 105.795C116.73 105.777 116.805 105.761 116.862 105.75L117.135 106.955C117.044 106.989 116.917 107.023 116.754 107.057C116.591 107.095 116.385 107.114 116.135 107.114C115.756 107.114 115.385 107.032 115.021 106.869C114.661 106.706 114.362 106.458 114.124 106.125C113.889 105.792 113.771 105.371 113.771 104.864V96.1818ZM122.445 107.182C121.657 107.182 120.965 106.994 120.371 106.619C119.78 106.244 119.318 105.72 118.984 105.045C118.655 104.371 118.49 103.583 118.49 102.682C118.49 101.773 118.655 100.979 118.984 100.301C119.318 99.6231 119.78 99.0966 120.371 98.7216C120.965 98.3466 121.657 98.1591 122.445 98.1591C123.232 98.1591 123.922 98.3466 124.513 98.7216C125.107 99.0966 125.57 99.6231 125.899 100.301C126.232 100.979 126.399 101.773 126.399 102.682C126.399 103.583 126.232 104.371 125.899 105.045C125.57 105.72 125.107 106.244 124.513 106.619C123.922 106.994 123.232 107.182 122.445 107.182ZM122.445 105.977C123.043 105.977 123.536 105.824 123.922 105.517C124.308 105.21 124.594 104.807 124.78 104.307C124.965 103.807 125.058 103.265 125.058 102.682C125.058 102.098 124.965 101.555 124.78 101.051C124.594 100.547 124.308 100.14 123.922 99.8295C123.536 99.5189 123.043 99.3636 122.445 99.3636C121.846 99.3636 121.354 99.5189 120.967 99.8295C120.581 100.14 120.295 100.547 120.109 101.051C119.924 101.555 119.831 102.098 119.831 102.682C119.831 103.265 119.924 103.807 120.109 104.307C120.295 104.807 120.581 105.21 120.967 105.517C121.354 105.824 121.846 105.977 122.445 105.977ZM136.491 107.182C135.673 107.182 134.969 106.989 134.378 106.602C133.787 106.216 133.332 105.684 133.014 105.006C132.696 104.328 132.537 103.553 132.537 102.682C132.537 101.795 132.7 101.013 133.026 100.335C133.355 99.6534 133.813 99.1212 134.401 98.7386C134.991 98.3523 135.681 98.1591 136.469 98.1591C137.082 98.1591 137.635 98.2727 138.128 98.5C138.62 98.7273 139.024 99.0455 139.338 99.4545C139.652 99.8636 139.848 100.341 139.923 100.886H138.582C138.48 100.489 138.253 100.136 137.901 99.8295C137.552 99.5189 137.082 99.3636 136.491 99.3636C135.969 99.3636 135.51 99.5 135.116 99.7727C134.726 100.042 134.421 100.422 134.202 100.915C133.986 101.403 133.878 101.977 133.878 102.636C133.878 103.311 133.984 103.898 134.196 104.398C134.412 104.898 134.715 105.286 135.105 105.562C135.499 105.839 135.961 105.977 136.491 105.977C136.84 105.977 137.156 105.917 137.44 105.795C137.724 105.674 137.965 105.5 138.162 105.273C138.359 105.045 138.499 104.773 138.582 104.455H139.923C139.848 104.97 139.66 105.434 139.361 105.847C139.065 106.256 138.673 106.581 138.185 106.824C137.7 107.062 137.135 107.182 136.491 107.182ZM143.224 101.75V107H141.884V95.3636H143.224V99.6364H143.338C143.543 99.1856 143.849 98.8277 144.259 98.5625C144.671 98.2936 145.221 98.1591 145.906 98.1591C146.501 98.1591 147.022 98.2784 147.469 98.517C147.916 98.7519 148.262 99.1136 148.509 99.6023C148.759 100.087 148.884 100.705 148.884 101.455V107H147.543V101.545C147.543 100.852 147.363 100.316 147.003 99.9375C146.647 99.5549 146.152 99.3636 145.52 99.3636C145.08 99.3636 144.687 99.4564 144.338 99.642C143.993 99.8277 143.721 100.098 143.52 100.455C143.323 100.811 143.224 101.242 143.224 101.75ZM153.905 107.205C153.352 107.205 152.85 107.1 152.399 106.892C151.948 106.68 151.59 106.375 151.325 105.977C151.06 105.576 150.928 105.091 150.928 104.523C150.928 104.023 151.026 103.617 151.223 103.307C151.42 102.992 151.683 102.746 152.013 102.568C152.342 102.39 152.706 102.258 153.104 102.17C153.505 102.08 153.909 102.008 154.314 101.955C154.844 101.886 155.274 101.835 155.604 101.801C155.937 101.763 156.179 101.701 156.331 101.614C156.486 101.527 156.564 101.375 156.564 101.159V101.114C156.564 100.553 156.411 100.117 156.104 99.8068C155.801 99.4962 155.34 99.3409 154.723 99.3409C154.083 99.3409 153.581 99.4811 153.217 99.7614C152.854 100.042 152.598 100.341 152.45 100.659L151.178 100.205C151.405 99.6742 151.708 99.2614 152.087 98.9659C152.469 98.6667 152.886 98.4583 153.337 98.3409C153.791 98.2197 154.238 98.1591 154.678 98.1591C154.958 98.1591 155.28 98.1932 155.643 98.2614C156.011 98.3258 156.365 98.4602 156.706 98.6648C157.051 98.8693 157.337 99.178 157.564 99.5909C157.791 100.004 157.905 100.557 157.905 101.25V107H156.564V105.818H156.496C156.405 106.008 156.253 106.21 156.041 106.426C155.829 106.642 155.547 106.826 155.195 106.977C154.842 107.129 154.412 107.205 153.905 107.205ZM154.109 106C154.64 106 155.087 105.896 155.45 105.688C155.818 105.479 156.094 105.21 156.28 104.881C156.469 104.551 156.564 104.205 156.564 103.841V102.614C156.507 102.682 156.382 102.744 156.189 102.801C156 102.854 155.78 102.902 155.53 102.943C155.284 102.981 155.043 103.015 154.808 103.045C154.577 103.072 154.39 103.095 154.246 103.114C153.897 103.159 153.571 103.233 153.268 103.335C152.969 103.434 152.727 103.583 152.541 103.784C152.359 103.981 152.268 104.25 152.268 104.591C152.268 105.057 152.441 105.409 152.786 105.648C153.134 105.883 153.575 106 154.109 106ZM161.693 101.75V107H160.352V98.2727H161.648V99.6364H161.761C161.966 99.1932 162.277 98.8371 162.693 98.5682C163.11 98.2955 163.648 98.1591 164.307 98.1591C164.898 98.1591 165.415 98.2803 165.858 98.5227C166.301 98.7614 166.646 99.125 166.892 99.6136C167.138 100.098 167.261 100.712 167.261 101.455V107H165.92V101.545C165.92 100.86 165.742 100.326 165.386 99.9432C165.03 99.5568 164.542 99.3636 163.92 99.3636C163.492 99.3636 163.11 99.4564 162.773 99.642C162.439 99.8277 162.176 100.098 161.983 100.455C161.79 100.811 161.693 101.242 161.693 101.75ZM173.234 110.455C172.587 110.455 172.03 110.371 171.564 110.205C171.098 110.042 170.71 109.826 170.399 109.557C170.092 109.292 169.848 109.008 169.666 108.705L170.734 107.955C170.856 108.114 171.009 108.295 171.195 108.5C171.38 108.708 171.634 108.888 171.956 109.04C172.282 109.195 172.708 109.273 173.234 109.273C173.939 109.273 174.52 109.102 174.979 108.761C175.437 108.42 175.666 107.886 175.666 107.159V105.386H175.553C175.454 105.545 175.314 105.742 175.132 105.977C174.954 106.208 174.696 106.415 174.359 106.597C174.026 106.775 173.575 106.864 173.007 106.864C172.303 106.864 171.67 106.697 171.109 106.364C170.553 106.03 170.111 105.545 169.786 104.909C169.464 104.273 169.303 103.5 169.303 102.591C169.303 101.697 169.46 100.919 169.774 100.256C170.089 99.589 170.526 99.0739 171.087 98.7102C171.647 98.3428 172.295 98.1591 173.03 98.1591C173.598 98.1591 174.049 98.2538 174.382 98.4432C174.719 98.6288 174.977 98.8409 175.155 99.0795C175.337 99.3144 175.477 99.5076 175.575 99.6591H175.712V98.2727H177.007V107.25C177.007 108 176.837 108.61 176.496 109.08C176.159 109.553 175.704 109.9 175.132 110.119C174.564 110.343 173.931 110.455 173.234 110.455ZM173.189 105.659C173.727 105.659 174.181 105.536 174.553 105.29C174.924 105.044 175.206 104.689 175.399 104.227C175.592 103.765 175.689 103.212 175.689 102.568C175.689 101.939 175.594 101.384 175.405 100.903C175.215 100.422 174.935 100.045 174.564 99.7727C174.193 99.5 173.734 99.3636 173.189 99.3636C172.621 99.3636 172.147 99.5076 171.768 99.7955C171.393 100.083 171.111 100.47 170.922 100.955C170.736 101.439 170.643 101.977 170.643 102.568C170.643 103.174 170.738 103.71 170.928 104.176C171.121 104.638 171.405 105.002 171.78 105.267C172.159 105.528 172.628 105.659 173.189 105.659ZM183.121 107.182C182.28 107.182 181.554 106.996 180.945 106.625C180.339 106.25 179.871 105.727 179.541 105.057C179.215 104.383 179.053 103.598 179.053 102.705C179.053 101.811 179.215 101.023 179.541 100.341C179.871 99.6553 180.329 99.1212 180.916 98.7386C181.507 98.3523 182.196 98.1591 182.984 98.1591C183.439 98.1591 183.888 98.2348 184.331 98.3864C184.774 98.5379 185.178 98.7841 185.541 99.125C185.905 99.4621 186.195 99.9091 186.411 100.466C186.626 101.023 186.734 101.708 186.734 102.523V103.091H180.007V101.932H185.371C185.371 101.439 185.272 101 185.075 100.614C184.882 100.227 184.606 99.9223 184.246 99.6989C183.89 99.4754 183.469 99.3636 182.984 99.3636C182.45 99.3636 181.988 99.4962 181.598 99.7614C181.212 100.023 180.914 100.364 180.706 100.784C180.498 101.205 180.393 101.655 180.393 102.136V102.909C180.393 103.568 180.507 104.127 180.734 104.585C180.965 105.04 181.286 105.386 181.695 105.625C182.104 105.86 182.579 105.977 183.121 105.977C183.473 105.977 183.791 105.928 184.075 105.83C184.363 105.727 184.611 105.576 184.82 105.375C185.028 105.17 185.189 104.917 185.303 104.614L186.598 104.977C186.462 105.417 186.232 105.803 185.911 106.136C185.589 106.466 185.191 106.723 184.717 106.909C184.244 107.091 183.712 107.182 183.121 107.182ZM195.842 107.205C195.289 107.205 194.787 107.1 194.337 106.892C193.886 106.68 193.528 106.375 193.263 105.977C192.998 105.576 192.865 105.091 192.865 104.523C192.865 104.023 192.964 103.617 193.161 103.307C193.357 102.992 193.621 102.746 193.95 102.568C194.28 102.39 194.643 102.258 195.041 102.17C195.443 102.08 195.846 102.008 196.251 101.955C196.782 101.886 197.212 101.835 197.541 101.801C197.875 101.763 198.117 101.701 198.268 101.614C198.424 101.527 198.501 101.375 198.501 101.159V101.114C198.501 100.553 198.348 100.117 198.041 99.8068C197.738 99.4962 197.278 99.3409 196.661 99.3409C196.02 99.3409 195.518 99.4811 195.155 99.7614C194.791 100.042 194.536 100.341 194.388 100.659L193.115 100.205C193.342 99.6742 193.645 99.2614 194.024 98.9659C194.407 98.6667 194.823 98.4583 195.274 98.3409C195.729 98.2197 196.176 98.1591 196.615 98.1591C196.895 98.1591 197.217 98.1932 197.581 98.2614C197.948 98.3258 198.303 98.4602 198.643 98.6648C198.988 98.8693 199.274 99.178 199.501 99.5909C199.729 100.004 199.842 100.557 199.842 101.25V107H198.501V105.818H198.433C198.342 106.008 198.191 106.21 197.979 106.426C197.767 106.642 197.484 106.826 197.132 106.977C196.78 107.129 196.35 107.205 195.842 107.205ZM196.047 106C196.577 106 197.024 105.896 197.388 105.688C197.755 105.479 198.032 105.21 198.217 104.881C198.407 104.551 198.501 104.205 198.501 103.841V102.614C198.445 102.682 198.32 102.744 198.126 102.801C197.937 102.854 197.717 102.902 197.467 102.943C197.221 102.981 196.981 103.015 196.746 103.045C196.515 103.072 196.327 103.095 196.183 103.114C195.835 103.159 195.509 103.233 195.206 103.335C194.907 103.434 194.664 103.583 194.479 103.784C194.297 103.981 194.206 104.25 194.206 104.591C194.206 105.057 194.378 105.409 194.723 105.648C195.071 105.883 195.513 106 196.047 106ZM203.631 101.75V107H202.29V98.2727H203.585V99.6364H203.699C203.903 99.1932 204.214 98.8371 204.631 98.5682C205.047 98.2955 205.585 98.1591 206.244 98.1591C206.835 98.1591 207.352 98.2803 207.795 98.5227C208.239 98.7614 208.583 99.125 208.83 99.6136C209.076 100.098 209.199 100.712 209.199 101.455V107H207.858V101.545C207.858 100.86 207.68 100.326 207.324 99.9432C206.968 99.5568 206.479 99.3636 205.858 99.3636C205.43 99.3636 205.047 99.4564 204.71 99.642C204.377 99.8277 204.114 100.098 203.92 100.455C203.727 100.811 203.631 101.242 203.631 101.75ZM214.945 107.182C214.217 107.182 213.575 106.998 213.018 106.631C212.462 106.259 212.026 105.737 211.712 105.062C211.397 104.384 211.24 103.583 211.24 102.659C211.24 101.742 211.397 100.947 211.712 100.273C212.026 99.5985 212.464 99.0777 213.024 98.7102C213.585 98.3428 214.232 98.1591 214.967 98.1591C215.536 98.1591 215.984 98.2538 216.314 98.4432C216.647 98.6288 216.901 98.8409 217.075 99.0795C217.253 99.3144 217.392 99.5076 217.49 99.6591H217.604V95.3636H218.945V107H217.649V105.659H217.49C217.392 105.818 217.251 106.019 217.07 106.261C216.888 106.5 216.628 106.714 216.291 106.903C215.954 107.089 215.505 107.182 214.945 107.182ZM215.126 105.977C215.664 105.977 216.119 105.837 216.49 105.557C216.861 105.273 217.143 104.881 217.337 104.381C217.53 103.877 217.626 103.295 217.626 102.636C217.626 101.985 217.532 101.415 217.342 100.926C217.153 100.434 216.873 100.051 216.501 99.7784C216.13 99.5019 215.672 99.3636 215.126 99.3636C214.558 99.3636 214.085 99.5095 213.706 99.8011C213.331 100.089 213.049 100.481 212.859 100.977C212.674 101.47 212.581 102.023 212.581 102.636C212.581 103.258 212.676 103.822 212.865 104.33C213.058 104.833 213.342 105.235 213.717 105.534C214.096 105.83 214.566 105.977 215.126 105.977ZM53.3509 117.273V118.409H48.8281V117.273H53.3509ZM50.1463 115.182H51.4872V123.5C51.4872 123.879 51.5421 124.163 51.652 124.352C51.7656 124.538 51.9096 124.663 52.0838 124.727C52.2618 124.788 52.4493 124.818 52.6463 124.818C52.794 124.818 52.9152 124.811 53.0099 124.795C53.1046 124.777 53.1804 124.761 53.2372 124.75L53.5099 125.955C53.419 125.989 53.2921 126.023 53.1293 126.057C52.9664 126.095 52.7599 126.114 52.5099 126.114C52.1312 126.114 51.7599 126.032 51.3963 125.869C51.0365 125.706 50.7372 125.458 50.4986 125.125C50.2637 124.792 50.1463 124.371 50.1463 123.864V115.182ZM58.8196 126.182C58.0317 126.182 57.3404 125.994 56.7457 125.619C56.1548 125.244 55.6927 124.72 55.3594 124.045C55.0298 123.371 54.8651 122.583 54.8651 121.682C54.8651 120.773 55.0298 119.979 55.3594 119.301C55.6927 118.623 56.1548 118.097 56.7457 117.722C57.3404 117.347 58.0317 117.159 58.8196 117.159C59.6075 117.159 60.2969 117.347 60.8878 117.722C61.4825 118.097 61.9446 118.623 62.2741 119.301C62.6075 119.979 62.7741 120.773 62.7741 121.682C62.7741 122.583 62.6075 123.371 62.2741 124.045C61.9446 124.72 61.4825 125.244 60.8878 125.619C60.2969 125.994 59.6075 126.182 58.8196 126.182ZM58.8196 124.977C59.4181 124.977 59.9105 124.824 60.2969 124.517C60.6832 124.21 60.9692 123.807 61.1548 123.307C61.3404 122.807 61.4332 122.265 61.4332 121.682C61.4332 121.098 61.3404 120.555 61.1548 120.051C60.9692 119.547 60.6832 119.14 60.2969 118.83C59.9105 118.519 59.4181 118.364 58.8196 118.364C58.2211 118.364 57.7287 118.519 57.3423 118.83C56.956 119.14 56.67 119.547 56.4844 120.051C56.2988 120.555 56.206 121.098 56.206 121.682C56.206 122.265 56.2988 122.807 56.4844 123.307C56.67 123.807 56.956 124.21 57.3423 124.517C57.7287 124.824 58.2211 124.977 58.8196 124.977ZM69.5028 126V114.364H70.8438V118.659H70.9574C71.0559 118.508 71.1922 118.314 71.3665 118.08C71.5445 117.841 71.7983 117.629 72.1278 117.443C72.4612 117.254 72.9119 117.159 73.4801 117.159C74.215 117.159 74.8627 117.343 75.4233 117.71C75.9839 118.078 76.4214 118.598 76.7358 119.273C77.0502 119.947 77.2074 120.742 77.2074 121.659C77.2074 122.583 77.0502 123.384 76.7358 124.062C76.4214 124.737 75.9858 125.259 75.429 125.631C74.8722 125.998 74.2301 126.182 73.5028 126.182C72.9422 126.182 72.4934 126.089 72.1562 125.903C71.8191 125.714 71.5597 125.5 71.3778 125.261C71.196 125.019 71.0559 124.818 70.9574 124.659H70.7983V126H69.5028ZM70.821 121.636C70.821 122.295 70.9176 122.877 71.1108 123.381C71.304 123.881 71.5862 124.273 71.9574 124.557C72.3286 124.837 72.7831 124.977 73.321 124.977C73.8816 124.977 74.3494 124.83 74.7244 124.534C75.1032 124.235 75.3873 123.833 75.5767 123.33C75.7699 122.822 75.8665 122.258 75.8665 121.636C75.8665 121.023 75.7718 120.47 75.5824 119.977C75.3968 119.481 75.1146 119.089 74.7358 118.801C74.3608 118.509 73.8892 118.364 73.321 118.364C72.7756 118.364 72.3172 118.502 71.946 118.778C71.5748 119.051 71.2945 119.434 71.1051 119.926C70.9157 120.415 70.821 120.985 70.821 121.636ZM82.9176 126.182C82.0767 126.182 81.3513 125.996 80.7415 125.625C80.1354 125.25 79.6676 124.727 79.3381 124.057C79.0123 123.383 78.8494 122.598 78.8494 121.705C78.8494 120.811 79.0123 120.023 79.3381 119.341C79.6676 118.655 80.1259 118.121 80.7131 117.739C81.304 117.352 81.9934 117.159 82.7812 117.159C83.2358 117.159 83.6847 117.235 84.1278 117.386C84.571 117.538 84.9744 117.784 85.3381 118.125C85.7017 118.462 85.9915 118.909 86.2074 119.466C86.4233 120.023 86.5312 120.708 86.5312 121.523V122.091H79.804V120.932H85.1676C85.1676 120.439 85.0691 120 84.8722 119.614C84.679 119.227 84.4025 118.922 84.0426 118.699C83.6866 118.475 83.2661 118.364 82.7812 118.364C82.2472 118.364 81.785 118.496 81.3949 118.761C81.0085 119.023 80.7112 119.364 80.5028 119.784C80.2945 120.205 80.1903 120.655 80.1903 121.136V121.909C80.1903 122.568 80.304 123.127 80.5312 123.585C80.7623 124.04 81.0824 124.386 81.4915 124.625C81.9006 124.86 82.3759 124.977 82.9176 124.977C83.2699 124.977 83.5881 124.928 83.8722 124.83C84.16 124.727 84.4081 124.576 84.6165 124.375C84.8248 124.17 84.9858 123.917 85.0994 123.614L86.3949 123.977C86.2585 124.417 86.0294 124.803 85.7074 125.136C85.3854 125.466 84.9877 125.723 84.5142 125.909C84.0407 126.091 83.5085 126.182 82.9176 126.182ZM96.8665 117.273V118.409H92.3438V117.273H96.8665ZM93.6619 115.182H95.0028V123.5C95.0028 123.879 95.0578 124.163 95.1676 124.352C95.2813 124.538 95.4252 124.663 95.5994 124.727C95.7775 124.788 95.965 124.818 96.1619 124.818C96.3097 124.818 96.4309 124.811 96.5256 124.795C96.6203 124.777 96.696 124.761 96.7528 124.75L97.0256 125.955C96.9347 125.989 96.8078 126.023 96.6449 126.057C96.482 126.095 96.2756 126.114 96.0256 126.114C95.6468 126.114 95.2756 126.032 94.9119 125.869C94.5521 125.706 94.2528 125.458 94.0142 125.125C93.7794 124.792 93.6619 124.371 93.6619 123.864V115.182ZM98.8835 126V117.273H100.179V118.591H100.27C100.429 118.159 100.717 117.809 101.134 117.54C101.55 117.271 102.02 117.136 102.543 117.136C102.641 117.136 102.764 117.138 102.912 117.142C103.06 117.146 103.171 117.152 103.247 117.159V118.523C103.202 118.511 103.098 118.494 102.935 118.472C102.776 118.445 102.607 118.432 102.429 118.432C102.005 118.432 101.626 118.521 101.293 118.699C100.963 118.873 100.702 119.116 100.509 119.426C100.319 119.733 100.224 120.083 100.224 120.477V126H98.8835ZM107.405 126.205C106.852 126.205 106.35 126.1 105.899 125.892C105.448 125.68 105.09 125.375 104.825 124.977C104.56 124.576 104.428 124.091 104.428 123.523C104.428 123.023 104.526 122.617 104.723 122.307C104.92 121.992 105.183 121.746 105.513 121.568C105.842 121.39 106.206 121.258 106.604 121.17C107.005 121.08 107.409 121.008 107.814 120.955C108.344 120.886 108.774 120.835 109.104 120.801C109.437 120.763 109.679 120.701 109.831 120.614C109.986 120.527 110.064 120.375 110.064 120.159V120.114C110.064 119.553 109.911 119.117 109.604 118.807C109.301 118.496 108.84 118.341 108.223 118.341C107.583 118.341 107.081 118.481 106.717 118.761C106.354 119.042 106.098 119.341 105.95 119.659L104.678 119.205C104.905 118.674 105.208 118.261 105.587 117.966C105.969 117.667 106.386 117.458 106.837 117.341C107.291 117.22 107.738 117.159 108.178 117.159C108.458 117.159 108.78 117.193 109.143 117.261C109.511 117.326 109.865 117.46 110.206 117.665C110.551 117.869 110.837 118.178 111.064 118.591C111.291 119.004 111.405 119.557 111.405 120.25V126H110.064V124.818H109.996C109.905 125.008 109.753 125.21 109.541 125.426C109.329 125.642 109.047 125.826 108.695 125.977C108.342 126.129 107.912 126.205 107.405 126.205ZM107.609 125C108.14 125 108.587 124.896 108.95 124.688C109.318 124.479 109.594 124.21 109.78 123.881C109.969 123.551 110.064 123.205 110.064 122.841V121.614C110.007 121.682 109.882 121.744 109.689 121.801C109.5 121.854 109.28 121.902 109.03 121.943C108.784 121.981 108.543 122.015 108.308 122.045C108.077 122.072 107.89 122.095 107.746 122.114C107.397 122.159 107.071 122.233 106.768 122.335C106.469 122.434 106.227 122.583 106.041 122.784C105.859 122.981 105.768 123.25 105.768 123.591C105.768 124.057 105.941 124.409 106.286 124.648C106.634 124.883 107.075 125 107.609 125ZM115.193 120.75V126H113.852V117.273H115.148V118.636H115.261C115.466 118.193 115.777 117.837 116.193 117.568C116.61 117.295 117.148 117.159 117.807 117.159C118.398 117.159 118.915 117.28 119.358 117.523C119.801 117.761 120.146 118.125 120.392 118.614C120.638 119.098 120.761 119.712 120.761 120.455V126H119.42V120.545C119.42 119.86 119.242 119.326 118.886 118.943C118.53 118.557 118.042 118.364 117.42 118.364C116.992 118.364 116.61 118.456 116.273 118.642C115.939 118.828 115.676 119.098 115.483 119.455C115.29 119.811 115.193 120.242 115.193 120.75ZM129.393 119.227L128.189 119.568C128.113 119.367 128.001 119.172 127.854 118.983C127.71 118.79 127.513 118.631 127.263 118.506C127.013 118.381 126.693 118.318 126.303 118.318C125.768 118.318 125.323 118.441 124.967 118.688C124.615 118.93 124.439 119.239 124.439 119.614C124.439 119.947 124.56 120.21 124.803 120.403C125.045 120.597 125.424 120.758 125.939 120.886L127.234 121.205C128.015 121.394 128.596 121.684 128.979 122.074C129.361 122.46 129.553 122.958 129.553 123.568C129.553 124.068 129.409 124.515 129.121 124.909C128.837 125.303 128.439 125.614 127.928 125.841C127.416 126.068 126.821 126.182 126.143 126.182C125.253 126.182 124.517 125.989 123.933 125.602C123.35 125.216 122.981 124.652 122.825 123.909L124.098 123.591C124.219 124.061 124.448 124.413 124.786 124.648C125.126 124.883 125.571 125 126.121 125C126.746 125 127.242 124.867 127.609 124.602C127.981 124.333 128.166 124.011 128.166 123.636C128.166 123.333 128.06 123.08 127.848 122.875C127.636 122.667 127.31 122.511 126.871 122.409L125.416 122.068C124.617 121.879 124.03 121.585 123.655 121.188C123.284 120.786 123.098 120.284 123.098 119.682C123.098 119.189 123.236 118.754 123.513 118.375C123.793 117.996 124.174 117.699 124.655 117.483C125.14 117.267 125.689 117.159 126.303 117.159C127.166 117.159 127.844 117.348 128.337 117.727C128.833 118.106 129.185 118.606 129.393 119.227ZM135.457 117.273V118.409H130.753V117.273H135.457ZM132.162 126V116.068C132.162 115.568 132.279 115.152 132.514 114.818C132.749 114.485 133.054 114.235 133.429 114.068C133.804 113.902 134.2 113.818 134.616 113.818C134.946 113.818 135.215 113.845 135.423 113.898C135.632 113.951 135.787 114 135.889 114.045L135.503 115.205C135.435 115.182 135.34 115.153 135.219 115.119C135.101 115.085 134.946 115.068 134.753 115.068C134.31 115.068 133.99 115.18 133.793 115.403C133.599 115.627 133.503 115.955 133.503 116.386V126H132.162ZM140.523 126.182C139.735 126.182 139.044 125.994 138.449 125.619C137.858 125.244 137.396 124.72 137.062 124.045C136.733 123.371 136.568 122.583 136.568 121.682C136.568 120.773 136.733 119.979 137.062 119.301C137.396 118.623 137.858 118.097 138.449 117.722C139.044 117.347 139.735 117.159 140.523 117.159C141.311 117.159 142 117.347 142.591 117.722C143.186 118.097 143.648 118.623 143.977 119.301C144.311 119.979 144.477 120.773 144.477 121.682C144.477 122.583 144.311 123.371 143.977 124.045C143.648 124.72 143.186 125.244 142.591 125.619C142 125.994 141.311 126.182 140.523 126.182ZM140.523 124.977C141.121 124.977 141.614 124.824 142 124.517C142.386 124.21 142.672 123.807 142.858 123.307C143.044 122.807 143.136 122.265 143.136 121.682C143.136 121.098 143.044 120.555 142.858 120.051C142.672 119.547 142.386 119.14 142 118.83C141.614 118.519 141.121 118.364 140.523 118.364C139.924 118.364 139.432 118.519 139.045 118.83C138.659 119.14 138.373 119.547 138.188 120.051C138.002 120.555 137.909 121.098 137.909 121.682C137.909 122.265 138.002 122.807 138.188 123.307C138.373 123.807 138.659 124.21 139.045 124.517C139.432 124.824 139.924 124.977 140.523 124.977ZM146.524 126V117.273H147.82V118.591H147.911C148.07 118.159 148.357 117.809 148.774 117.54C149.191 117.271 149.661 117.136 150.183 117.136C150.282 117.136 150.405 117.138 150.553 117.142C150.7 117.146 150.812 117.152 150.888 117.159V118.523C150.842 118.511 150.738 118.494 150.575 118.472C150.416 118.445 150.248 118.432 150.07 118.432C149.645 118.432 149.267 118.521 148.933 118.699C148.604 118.873 148.342 119.116 148.149 119.426C147.96 119.733 147.865 120.083 147.865 120.477V126H146.524ZM152.477 126V117.273H153.773V118.636H153.886C154.068 118.17 154.362 117.809 154.767 117.551C155.172 117.29 155.659 117.159 156.227 117.159C156.803 117.159 157.282 117.29 157.665 117.551C158.051 117.809 158.352 118.17 158.568 118.636H158.659C158.883 118.186 159.218 117.828 159.665 117.562C160.112 117.294 160.648 117.159 161.273 117.159C162.053 117.159 162.691 117.403 163.188 117.892C163.684 118.377 163.932 119.133 163.932 120.159V126H162.591V120.159C162.591 119.515 162.415 119.055 162.062 118.778C161.71 118.502 161.295 118.364 160.818 118.364C160.205 118.364 159.729 118.549 159.392 118.92C159.055 119.288 158.886 119.754 158.886 120.318V126H157.523V120.023C157.523 119.527 157.362 119.127 157.04 118.824C156.718 118.517 156.303 118.364 155.795 118.364C155.447 118.364 155.121 118.456 154.818 118.642C154.519 118.828 154.277 119.085 154.091 119.415C153.909 119.741 153.818 120.117 153.818 120.545V126H152.477ZM170.043 126.182C169.202 126.182 168.476 125.996 167.866 125.625C167.26 125.25 166.793 124.727 166.463 124.057C166.137 123.383 165.974 122.598 165.974 121.705C165.974 120.811 166.137 120.023 166.463 119.341C166.793 118.655 167.251 118.121 167.838 117.739C168.429 117.352 169.118 117.159 169.906 117.159C170.361 117.159 170.81 117.235 171.253 117.386C171.696 117.538 172.099 117.784 172.463 118.125C172.827 118.462 173.116 118.909 173.332 119.466C173.548 120.023 173.656 120.708 173.656 121.523V122.091H166.929V120.932H172.293C172.293 120.439 172.194 120 171.997 119.614C171.804 119.227 171.527 118.922 171.168 118.699C170.812 118.475 170.391 118.364 169.906 118.364C169.372 118.364 168.91 118.496 168.52 118.761C168.134 119.023 167.836 119.364 167.628 119.784C167.42 120.205 167.315 120.655 167.315 121.136V121.909C167.315 122.568 167.429 123.127 167.656 123.585C167.887 124.04 168.207 124.386 168.616 124.625C169.026 124.86 169.501 124.977 170.043 124.977C170.395 124.977 170.713 124.928 170.997 124.83C171.285 124.727 171.533 124.576 171.741 124.375C171.95 124.17 172.111 123.917 172.224 123.614L173.52 123.977C173.384 124.417 173.154 124.803 172.832 125.136C172.51 125.466 172.113 125.723 171.639 125.909C171.166 126.091 170.634 126.182 170.043 126.182ZM178.991 126.182C178.264 126.182 177.622 125.998 177.065 125.631C176.509 125.259 176.073 124.737 175.759 124.062C175.444 123.384 175.287 122.583 175.287 121.659C175.287 120.742 175.444 119.947 175.759 119.273C176.073 118.598 176.51 118.078 177.071 117.71C177.632 117.343 178.279 117.159 179.014 117.159C179.582 117.159 180.031 117.254 180.361 117.443C180.694 117.629 180.948 117.841 181.122 118.08C181.3 118.314 181.438 118.508 181.537 118.659H181.651V114.364H182.991V126H181.696V124.659H181.537C181.438 124.818 181.298 125.019 181.116 125.261C180.935 125.5 180.675 125.714 180.338 125.903C180.001 126.089 179.552 126.182 178.991 126.182ZM179.173 124.977C179.711 124.977 180.166 124.837 180.537 124.557C180.908 124.273 181.19 123.881 181.384 123.381C181.577 122.877 181.673 122.295 181.673 121.636C181.673 120.985 181.579 120.415 181.389 119.926C181.2 119.434 180.92 119.051 180.548 118.778C180.177 118.502 179.719 118.364 179.173 118.364C178.605 118.364 178.132 118.509 177.753 118.801C177.378 119.089 177.096 119.481 176.906 119.977C176.721 120.47 176.628 121.023 176.628 121.636C176.628 122.258 176.723 122.822 176.912 123.33C177.105 123.833 177.389 124.235 177.764 124.534C178.143 124.83 178.613 124.977 179.173 124.977ZM190.134 126V117.273H191.429V118.591H191.52C191.679 118.159 191.967 117.809 192.384 117.54C192.8 117.271 193.27 117.136 193.793 117.136C193.891 117.136 194.014 117.138 194.162 117.142C194.31 117.146 194.421 117.152 194.497 117.159V118.523C194.452 118.511 194.348 118.494 194.185 118.472C194.026 118.445 193.857 118.432 193.679 118.432C193.255 118.432 192.876 118.521 192.543 118.699C192.213 118.873 191.952 119.116 191.759 119.426C191.569 119.733 191.474 120.083 191.474 120.477V126H190.134ZM196.087 126V117.273H197.428V126H196.087ZM196.768 115.818C196.507 115.818 196.282 115.729 196.092 115.551C195.907 115.373 195.814 115.159 195.814 114.909C195.814 114.659 195.907 114.445 196.092 114.267C196.282 114.089 196.507 114 196.768 114C197.03 114 197.253 114.089 197.439 114.267C197.628 114.445 197.723 114.659 197.723 114.909C197.723 115.159 197.628 115.373 197.439 115.551C197.253 115.729 197.03 115.818 196.768 115.818ZM203.406 129.455C202.759 129.455 202.202 129.371 201.736 129.205C201.27 129.042 200.882 128.826 200.571 128.557C200.264 128.292 200.02 128.008 199.838 127.705L200.906 126.955C201.027 127.114 201.181 127.295 201.366 127.5C201.552 127.708 201.806 127.888 202.128 128.04C202.454 128.195 202.88 128.273 203.406 128.273C204.111 128.273 204.692 128.102 205.151 127.761C205.609 127.42 205.838 126.886 205.838 126.159V124.386H205.724C205.626 124.545 205.486 124.742 205.304 124.977C205.126 125.208 204.868 125.415 204.531 125.597C204.198 125.775 203.747 125.864 203.179 125.864C202.474 125.864 201.842 125.697 201.281 125.364C200.724 125.03 200.283 124.545 199.957 123.909C199.635 123.273 199.474 122.5 199.474 121.591C199.474 120.697 199.632 119.919 199.946 119.256C200.26 118.589 200.698 118.074 201.259 117.71C201.819 117.343 202.467 117.159 203.202 117.159C203.77 117.159 204.221 117.254 204.554 117.443C204.891 117.629 205.149 117.841 205.327 118.08C205.509 118.314 205.649 118.508 205.747 118.659H205.884V117.273H207.179V126.25C207.179 127 207.009 127.61 206.668 128.08C206.33 128.553 205.876 128.9 205.304 129.119C204.736 129.343 204.103 129.455 203.406 129.455ZM203.361 124.659C203.899 124.659 204.353 124.536 204.724 124.29C205.096 124.044 205.378 123.689 205.571 123.227C205.764 122.765 205.861 122.212 205.861 121.568C205.861 120.939 205.766 120.384 205.577 119.903C205.387 119.422 205.107 119.045 204.736 118.773C204.365 118.5 203.906 118.364 203.361 118.364C202.793 118.364 202.319 118.508 201.94 118.795C201.565 119.083 201.283 119.47 201.094 119.955C200.908 120.439 200.815 120.977 200.815 121.568C200.815 122.174 200.91 122.71 201.099 123.176C201.293 123.638 201.577 124.002 201.952 124.267C202.33 124.528 202.8 124.659 203.361 124.659ZM210.974 120.75V126H209.634V114.364H210.974V118.636H211.088C211.293 118.186 211.599 117.828 212.009 117.562C212.421 117.294 212.971 117.159 213.656 117.159C214.251 117.159 214.772 117.278 215.219 117.517C215.666 117.752 216.012 118.114 216.259 118.602C216.509 119.087 216.634 119.705 216.634 120.455V126H215.293V120.545C215.293 119.852 215.113 119.316 214.753 118.938C214.397 118.555 213.902 118.364 213.27 118.364C212.83 118.364 212.437 118.456 212.088 118.642C211.743 118.828 211.471 119.098 211.27 119.455C211.073 119.811 210.974 120.242 210.974 120.75ZM222.882 117.273V118.409H218.359V117.273H222.882ZM219.678 115.182H221.018V123.5C221.018 123.879 221.073 124.163 221.183 124.352C221.297 124.538 221.441 124.663 221.615 124.727C221.793 124.788 221.981 124.818 222.178 124.818C222.325 124.818 222.446 124.811 222.541 124.795C222.636 124.777 222.712 124.761 222.768 124.75L223.041 125.955C222.95 125.989 222.823 126.023 222.661 126.057C222.498 126.095 222.291 126.114 222.041 126.114C221.662 126.114 221.291 126.032 220.928 125.869C220.568 125.706 220.268 125.458 220.03 125.125C219.795 124.792 219.678 124.371 219.678 123.864V115.182ZM78.2685 145V133.364H79.6094V137.659H79.723C79.8215 137.508 79.9579 137.314 80.1321 137.08C80.3101 136.841 80.5639 136.629 80.8935 136.443C81.2268 136.254 81.6776 136.159 82.2457 136.159C82.9806 136.159 83.6283 136.343 84.1889 136.71C84.7495 137.078 85.187 137.598 85.5014 138.273C85.8158 138.947 85.973 139.742 85.973 140.659C85.973 141.583 85.8158 142.384 85.5014 143.062C85.187 143.737 84.7514 144.259 84.1946 144.631C83.6378 144.998 82.9957 145.182 82.2685 145.182C81.7079 145.182 81.259 145.089 80.9219 144.903C80.5848 144.714 80.3253 144.5 80.1435 144.261C79.9616 144.019 79.8215 143.818 79.723 143.659H79.5639V145H78.2685ZM79.5866 140.636C79.5866 141.295 79.6832 141.877 79.8764 142.381C80.0696 142.881 80.3518 143.273 80.723 143.557C81.0942 143.837 81.5488 143.977 82.0866 143.977C82.6473 143.977 83.1151 143.83 83.4901 143.534C83.8688 143.235 84.1529 142.833 84.3423 142.33C84.5355 141.822 84.6321 141.258 84.6321 140.636C84.6321 140.023 84.5374 139.47 84.348 138.977C84.1624 138.481 83.8802 138.089 83.5014 137.801C83.1264 137.509 82.6548 137.364 82.0866 137.364C81.5412 137.364 81.0829 137.502 80.7116 137.778C80.3404 138.051 80.0601 138.434 79.8707 138.926C79.6813 139.415 79.5866 139.985 79.5866 140.636ZM91.6832 145.182C90.8423 145.182 90.117 144.996 89.5071 144.625C88.901 144.25 88.4332 143.727 88.1037 143.057C87.7779 142.383 87.6151 141.598 87.6151 140.705C87.6151 139.811 87.7779 139.023 88.1037 138.341C88.4332 137.655 88.8916 137.121 89.4787 136.739C90.0696 136.352 90.759 136.159 91.5469 136.159C92.0014 136.159 92.4503 136.235 92.8935 136.386C93.3366 136.538 93.7401 136.784 94.1037 137.125C94.4673 137.462 94.7571 137.909 94.973 138.466C95.1889 139.023 95.2969 139.708 95.2969 140.523V141.091H88.5696V139.932H93.9332C93.9332 139.439 93.8348 139 93.6378 138.614C93.4446 138.227 93.1681 137.922 92.8082 137.699C92.4522 137.475 92.0317 137.364 91.5469 137.364C91.0128 137.364 90.5507 137.496 90.1605 137.761C89.7741 138.023 89.4768 138.364 89.2685 138.784C89.0601 139.205 88.956 139.655 88.956 140.136V140.909C88.956 141.568 89.0696 142.127 89.2969 142.585C89.5279 143.04 89.848 143.386 90.2571 143.625C90.6662 143.86 91.1416 143.977 91.6832 143.977C92.0355 143.977 92.3537 143.928 92.6378 143.83C92.9257 143.727 93.1738 143.576 93.3821 143.375C93.5904 143.17 93.7514 142.917 93.8651 142.614L95.1605 142.977C95.0241 143.417 94.795 143.803 94.473 144.136C94.151 144.466 93.7533 144.723 93.2798 144.909C92.8063 145.091 92.2741 145.182 91.6832 145.182ZM101.223 136.273V137.409H96.5185V136.273H101.223ZM97.9276 145V135.068C97.9276 134.568 98.045 134.152 98.2798 133.818C98.5147 133.485 98.8196 133.235 99.1946 133.068C99.5696 132.902 99.9654 132.818 100.382 132.818C100.712 132.818 100.981 132.845 101.189 132.898C101.397 132.951 101.553 133 101.655 133.045L101.268 134.205C101.2 134.182 101.106 134.153 100.984 134.119C100.867 134.085 100.712 134.068 100.518 134.068C100.075 134.068 99.7552 134.18 99.5582 134.403C99.3651 134.627 99.2685 134.955 99.2685 135.386V145H97.9276ZM106.288 145.182C105.5 145.182 104.809 144.994 104.214 144.619C103.624 144.244 103.161 143.72 102.828 143.045C102.499 142.371 102.334 141.583 102.334 140.682C102.334 139.773 102.499 138.979 102.828 138.301C103.161 137.623 103.624 137.097 104.214 136.722C104.809 136.347 105.5 136.159 106.288 136.159C107.076 136.159 107.766 136.347 108.357 136.722C108.951 137.097 109.413 137.623 109.743 138.301C110.076 138.979 110.243 139.773 110.243 140.682C110.243 141.583 110.076 142.371 109.743 143.045C109.413 143.72 108.951 144.244 108.357 144.619C107.766 144.994 107.076 145.182 106.288 145.182ZM106.288 143.977C106.887 143.977 107.379 143.824 107.766 143.517C108.152 143.21 108.438 142.807 108.624 142.307C108.809 141.807 108.902 141.265 108.902 140.682C108.902 140.098 108.809 139.555 108.624 139.051C108.438 138.547 108.152 138.14 107.766 137.83C107.379 137.519 106.887 137.364 106.288 137.364C105.69 137.364 105.197 137.519 104.811 137.83C104.425 138.14 104.139 138.547 103.953 139.051C103.768 139.555 103.675 140.098 103.675 140.682C103.675 141.265 103.768 141.807 103.953 142.307C104.139 142.807 104.425 143.21 104.811 143.517C105.197 143.824 105.69 143.977 106.288 143.977ZM112.29 145V136.273H113.585V137.591H113.676C113.835 137.159 114.123 136.809 114.54 136.54C114.956 136.271 115.426 136.136 115.949 136.136C116.047 136.136 116.17 136.138 116.318 136.142C116.466 136.146 116.578 136.152 116.653 136.159V137.523C116.608 137.511 116.504 137.494 116.341 137.472C116.182 137.445 116.013 137.432 115.835 137.432C115.411 137.432 115.032 137.521 114.699 137.699C114.369 137.873 114.108 138.116 113.915 138.426C113.725 138.733 113.631 139.083 113.631 139.477V145H112.29ZM121.636 145.182C120.795 145.182 120.07 144.996 119.46 144.625C118.854 144.25 118.386 143.727 118.057 143.057C117.731 142.383 117.568 141.598 117.568 140.705C117.568 139.811 117.731 139.023 118.057 138.341C118.386 137.655 118.845 137.121 119.432 136.739C120.023 136.352 120.712 136.159 121.5 136.159C121.955 136.159 122.403 136.235 122.847 136.386C123.29 136.538 123.693 136.784 124.057 137.125C124.42 137.462 124.71 137.909 124.926 138.466C125.142 139.023 125.25 139.708 125.25 140.523V141.091H118.523V139.932H123.886C123.886 139.439 123.788 139 123.591 138.614C123.398 138.227 123.121 137.922 122.761 137.699C122.405 137.475 121.985 137.364 121.5 137.364C120.966 137.364 120.504 137.496 120.114 137.761C119.727 138.023 119.43 138.364 119.222 138.784C119.013 139.205 118.909 139.655 118.909 140.136V140.909C118.909 141.568 119.023 142.127 119.25 142.585C119.481 143.04 119.801 143.386 120.21 143.625C120.619 143.86 121.095 143.977 121.636 143.977C121.989 143.977 122.307 143.928 122.591 143.83C122.879 143.727 123.127 143.576 123.335 143.375C123.544 143.17 123.705 142.917 123.818 142.614L125.114 142.977C124.977 143.417 124.748 143.803 124.426 144.136C124.104 144.466 123.706 144.723 123.233 144.909C122.759 145.091 122.227 145.182 121.636 145.182ZM135.585 136.273V137.409H131.062V136.273H135.585ZM132.381 134.182H133.722V142.5C133.722 142.879 133.777 143.163 133.886 143.352C134 143.538 134.144 143.663 134.318 143.727C134.496 143.788 134.684 143.818 134.881 143.818C135.028 143.818 135.15 143.811 135.244 143.795C135.339 143.777 135.415 143.761 135.472 143.75L135.744 144.955C135.653 144.989 135.527 145.023 135.364 145.057C135.201 145.095 134.994 145.114 134.744 145.114C134.366 145.114 133.994 145.032 133.631 144.869C133.271 144.706 132.972 144.458 132.733 144.125C132.498 143.792 132.381 143.371 132.381 142.864V134.182ZM139.131 139.75V145H137.79V133.364H139.131V137.636H139.244C139.449 137.186 139.756 136.828 140.165 136.562C140.578 136.294 141.127 136.159 141.812 136.159C142.407 136.159 142.928 136.278 143.375 136.517C143.822 136.752 144.169 137.114 144.415 137.602C144.665 138.087 144.79 138.705 144.79 139.455V145H143.449V139.545C143.449 138.852 143.269 138.316 142.909 137.938C142.553 137.555 142.059 137.364 141.426 137.364C140.987 137.364 140.593 137.456 140.244 137.642C139.9 137.828 139.627 138.098 139.426 138.455C139.229 138.811 139.131 139.242 139.131 139.75ZM150.902 145.182C150.061 145.182 149.336 144.996 148.726 144.625C148.12 144.25 147.652 143.727 147.322 143.057C146.997 142.383 146.834 141.598 146.834 140.705C146.834 139.811 146.997 139.023 147.322 138.341C147.652 137.655 148.11 137.121 148.697 136.739C149.288 136.352 149.978 136.159 150.766 136.159C151.22 136.159 151.669 136.235 152.112 136.386C152.555 136.538 152.959 136.784 153.322 137.125C153.686 137.462 153.976 137.909 154.192 138.466C154.408 139.023 154.516 139.708 154.516 140.523V141.091H147.788V139.932H153.152C153.152 139.439 153.054 139 152.857 138.614C152.663 138.227 152.387 137.922 152.027 137.699C151.671 137.475 151.25 137.364 150.766 137.364C150.232 137.364 149.769 137.496 149.379 137.761C148.993 138.023 148.696 138.364 148.487 138.784C148.279 139.205 148.175 139.655 148.175 140.136V140.909C148.175 141.568 148.288 142.127 148.516 142.585C148.747 143.04 149.067 143.386 149.476 143.625C149.885 143.86 150.36 143.977 150.902 143.977C151.254 143.977 151.572 143.928 151.857 143.83C152.144 143.727 152.393 143.576 152.601 143.375C152.809 143.17 152.97 142.917 153.084 142.614L154.379 142.977C154.243 143.417 154.014 143.803 153.692 144.136C153.37 144.466 152.972 144.723 152.499 144.909C152.025 145.091 151.493 145.182 150.902 145.182ZM164.714 145.182C163.874 145.182 163.148 144.996 162.538 144.625C161.932 144.25 161.464 143.727 161.135 143.057C160.809 142.383 160.646 141.598 160.646 140.705C160.646 139.811 160.809 139.023 161.135 138.341C161.464 137.655 161.923 137.121 162.51 136.739C163.101 136.352 163.79 136.159 164.578 136.159C165.033 136.159 165.482 136.235 165.925 136.386C166.368 136.538 166.771 136.784 167.135 137.125C167.499 137.462 167.788 137.909 168.004 138.466C168.22 139.023 168.328 139.708 168.328 140.523V141.091H161.601V139.932H166.964C166.964 139.439 166.866 139 166.669 138.614C166.476 138.227 166.199 137.922 165.839 137.699C165.483 137.475 165.063 137.364 164.578 137.364C164.044 137.364 163.582 137.496 163.192 137.761C162.805 138.023 162.508 138.364 162.3 138.784C162.091 139.205 161.987 139.655 161.987 140.136V140.909C161.987 141.568 162.101 142.127 162.328 142.585C162.559 143.04 162.879 143.386 163.288 143.625C163.697 143.86 164.173 143.977 164.714 143.977C165.067 143.977 165.385 143.928 165.669 143.83C165.957 143.727 166.205 143.576 166.413 143.375C166.622 143.17 166.783 142.917 166.896 142.614L168.192 142.977C168.055 143.417 167.826 143.803 167.504 144.136C167.182 144.466 166.785 144.723 166.311 144.909C165.838 145.091 165.305 145.182 164.714 145.182ZM170.966 148.273C170.739 148.273 170.536 148.254 170.358 148.216C170.18 148.182 170.057 148.148 169.989 148.114L170.33 146.932C170.655 147.015 170.943 147.045 171.193 147.023C171.443 147 171.665 146.888 171.858 146.688C172.055 146.491 172.235 146.17 172.398 145.727L172.648 145.045L169.42 136.273H170.875L173.284 143.227H173.375L175.784 136.273H177.239L173.534 146.273C173.367 146.723 173.161 147.097 172.915 147.392C172.669 147.691 172.383 147.913 172.057 148.057C171.735 148.201 171.371 148.273 170.966 148.273ZM182.355 145.182C181.514 145.182 180.789 144.996 180.179 144.625C179.573 144.25 179.105 143.727 178.776 143.057C178.45 142.383 178.287 141.598 178.287 140.705C178.287 139.811 178.45 139.023 178.776 138.341C179.105 137.655 179.563 137.121 180.151 136.739C180.741 136.352 181.431 136.159 182.219 136.159C182.673 136.159 183.122 136.235 183.565 136.386C184.009 136.538 184.412 136.784 184.776 137.125C185.139 137.462 185.429 137.909 185.645 138.466C185.861 139.023 185.969 139.708 185.969 140.523V141.091H179.241V139.932H184.605C184.605 139.439 184.507 139 184.31 138.614C184.116 138.227 183.84 137.922 183.48 137.699C183.124 137.475 182.704 137.364 182.219 137.364C181.685 137.364 181.223 137.496 180.832 137.761C180.446 138.023 180.149 138.364 179.94 138.784C179.732 139.205 179.628 139.655 179.628 140.136V140.909C179.628 141.568 179.741 142.127 179.969 142.585C180.2 143.04 180.52 143.386 180.929 143.625C181.338 143.86 181.813 143.977 182.355 143.977C182.707 143.977 183.026 143.928 183.31 143.83C183.598 143.727 183.846 143.576 184.054 143.375C184.262 143.17 184.423 142.917 184.537 142.614L185.832 142.977C185.696 143.417 185.467 143.803 185.145 144.136C184.823 144.466 184.425 144.723 183.952 144.909C183.478 145.091 182.946 145.182 182.355 145.182ZM194.19 138.227L192.986 138.568C192.91 138.367 192.798 138.172 192.651 137.983C192.507 137.79 192.31 137.631 192.06 137.506C191.81 137.381 191.49 137.318 191.099 137.318C190.565 137.318 190.12 137.441 189.764 137.688C189.412 137.93 189.236 138.239 189.236 138.614C189.236 138.947 189.357 139.21 189.599 139.403C189.842 139.597 190.221 139.758 190.736 139.886L192.031 140.205C192.812 140.394 193.393 140.684 193.776 141.074C194.158 141.46 194.349 141.958 194.349 142.568C194.349 143.068 194.205 143.515 193.918 143.909C193.634 144.303 193.236 144.614 192.724 144.841C192.213 145.068 191.618 145.182 190.94 145.182C190.05 145.182 189.313 144.989 188.73 144.602C188.147 144.216 187.777 143.652 187.622 142.909L188.895 142.591C189.016 143.061 189.245 143.413 189.582 143.648C189.923 143.883 190.368 144 190.918 144C191.543 144 192.039 143.867 192.406 143.602C192.777 143.333 192.963 143.011 192.963 142.636C192.963 142.333 192.857 142.08 192.645 141.875C192.433 141.667 192.107 141.511 191.668 141.409L190.213 141.068C189.414 140.879 188.827 140.585 188.452 140.188C188.08 139.786 187.895 139.284 187.895 138.682C187.895 138.189 188.033 137.754 188.31 137.375C188.59 136.996 188.971 136.699 189.452 136.483C189.937 136.267 190.486 136.159 191.099 136.159C191.963 136.159 192.641 136.348 193.134 136.727C193.63 137.106 193.982 137.606 194.19 138.227Z" fill="black"/>
<defs>
<linearGradient id="paint0_linear_4_5" x1="160" y1="226" x2="180" y2="63" gradientUnits="userSpaceOnUse">
<stop stop-color="#A68656"/>
<stop offset="1" stop-color="#A65656" stop-opacity="0"/>
</linearGradient>
</defs>
</svg>
