<svg width="147" height="76" viewBox="0 0 147 76" fill="none" xmlns="http://www.w3.org/2000/svg">
<rect width="147" height="76" rx="38" fill="url(#paint0_linear_6_9)"/>
<g filter="url(#filter0_i_6_9)">
<path d="M42.3892 36.2898H40.2642C40.2036 35.9413 40.0919 35.6326 39.929 35.3636C39.7661 35.0909 39.5634 34.8598 39.321 34.6705C39.0786 34.4811 38.8021 34.339 38.4915 34.2443C38.1847 34.1458 37.8532 34.0966 37.4972 34.0966C36.8646 34.0966 36.304 34.2557 35.8153 34.5739C35.3267 34.8883 34.9441 35.3504 34.6676 35.9602C34.3911 36.5663 34.2528 37.3068 34.2528 38.1818C34.2528 39.072 34.3911 39.822 34.6676 40.4318C34.9479 41.0379 35.3305 41.4962 35.8153 41.8068C36.304 42.1136 36.8627 42.267 37.4915 42.267C37.84 42.267 38.1657 42.2216 38.4688 42.1307C38.7756 42.036 39.0502 41.8977 39.2926 41.7159C39.5388 41.5341 39.7453 41.3106 39.9119 41.0455C40.0824 40.7803 40.1998 40.4773 40.2642 40.1364L42.3892 40.1477C42.3097 40.7008 42.1373 41.2197 41.8722 41.7045C41.6108 42.1894 41.268 42.6174 40.8438 42.9886C40.4195 43.3561 39.9233 43.6439 39.3551 43.8523C38.7869 44.0568 38.1563 44.1591 37.4631 44.1591C36.4403 44.1591 35.5275 43.9223 34.7244 43.4489C33.9214 42.9754 33.2888 42.2917 32.8267 41.3977C32.3646 40.5038 32.1335 39.4318 32.1335 38.1818C32.1335 36.928 32.3665 35.8561 32.8324 34.9659C33.2983 34.072 33.9328 33.3883 34.7358 32.9148C35.5388 32.4413 36.4479 32.2045 37.4631 32.2045C38.1108 32.2045 38.7131 32.2955 39.2699 32.4773C39.8267 32.6591 40.3229 32.9261 40.7585 33.2784C41.1941 33.6269 41.5521 34.0549 41.8324 34.5625C42.1165 35.0663 42.3021 35.642 42.3892 36.2898ZM48.0355 44.1705C47.1832 44.1705 46.4446 43.983 45.8196 43.608C45.1946 43.233 44.7098 42.7083 44.3651 42.0341C44.0241 41.3598 43.8537 40.572 43.8537 39.6705C43.8537 38.7689 44.0241 37.9792 44.3651 37.3011C44.7098 36.6231 45.1946 36.0966 45.8196 35.7216C46.4446 35.3466 47.1832 35.1591 48.0355 35.1591C48.8878 35.1591 49.6264 35.3466 50.2514 35.7216C50.8764 36.0966 51.3594 36.6231 51.7003 37.3011C52.045 37.9792 52.2173 38.7689 52.2173 39.6705C52.2173 40.572 52.045 41.3598 51.7003 42.0341C51.3594 42.7083 50.8764 43.233 50.2514 43.608C49.6264 43.983 48.8878 44.1705 48.0355 44.1705ZM48.0469 42.5227C48.509 42.5227 48.8954 42.3958 49.206 42.142C49.5166 41.8845 49.7476 41.5398 49.8991 41.108C50.0545 40.6761 50.1321 40.1951 50.1321 39.6648C50.1321 39.1307 50.0545 38.6477 49.8991 38.2159C49.7476 37.7803 49.5166 37.4337 49.206 37.1761C48.8954 36.9186 48.509 36.7898 48.0469 36.7898C47.5734 36.7898 47.1795 36.9186 46.8651 37.1761C46.5545 37.4337 46.3215 37.7803 46.1662 38.2159C46.0147 38.6477 45.9389 39.1307 45.9389 39.6648C45.9389 40.1951 46.0147 40.6761 46.1662 41.108C46.3215 41.5398 46.5545 41.8845 46.8651 42.142C47.1795 42.3958 47.5734 42.5227 48.0469 42.5227ZM56.0199 38.8864V44H53.9631V35.2727H55.929V36.7557H56.0312C56.232 36.267 56.5521 35.8788 56.9915 35.5909C57.4347 35.303 57.982 35.1591 58.6335 35.1591C59.2358 35.1591 59.7604 35.2879 60.2074 35.5455C60.6581 35.803 61.0066 36.1761 61.2528 36.6648C61.5028 37.1534 61.6259 37.7462 61.6222 38.4432V44H59.5653V38.7614C59.5653 38.178 59.4138 37.7216 59.1108 37.392C58.8116 37.0625 58.3968 36.8977 57.8665 36.8977C57.5066 36.8977 57.1866 36.9773 56.9062 37.1364C56.6297 37.2917 56.4119 37.517 56.2528 37.8125C56.0975 38.108 56.0199 38.4659 56.0199 38.8864ZM68.071 35.2727V36.8636H63.054V35.2727H68.071ZM64.2926 33.1818H66.3494V41.375C66.3494 41.6515 66.3911 41.8636 66.4744 42.0114C66.5616 42.1553 66.6752 42.2538 66.8153 42.3068C66.9555 42.3598 67.1108 42.3864 67.2812 42.3864C67.41 42.3864 67.5275 42.3769 67.6335 42.358C67.7434 42.339 67.8267 42.322 67.8835 42.3068L68.2301 43.9148C68.1203 43.9527 67.9631 43.9943 67.7585 44.0398C67.5578 44.0852 67.3116 44.1117 67.0199 44.1193C66.5047 44.1345 66.0407 44.0568 65.6278 43.8864C65.215 43.7121 64.8873 43.4432 64.6449 43.0795C64.4063 42.7159 64.2888 42.2614 64.2926 41.7159V33.1818ZM72.3026 44.1761C71.7495 44.1761 71.2514 44.0777 70.8082 43.8807C70.3688 43.6799 70.0204 43.3845 69.7628 42.9943C69.509 42.6042 69.3821 42.1231 69.3821 41.5511C69.3821 41.0587 69.473 40.6515 69.6548 40.3295C69.8366 40.0076 70.0848 39.75 70.3991 39.5568C70.7135 39.3636 71.0677 39.2178 71.4616 39.1193C71.8594 39.017 72.2704 38.9432 72.6946 38.8977C73.206 38.8447 73.6207 38.7973 73.9389 38.7557C74.2571 38.7102 74.4882 38.642 74.6321 38.5511C74.7798 38.4564 74.8537 38.3106 74.8537 38.1136V38.0795C74.8537 37.6515 74.7268 37.3201 74.473 37.0852C74.2192 36.8504 73.8537 36.733 73.3764 36.733C72.8726 36.733 72.473 36.8428 72.1776 37.0625C71.8859 37.2822 71.6889 37.5417 71.5866 37.8409L69.6662 37.5682C69.8177 37.0379 70.0677 36.5947 70.4162 36.2386C70.7647 35.8788 71.1908 35.6098 71.6946 35.4318C72.1984 35.25 72.7552 35.1591 73.3651 35.1591C73.7855 35.1591 74.2041 35.2083 74.6207 35.3068C75.0374 35.4053 75.4181 35.5682 75.7628 35.7955C76.1075 36.0189 76.384 36.3239 76.5923 36.7102C76.8045 37.0966 76.9105 37.5795 76.9105 38.1591V44H74.9332V42.8011H74.8651C74.7401 43.0436 74.5639 43.2708 74.3366 43.483C74.1132 43.6913 73.831 43.8598 73.4901 43.9886C73.1529 44.1136 72.7571 44.1761 72.3026 44.1761ZM72.8366 42.6648C73.2495 42.6648 73.6075 42.5833 73.9105 42.4205C74.2135 42.2538 74.4465 42.0341 74.6094 41.7614C74.776 41.4886 74.8594 41.1913 74.8594 40.8693V39.8409C74.795 39.8939 74.6851 39.9432 74.5298 39.9886C74.3783 40.0341 74.2079 40.0739 74.0185 40.108C73.8291 40.142 73.6416 40.1723 73.456 40.1989C73.2704 40.2254 73.1094 40.2481 72.973 40.267C72.6662 40.3087 72.3916 40.3769 72.1491 40.4716C71.9067 40.5663 71.7154 40.6989 71.5753 40.8693C71.4351 41.036 71.3651 41.2519 71.3651 41.517C71.3651 41.8958 71.5033 42.1818 71.7798 42.375C72.0563 42.5682 72.4086 42.6648 72.8366 42.6648ZM82.7855 44.1705C81.9143 44.1705 81.1662 43.9792 80.5412 43.5966C79.92 43.214 79.4408 42.6856 79.1037 42.0114C78.7704 41.3333 78.6037 40.553 78.6037 39.6705C78.6037 38.7841 78.7741 38.0019 79.1151 37.3239C79.456 36.642 79.937 36.1117 80.5582 35.733C81.1832 35.3504 81.9219 35.1591 82.7741 35.1591C83.4825 35.1591 84.1094 35.2898 84.6548 35.5511C85.2041 35.8087 85.6416 36.1742 85.9673 36.6477C86.2931 37.1174 86.4787 37.6667 86.5241 38.2955H84.5582C84.4787 37.875 84.2893 37.5246 83.9901 37.2443C83.6946 36.9602 83.2988 36.8182 82.8026 36.8182C82.3821 36.8182 82.0128 36.9318 81.6946 37.1591C81.3764 37.3826 81.1283 37.7045 80.9503 38.125C80.776 38.5455 80.6889 39.0492 80.6889 39.6364C80.6889 40.2311 80.776 40.7424 80.9503 41.1705C81.1245 41.5947 81.3688 41.9223 81.6832 42.1534C82.0014 42.3807 82.3745 42.4943 82.8026 42.4943C83.1056 42.4943 83.3764 42.4375 83.6151 42.3239C83.8575 42.2064 84.0601 42.0379 84.223 41.8182C84.3859 41.5985 84.4976 41.3314 84.5582 41.017H86.5241C86.4749 41.6345 86.2931 42.1818 85.9787 42.6591C85.6643 43.1326 85.2363 43.5038 84.6946 43.7727C84.1529 44.0379 83.5166 44.1705 82.7855 44.1705ZM92.571 35.2727V36.8636H87.554V35.2727H92.571ZM88.7926 33.1818H90.8494V41.375C90.8494 41.6515 90.8911 41.8636 90.9744 42.0114C91.0616 42.1553 91.1752 42.2538 91.3153 42.3068C91.4555 42.3598 91.6108 42.3864 91.7812 42.3864C91.91 42.3864 92.0275 42.3769 92.1335 42.358C92.2434 42.339 92.3267 42.322 92.3835 42.3068L92.7301 43.9148C92.6203 43.9527 92.4631 43.9943 92.2585 44.0398C92.0578 44.0852 91.8116 44.1117 91.5199 44.1193C91.0047 44.1345 90.5407 44.0568 90.1278 43.8864C89.715 43.7121 89.3873 43.4432 89.1449 43.0795C88.9063 42.7159 88.7888 42.2614 88.7926 41.7159V33.1818ZM103.822 40.3295V35.2727H105.879V44H103.885V42.4489H103.794C103.597 42.9375 103.273 43.3371 102.822 43.6477C102.375 43.9583 101.824 44.1136 101.169 44.1136C100.597 44.1136 100.091 43.9867 99.652 43.733C99.2164 43.4754 98.8755 43.1023 98.6293 42.6136C98.383 42.1212 98.2599 41.5265 98.2599 40.8295V35.2727H100.317V40.5114C100.317 41.0644 100.468 41.5038 100.771 41.8295C101.074 42.1553 101.472 42.3182 101.964 42.3182C102.268 42.3182 102.561 42.2443 102.845 42.0966C103.129 41.9489 103.362 41.7292 103.544 41.4375C103.73 41.142 103.822 40.7727 103.822 40.3295ZM114.892 37.5795L113.017 37.7841C112.964 37.5947 112.871 37.4167 112.739 37.25C112.61 37.0833 112.436 36.9489 112.216 36.8466C111.996 36.7443 111.727 36.6932 111.409 36.6932C110.981 36.6932 110.621 36.786 110.33 36.9716C110.042 37.1572 109.9 37.3977 109.903 37.6932C109.9 37.947 109.992 38.1534 110.182 38.3125C110.375 38.4716 110.693 38.6023 111.136 38.7045L112.625 39.0227C113.451 39.2008 114.064 39.483 114.466 39.8693C114.871 40.2557 115.076 40.7614 115.08 41.3864C115.076 41.9356 114.915 42.4205 114.597 42.8409C114.282 43.2576 113.845 43.5833 113.284 43.8182C112.723 44.053 112.08 44.1705 111.352 44.1705C110.284 44.1705 109.424 43.947 108.773 43.5C108.121 43.0492 107.733 42.4223 107.608 41.6193L109.614 41.4261C109.705 41.8201 109.898 42.1174 110.193 42.3182C110.489 42.5189 110.873 42.6193 111.347 42.6193C111.835 42.6193 112.227 42.5189 112.523 42.3182C112.822 42.1174 112.972 41.8693 112.972 41.5739C112.972 41.3239 112.875 41.1174 112.682 40.9545C112.492 40.7917 112.197 40.6667 111.795 40.5795L110.307 40.267C109.47 40.0928 108.85 39.7992 108.449 39.3864C108.047 38.9697 107.848 38.4432 107.852 37.8068C107.848 37.2689 107.994 36.803 108.29 36.4091C108.589 36.0114 109.004 35.7045 109.534 35.4886C110.068 35.2689 110.684 35.1591 111.381 35.1591C112.403 35.1591 113.208 35.3769 113.795 35.8125C114.386 36.2481 114.752 36.8371 114.892 37.5795Z" fill="black"/>
</g>
<defs>
<filter id="filter0_i_6_9" x="32.1335" y="32.2045" width="82.946" height="15.9716" filterUnits="userSpaceOnUse" color-interpolation-filters="sRGB">
<feFlood flood-opacity="0" result="BackgroundImageFix"/>
<feBlend mode="normal" in="SourceGraphic" in2="BackgroundImageFix" result="shape"/>
<feColorMatrix in="SourceAlpha" type="matrix" values="0 0 0 0 0 0 0 0 0 0 0 0 0 0 0 0 0 0 127 0" result="hardAlpha"/>
<feOffset dy="4"/>
<feGaussianBlur stdDeviation="2"/>
<feComposite in2="hardAlpha" operator="arithmetic" k2="-1" k3="1"/>
<feColorMatrix type="matrix" values="0 0 0 0 0 0 0 0 0 0 0 0 0 0 0 0 0 0 0.25 0"/>
<feBlend mode="normal" in2="shape" result="effect1_innerShadow_6_9"/>
</filter>
<linearGradient id="paint0_linear_6_9" x1="86.7897" y1="100.444" x2="94.1085" y2="27.6451" gradientUnits="userSpaceOnUse">
<stop stop-color="#A68656"/>
<stop offset="1" stop-color="#A65656" stop-opacity="0"/>
</linearGradient>
</defs>
</svg>
