<svg width="147" height="76" viewBox="0 0 147 76" fill="none" xmlns="http://www.w3.org/2000/svg">
<rect width="147" height="76" rx="38" fill="url(#paint0_linear_6_9)"/>
<g filter="url(#filter0_i_6_9)">
<path d="M59.7962 44V32.3636H64.2507C65.0916 32.3636 65.7905 32.4962 66.3473 32.7614C66.9079 33.0227 67.3265 33.3807 67.603 33.8352C67.8833 34.2898 68.0234 34.8049 68.0234 35.3807C68.0234 35.8542 67.9325 36.2595 67.7507 36.5966C67.5689 36.9299 67.3246 37.2008 67.0178 37.4091C66.7109 37.6174 66.3681 37.767 65.9893 37.858V37.9716C66.4022 37.9943 66.7981 38.1212 67.1768 38.3523C67.5594 38.5795 67.8719 38.9015 68.1143 39.3182C68.3568 39.7348 68.478 40.2386 68.478 40.8295C68.478 41.4318 68.3322 41.9735 68.0405 42.4545C67.7488 42.9318 67.3094 43.3087 66.7223 43.5852C66.1352 43.8617 65.3965 44 64.5064 44H59.7962ZM61.9041 42.2386H64.1712C64.9363 42.2386 65.4875 42.0928 65.8246 41.8011C66.1655 41.5057 66.3359 41.1269 66.3359 40.6648C66.3359 40.3201 66.2507 40.0095 66.0803 39.733C65.9098 39.4527 65.6674 39.233 65.353 39.0739C65.0386 38.911 64.6636 38.8295 64.228 38.8295H61.9041V42.2386ZM61.9041 37.3125H63.9893C64.353 37.3125 64.6806 37.2462 64.9723 37.1136C65.264 36.9773 65.4931 36.786 65.6598 36.5398C65.8303 36.2898 65.9155 35.9943 65.9155 35.6534C65.9155 35.2027 65.7564 34.8314 65.4382 34.5398C65.1238 34.2481 64.656 34.1023 64.0348 34.1023H61.9041V37.3125ZM72.7322 44.1761C72.1792 44.1761 71.6811 44.0777 71.2379 43.8807C70.7985 43.6799 70.45 43.3845 70.1925 42.9943C69.9387 42.6042 69.8118 42.1231 69.8118 41.5511C69.8118 41.0587 69.9027 40.6515 70.0845 40.3295C70.2663 40.0076 70.5144 39.75 70.8288 39.5568C71.1432 39.3636 71.4974 39.2178 71.8913 39.1193C72.2891 39.017 72.7 38.9432 73.1243 38.8977C73.6357 38.8447 74.0504 38.7973 74.3686 38.7557C74.6868 38.7102 74.9179 38.642 75.0618 38.5511C75.2095 38.4564 75.2834 38.3106 75.2834 38.1136V38.0795C75.2834 37.6515 75.1565 37.3201 74.9027 37.0852C74.6489 36.8504 74.2834 36.733 73.8061 36.733C73.3023 36.733 72.9027 36.8428 72.6072 37.0625C72.3156 37.2822 72.1186 37.5417 72.0163 37.8409L70.0959 37.5682C70.2474 37.0379 70.4974 36.5947 70.8459 36.2386C71.1944 35.8788 71.6205 35.6098 72.1243 35.4318C72.6281 35.25 73.1849 35.1591 73.7947 35.1591C74.2152 35.1591 74.6338 35.2083 75.0504 35.3068C75.4671 35.4053 75.8478 35.5682 76.1925 35.7955C76.5372 36.0189 76.8137 36.3239 77.022 36.7102C77.2341 37.0966 77.3402 37.5795 77.3402 38.1591V44H75.3629V42.8011H75.2947C75.1697 43.0436 74.9936 43.2708 74.7663 43.483C74.5429 43.6913 74.2607 43.8598 73.9197 43.9886C73.5826 44.1136 73.1868 44.1761 72.7322 44.1761ZM73.2663 42.6648C73.6792 42.6648 74.0372 42.5833 74.3402 42.4205C74.6432 42.2538 74.8762 42.0341 75.0391 41.7614C75.2057 41.4886 75.2891 41.1913 75.2891 40.8693V39.8409C75.2247 39.8939 75.1148 39.9432 74.9595 39.9886C74.808 40.0341 74.6375 40.0739 74.4482 40.108C74.2588 40.142 74.0713 40.1723 73.8857 40.1989C73.7 40.2254 73.5391 40.2481 73.4027 40.267C73.0959 40.3087 72.8213 40.3769 72.5788 40.4716C72.3364 40.5663 72.1451 40.6989 72.005 40.8693C71.8648 41.036 71.7947 41.2519 71.7947 41.517C71.7947 41.8958 71.933 42.1818 72.2095 42.375C72.486 42.5682 72.8383 42.6648 73.2663 42.6648ZM83.2038 47.4545C82.4652 47.4545 81.8307 47.3542 81.3004 47.1534C80.7701 46.9564 80.344 46.6913 80.022 46.358C79.7 46.0246 79.4766 45.6553 79.3516 45.25L81.2038 44.8011C81.2872 44.9716 81.4084 45.1402 81.5675 45.3068C81.7266 45.4773 81.9406 45.6174 82.2095 45.7273C82.4822 45.8409 82.825 45.8977 83.2379 45.8977C83.8213 45.8977 84.3042 45.7557 84.6868 45.4716C85.0694 45.1913 85.2607 44.7292 85.2607 44.0852V42.4318H85.1584C85.0523 42.6439 84.897 42.8617 84.6925 43.0852C84.4917 43.3087 84.2247 43.4962 83.8913 43.6477C83.5618 43.7992 83.147 43.875 82.647 43.875C81.9766 43.875 81.3686 43.7178 80.8232 43.4034C80.2815 43.0852 79.8497 42.6117 79.5277 41.983C79.2095 41.3504 79.0504 40.5587 79.0504 39.608C79.0504 38.6496 79.2095 37.8409 79.5277 37.1818C79.8497 36.5189 80.2834 36.017 80.8288 35.6761C81.3743 35.3314 81.9822 35.1591 82.6527 35.1591C83.1641 35.1591 83.5845 35.2462 83.9141 35.4205C84.2474 35.5909 84.5125 35.7973 84.7095 36.0398C84.9065 36.2784 85.0561 36.5038 85.1584 36.7159H85.272V35.2727H87.3004V44.142C87.3004 44.8883 87.1224 45.5057 86.7663 45.9943C86.4103 46.483 85.9235 46.8485 85.3061 47.0909C84.6887 47.3333 83.9879 47.4545 83.2038 47.4545ZM83.2209 42.2614C83.6565 42.2614 84.0277 42.1553 84.3345 41.9432C84.6413 41.7311 84.8743 41.4261 85.0334 41.0284C85.1925 40.6307 85.272 40.1534 85.272 39.5966C85.272 39.0473 85.1925 38.5663 85.0334 38.1534C84.8781 37.7405 84.647 37.4205 84.3402 37.1932C84.0372 36.9621 83.6641 36.8466 83.2209 36.8466C82.7625 36.8466 82.38 36.9659 82.0732 37.2045C81.7663 37.4432 81.5353 37.7708 81.38 38.1875C81.2247 38.6004 81.147 39.0701 81.147 39.5966C81.147 40.1307 81.2247 40.5985 81.38 41C81.5391 41.3977 81.772 41.7083 82.0788 41.9318C82.3894 42.1515 82.7701 42.2614 83.2209 42.2614Z" fill="black"/>
</g>
<defs>
<filter id="filter0_i_6_9" x="59.7961" y="32.3636" width="27.5043" height="19.0909" filterUnits="userSpaceOnUse" color-interpolation-filters="sRGB">
<feFlood flood-opacity="0" result="BackgroundImageFix"/>
<feBlend mode="normal" in="SourceGraphic" in2="BackgroundImageFix" result="shape"/>
<feColorMatrix in="SourceAlpha" type="matrix" values="0 0 0 0 0 0 0 0 0 0 0 0 0 0 0 0 0 0 127 0" result="hardAlpha"/>
<feOffset dy="4"/>
<feGaussianBlur stdDeviation="2"/>
<feComposite in2="hardAlpha" operator="arithmetic" k2="-1" k3="1"/>
<feColorMatrix type="matrix" values="0 0 0 0 0 0 0 0 0 0 0 0 0 0 0 0 0 0 0.25 0"/>
<feBlend mode="normal" in2="shape" result="effect1_innerShadow_6_9"/>
</filter>
<linearGradient id="paint0_linear_6_9" x1="86.7897" y1="100.444" x2="94.1085" y2="27.6451" gradientUnits="userSpaceOnUse">
<stop stop-color="#A68656"/>
<stop offset="1" stop-color="#A65656" stop-opacity="0"/>
</linearGradient>
</defs>
</svg>
