<svg width="147" height="76" viewBox="0 0 147 76" fill="none" xmlns="http://www.w3.org/2000/svg">
<rect width="147" height="76" rx="38" fill="url(#paint0_linear_6_9)"/>
<g filter="url(#filter0_i_6_9)">
<path d="M46.0575 44L42.7734 32.3636H45.0405L47.1371 40.9148H47.245L49.4837 32.3636H51.5462L53.7905 40.9205H53.8928L55.9893 32.3636H58.2564L54.9723 44H52.8928L50.5632 35.8352H50.4723L48.1371 44H46.0575ZM59.6271 44V35.2727H61.6839V44H59.6271ZM60.6612 34.0341C60.3355 34.0341 60.0552 33.9261 59.8203 33.7102C59.5855 33.4905 59.468 33.2273 59.468 32.9205C59.468 32.6098 59.5855 32.3466 59.8203 32.1307C60.0552 31.911 60.3355 31.8011 60.6612 31.8011C60.9908 31.8011 61.2711 31.911 61.5021 32.1307C61.737 32.3466 61.8544 32.6098 61.8544 32.9205C61.8544 33.2273 61.737 33.4905 61.5021 33.7102C61.2711 33.9261 60.9908 34.0341 60.6612 34.0341ZM70.6967 37.5795L68.8217 37.7841C68.7687 37.5947 68.6759 37.4167 68.5433 37.25C68.4145 37.0833 68.2403 36.9489 68.0206 36.8466C67.8009 36.7443 67.532 36.6932 67.2138 36.6932C66.7857 36.6932 66.4259 36.786 66.1342 36.9716C65.8464 37.1572 65.7043 37.3977 65.7081 37.6932C65.7043 37.947 65.7971 38.1534 65.9865 38.3125C66.1797 38.4716 66.4979 38.6023 66.9411 38.7045L68.4297 39.0227C69.2554 39.2008 69.8691 39.483 70.2706 39.8693C70.6759 40.2557 70.8804 40.7614 70.8842 41.3864C70.8804 41.9356 70.7195 42.4205 70.4013 42.8409C70.0869 43.2576 69.6494 43.5833 69.0888 43.8182C68.5282 44.053 67.8842 44.1705 67.157 44.1705C66.0888 44.1705 65.2289 43.947 64.5774 43.5C63.9259 43.0492 63.5376 42.4223 63.4126 41.6193L65.4183 41.4261C65.5092 41.8201 65.7024 42.1174 65.9979 42.3182C66.2933 42.5189 66.6778 42.6193 67.1513 42.6193C67.6399 42.6193 68.032 42.5189 68.3274 42.3182C68.6267 42.1174 68.7763 41.8693 68.7763 41.5739C68.7763 41.3239 68.6797 41.1174 68.4865 40.9545C68.2971 40.7917 68.0017 40.6667 67.6001 40.5795L66.1115 40.267C65.2744 40.0928 64.6551 39.7992 64.2536 39.3864C63.852 38.9697 63.6532 38.4432 63.657 37.8068C63.6532 37.2689 63.799 36.803 64.0945 36.4091C64.3937 36.0114 64.8085 35.7045 65.3388 35.4886C65.8729 35.2689 66.4884 35.1591 67.1854 35.1591C68.2081 35.1591 69.013 35.3769 69.6001 35.8125C70.1911 36.2481 70.5566 36.8371 70.6967 37.5795ZM74.6371 38.8864V44H72.5803V32.3636H74.5916V36.7557H74.6939C74.8984 36.2633 75.2147 35.875 75.6428 35.5909C76.0746 35.303 76.6238 35.1591 77.2905 35.1591C77.8965 35.1591 78.425 35.286 78.8757 35.5398C79.3265 35.7936 79.675 36.1648 79.9212 36.6534C80.1712 37.142 80.2962 37.7386 80.2962 38.4432V44H78.2393V38.7614C78.2393 38.1742 78.0878 37.7178 77.7848 37.392C77.4856 37.0625 77.0651 36.8977 76.5234 36.8977C76.1598 36.8977 75.834 36.9773 75.5462 37.1364C75.2621 37.2917 75.0386 37.517 74.8757 37.8125C74.7166 38.108 74.6371 38.4659 74.6371 38.8864ZM84.4496 32.3636V44H82.3928V32.3636H84.4496ZM86.5646 44V35.2727H88.6214V44H86.5646ZM87.5987 34.0341C87.273 34.0341 86.9927 33.9261 86.7578 33.7102C86.523 33.4905 86.4055 33.2273 86.4055 32.9205C86.4055 32.6098 86.523 32.3466 86.7578 32.1307C86.9927 31.911 87.273 31.8011 87.5987 31.8011C87.9283 31.8011 88.2086 31.911 88.4396 32.1307C88.6745 32.3466 88.7919 32.6098 88.7919 32.9205C88.7919 33.2273 88.6745 33.4905 88.4396 33.7102C88.2086 33.9261 87.9283 34.0341 87.5987 34.0341ZM97.6342 37.5795L95.7592 37.7841C95.7062 37.5947 95.6134 37.4167 95.4808 37.25C95.352 37.0833 95.1778 36.9489 94.9581 36.8466C94.7384 36.7443 94.4695 36.6932 94.1513 36.6932C93.7232 36.6932 93.3634 36.786 93.0717 36.9716C92.7839 37.1572 92.6418 37.3977 92.6456 37.6932C92.6418 37.947 92.7346 38.1534 92.924 38.3125C93.1172 38.4716 93.4354 38.6023 93.8786 38.7045L95.3672 39.0227C96.1929 39.2008 96.8066 39.483 97.2081 39.8693C97.6134 40.2557 97.8179 40.7614 97.8217 41.3864C97.8179 41.9356 97.657 42.4205 97.3388 42.8409C97.0244 43.2576 96.5869 43.5833 96.0263 43.8182C95.4657 44.053 94.8217 44.1705 94.0945 44.1705C93.0263 44.1705 92.1664 43.947 91.5149 43.5C90.8634 43.0492 90.4751 42.4223 90.3501 41.6193L92.3558 41.4261C92.4467 41.8201 92.6399 42.1174 92.9354 42.3182C93.2308 42.5189 93.6153 42.6193 94.0888 42.6193C94.5774 42.6193 94.9695 42.5189 95.2649 42.3182C95.5642 42.1174 95.7138 41.8693 95.7138 41.5739C95.7138 41.3239 95.6172 41.1174 95.424 40.9545C95.2346 40.7917 94.9392 40.6667 94.5376 40.5795L93.049 40.267C92.2119 40.0928 91.5926 39.7992 91.1911 39.3864C90.7895 38.9697 90.5907 38.4432 90.5945 37.8068C90.5907 37.2689 90.7365 36.803 91.032 36.4091C91.3312 36.0114 91.746 35.7045 92.2763 35.4886C92.8104 35.2689 93.4259 35.1591 94.1229 35.1591C95.1456 35.1591 95.9505 35.3769 96.5376 35.8125C97.1286 36.2481 97.4941 36.8371 97.6342 37.5795ZM103.876 35.2727V36.8636H98.8587V35.2727H103.876ZM100.097 33.1818H102.154V41.375C102.154 41.6515 102.196 41.8636 102.279 42.0114C102.366 42.1553 102.48 42.2538 102.62 42.3068C102.76 42.3598 102.915 42.3864 103.086 42.3864C103.215 42.3864 103.332 42.3769 103.438 42.358C103.548 42.339 103.631 42.322 103.688 42.3068L104.035 43.9148C103.925 43.9527 103.768 43.9943 103.563 44.0398C103.362 44.0852 103.116 44.1117 102.825 44.1193C102.309 44.1345 101.845 44.0568 101.433 43.8864C101.02 43.7121 100.692 43.4432 100.45 43.0795C100.211 42.7159 100.094 42.2614 100.097 41.7159V33.1818Z" fill="black"/>
</g>
<defs>
<filter id="filter0_i_6_9" x="42.7734" y="31.8011" width="61.2614" height="16.3693" filterUnits="userSpaceOnUse" color-interpolation-filters="sRGB">
<feFlood flood-opacity="0" result="BackgroundImageFix"/>
<feBlend mode="normal" in="SourceGraphic" in2="BackgroundImageFix" result="shape"/>
<feColorMatrix in="SourceAlpha" type="matrix" values="0 0 0 0 0 0 0 0 0 0 0 0 0 0 0 0 0 0 127 0" result="hardAlpha"/>
<feOffset dy="4"/>
<feGaussianBlur stdDeviation="2"/>
<feComposite in2="hardAlpha" operator="arithmetic" k2="-1" k3="1"/>
<feColorMatrix type="matrix" values="0 0 0 0 0 0 0 0 0 0 0 0 0 0 0 0 0 0 0.25 0"/>
<feBlend mode="normal" in2="shape" result="effect1_innerShadow_6_9"/>
</filter>
<linearGradient id="paint0_linear_6_9" x1="86.7897" y1="100.444" x2="94.1085" y2="27.6451" gradientUnits="userSpaceOnUse">
<stop stop-color="#A68656"/>
<stop offset="1" stop-color="#A65656" stop-opacity="0"/>
</linearGradient>
</defs>
</svg>
