<svg width="147" height="76" viewBox="0 0 147 76" fill="none" xmlns="http://www.w3.org/2000/svg">
<rect width="147" height="76" rx="38" fill="url(#paint0_linear_6_9)"/>
<g filter="url(#filter0_i_6_9)">
<path d="M53.6314 36.2898H51.5064C51.4458 35.9413 51.334 35.6326 51.1712 35.3636C51.0083 35.0909 50.8056 34.8598 50.5632 34.6705C50.3208 34.4811 50.0443 34.339 49.7337 34.2443C49.4268 34.1458 49.0954 34.0966 48.7393 34.0966C48.1068 34.0966 47.5462 34.2557 47.0575 34.5739C46.5689 34.8883 46.1863 35.3504 45.9098 35.9602C45.6333 36.5663 45.495 37.3068 45.495 38.1818C45.495 39.072 45.6333 39.822 45.9098 40.4318C46.1901 41.0379 46.5727 41.4962 47.0575 41.8068C47.5462 42.1136 48.1049 42.267 48.7337 42.267C49.0821 42.267 49.4079 42.2216 49.7109 42.1307C50.0178 42.036 50.2924 41.8977 50.5348 41.7159C50.781 41.5341 50.9875 41.3106 51.1541 41.0455C51.3246 40.7803 51.442 40.4773 51.5064 40.1364L53.6314 40.1477C53.5518 40.7008 53.3795 41.2197 53.1143 41.7045C52.853 42.1894 52.5102 42.6174 52.0859 42.9886C51.6617 43.3561 51.1655 43.6439 50.5973 43.8523C50.0291 44.0568 49.3984 44.1591 48.7053 44.1591C47.6825 44.1591 46.7696 43.9223 45.9666 43.4489C45.1636 42.9754 44.531 42.2917 44.0689 41.3977C43.6068 40.5038 43.3757 39.4318 43.3757 38.1818C43.3757 36.928 43.6087 35.8561 44.0746 34.9659C44.5405 34.072 45.175 33.3883 45.978 32.9148C46.781 32.4413 47.6901 32.2045 48.7053 32.2045C49.353 32.2045 49.9553 32.2955 50.5121 32.4773C51.0689 32.6591 51.5651 32.9261 52.0007 33.2784C52.4363 33.6269 52.7943 34.0549 53.0746 34.5625C53.3587 35.0663 53.5443 35.642 53.6314 36.2898ZM59.2777 44.1705C58.4254 44.1705 57.6868 43.983 57.0618 43.608C56.4368 43.233 55.9519 42.7083 55.6072 42.0341C55.2663 41.3598 55.0959 40.572 55.0959 39.6705C55.0959 38.7689 55.2663 37.9792 55.6072 37.3011C55.9519 36.6231 56.4368 36.0966 57.0618 35.7216C57.6868 35.3466 58.4254 35.1591 59.2777 35.1591C60.13 35.1591 60.8686 35.3466 61.4936 35.7216C62.1186 36.0966 62.6016 36.6231 62.9425 37.3011C63.2872 37.9792 63.4595 38.7689 63.4595 39.6705C63.4595 40.572 63.2872 41.3598 62.9425 42.0341C62.6016 42.7083 62.1186 43.233 61.4936 43.608C60.8686 43.983 60.13 44.1705 59.2777 44.1705ZM59.2891 42.5227C59.7512 42.5227 60.1375 42.3958 60.4482 42.142C60.7588 41.8845 60.9898 41.5398 61.1413 41.108C61.2966 40.6761 61.3743 40.1951 61.3743 39.6648C61.3743 39.1307 61.2966 38.6477 61.1413 38.2159C60.9898 37.7803 60.7588 37.4337 60.4482 37.1761C60.1375 36.9186 59.7512 36.7898 59.2891 36.7898C58.8156 36.7898 58.4216 36.9186 58.1072 37.1761C57.7966 37.4337 57.5637 37.7803 57.4084 38.2159C57.2569 38.6477 57.1811 39.1307 57.1811 39.6648C57.1811 40.1951 57.2569 40.6761 57.4084 41.108C57.5637 41.5398 57.7966 41.8845 58.1072 42.142C58.4216 42.3958 58.8156 42.5227 59.2891 42.5227ZM67.2621 38.8864V44H65.2053V35.2727H67.1712V36.7557H67.2734C67.4742 36.267 67.7943 35.8788 68.2337 35.5909C68.6768 35.303 69.2242 35.1591 69.8757 35.1591C70.478 35.1591 71.0026 35.2879 71.4496 35.5455C71.9003 35.803 72.2488 36.1761 72.495 36.6648C72.745 37.1534 72.8681 37.7462 72.8643 38.4432V44H70.8075V38.7614C70.8075 38.178 70.656 37.7216 70.353 37.392C70.0537 37.0625 69.639 36.8977 69.1087 36.8977C68.7488 36.8977 68.4287 36.9773 68.1484 37.1364C67.8719 37.2917 67.6541 37.517 67.495 37.8125C67.3397 38.108 67.2621 38.4659 67.2621 38.8864ZM79.3132 35.2727V36.8636H74.2962V35.2727H79.3132ZM75.5348 33.1818H77.5916V41.375C77.5916 41.6515 77.6333 41.8636 77.7166 42.0114C77.8037 42.1553 77.9174 42.2538 78.0575 42.3068C78.1977 42.3598 78.353 42.3864 78.5234 42.3864C78.6522 42.3864 78.7696 42.3769 78.8757 42.358C78.9856 42.339 79.0689 42.322 79.1257 42.3068L79.4723 43.9148C79.3625 43.9527 79.2053 43.9943 79.0007 44.0398C78.8 44.0852 78.5537 44.1117 78.2621 44.1193C77.7469 44.1345 77.2829 44.0568 76.87 43.8864C76.4571 43.7121 76.1295 43.4432 75.8871 43.0795C75.6484 42.7159 75.531 42.2614 75.5348 41.7159V33.1818ZM83.5447 44.1761C82.9917 44.1761 82.4936 44.0777 82.0504 43.8807C81.611 43.6799 81.2625 43.3845 81.005 42.9943C80.7512 42.6042 80.6243 42.1231 80.6243 41.5511C80.6243 41.0587 80.7152 40.6515 80.897 40.3295C81.0788 40.0076 81.3269 39.75 81.6413 39.5568C81.9557 39.3636 82.3099 39.2178 82.7038 39.1193C83.1016 39.017 83.5125 38.9432 83.9368 38.8977C84.4482 38.8447 84.8629 38.7973 85.1811 38.7557C85.4993 38.7102 85.7304 38.642 85.8743 38.5511C86.022 38.4564 86.0959 38.3106 86.0959 38.1136V38.0795C86.0959 37.6515 85.969 37.3201 85.7152 37.0852C85.4614 36.8504 85.0959 36.733 84.6186 36.733C84.1148 36.733 83.7152 36.8428 83.4197 37.0625C83.1281 37.2822 82.9311 37.5417 82.8288 37.8409L80.9084 37.5682C81.0599 37.0379 81.3099 36.5947 81.6584 36.2386C82.0069 35.8788 82.433 35.6098 82.9368 35.4318C83.4406 35.25 83.9974 35.1591 84.6072 35.1591C85.0277 35.1591 85.4463 35.2083 85.8629 35.3068C86.2796 35.4053 86.6603 35.5682 87.005 35.7955C87.3497 36.0189 87.6262 36.3239 87.8345 36.7102C88.0466 37.0966 88.1527 37.5795 88.1527 38.1591V44H86.1754V42.8011H86.1072C85.9822 43.0436 85.8061 43.2708 85.5788 43.483C85.3554 43.6913 85.0732 43.8598 84.7322 43.9886C84.3951 44.1136 83.9993 44.1761 83.5447 44.1761ZM84.0788 42.6648C84.4917 42.6648 84.8497 42.5833 85.1527 42.4205C85.4557 42.2538 85.6887 42.0341 85.8516 41.7614C86.0182 41.4886 86.1016 41.1913 86.1016 40.8693V39.8409C86.0372 39.8939 85.9273 39.9432 85.772 39.9886C85.6205 40.0341 85.45 40.0739 85.2607 40.108C85.0713 40.142 84.8838 40.1723 84.6982 40.1989C84.5125 40.2254 84.3516 40.2481 84.2152 40.267C83.9084 40.3087 83.6338 40.3769 83.3913 40.4716C83.1489 40.5663 82.9576 40.6989 82.8175 40.8693C82.6773 41.036 82.6072 41.2519 82.6072 41.517C82.6072 41.8958 82.7455 42.1818 83.022 42.375C83.2985 42.5682 83.6508 42.6648 84.0788 42.6648ZM94.0277 44.1705C93.1565 44.1705 92.4084 43.9792 91.7834 43.5966C91.1622 43.214 90.683 42.6856 90.3459 42.0114C90.0125 41.3333 89.8459 40.553 89.8459 39.6705C89.8459 38.7841 90.0163 38.0019 90.3572 37.3239C90.6982 36.642 91.1792 36.1117 91.8004 35.733C92.4254 35.3504 93.1641 35.1591 94.0163 35.1591C94.7247 35.1591 95.3516 35.2898 95.897 35.5511C96.4463 35.8087 96.8838 36.1742 97.2095 36.6477C97.5353 37.1174 97.7209 37.6667 97.7663 38.2955H95.8004C95.7209 37.875 95.5315 37.5246 95.2322 37.2443C94.9368 36.9602 94.541 36.8182 94.0447 36.8182C93.6243 36.8182 93.255 36.9318 92.9368 37.1591C92.6186 37.3826 92.3705 37.7045 92.1925 38.125C92.0182 38.5455 91.9311 39.0492 91.9311 39.6364C91.9311 40.2311 92.0182 40.7424 92.1925 41.1705C92.3667 41.5947 92.611 41.9223 92.9254 42.1534C93.2436 42.3807 93.6167 42.4943 94.0447 42.4943C94.3478 42.4943 94.6186 42.4375 94.8572 42.3239C95.0997 42.2064 95.3023 42.0379 95.4652 41.8182C95.6281 41.5985 95.7398 41.3314 95.8004 41.017H97.7663C97.7171 41.6345 97.5353 42.1818 97.2209 42.6591C96.9065 43.1326 96.4785 43.5038 95.9368 43.7727C95.3951 44.0379 94.7588 44.1705 94.0277 44.1705ZM103.813 35.2727V36.8636H98.7962V35.2727H103.813ZM100.035 33.1818H102.092V41.375C102.092 41.6515 102.133 41.8636 102.217 42.0114C102.304 42.1553 102.417 42.2538 102.558 42.3068C102.698 42.3598 102.853 42.3864 103.023 42.3864C103.152 42.3864 103.27 42.3769 103.376 42.358C103.486 42.339 103.569 42.322 103.626 42.3068L103.972 43.9148C103.862 43.9527 103.705 43.9943 103.501 44.0398C103.3 44.0852 103.054 44.1117 102.762 44.1193C102.247 44.1345 101.783 44.0568 101.37 43.8864C100.957 43.7121 100.629 43.4432 100.387 43.0795C100.148 42.7159 100.031 42.2614 100.035 41.7159V33.1818Z" fill="black"/>
</g>
<defs>
<filter id="filter0_i_6_9" x="43.3757" y="32.2045" width="60.5966" height="15.9716" filterUnits="userSpaceOnUse" color-interpolation-filters="sRGB">
<feFlood flood-opacity="0" result="BackgroundImageFix"/>
<feBlend mode="normal" in="SourceGraphic" in2="BackgroundImageFix" result="shape"/>
<feColorMatrix in="SourceAlpha" type="matrix" values="0 0 0 0 0 0 0 0 0 0 0 0 0 0 0 0 0 0 127 0" result="hardAlpha"/>
<feOffset dy="4"/>
<feGaussianBlur stdDeviation="2"/>
<feComposite in2="hardAlpha" operator="arithmetic" k2="-1" k3="1"/>
<feColorMatrix type="matrix" values="0 0 0 0 0 0 0 0 0 0 0 0 0 0 0 0 0 0 0.25 0"/>
<feBlend mode="normal" in2="shape" result="effect1_innerShadow_6_9"/>
</filter>
<linearGradient id="paint0_linear_6_9" x1="86.7897" y1="100.444" x2="94.1085" y2="27.6451" gradientUnits="userSpaceOnUse">
<stop stop-color="#A68656"/>
<stop offset="1" stop-color="#A65656" stop-opacity="0"/>
</linearGradient>
</defs>
</svg>
