<svg width="271" height="171" viewBox="0 0 271 171" fill="none" xmlns="http://www.w3.org/2000/svg">
<rect width="271" height="171" rx="50" fill="url(#paint0_linear_4_5)"/>
<path d="M70.1009 73H68.6918C68.6084 72.5947 68.4626 72.2386 68.2543 71.9318C68.0497 71.625 67.7997 71.3674 67.5043 71.1591C67.2126 70.947 66.8887 70.7879 66.5327 70.6818C66.1766 70.5758 65.8054 70.5227 65.419 70.5227C64.7145 70.5227 64.0762 70.7008 63.5043 71.0568C62.9361 71.4129 62.4834 71.9375 62.1463 72.6307C61.813 73.3239 61.6463 74.1742 61.6463 75.1818C61.6463 76.1894 61.813 77.0398 62.1463 77.733C62.4834 78.4261 62.9361 78.9508 63.5043 79.3068C64.0762 79.6629 64.7145 79.8409 65.419 79.8409C65.8054 79.8409 66.1766 79.7879 66.5327 79.6818C66.8887 79.5758 67.2126 79.4186 67.5043 79.2102C67.7997 78.9981 68.0497 78.7386 68.2543 78.4318C68.4626 78.1212 68.6084 77.7652 68.6918 77.3636H70.1009C69.9948 77.9583 69.8016 78.4905 69.5213 78.9602C69.241 79.4299 68.8925 79.8295 68.4759 80.1591C68.0592 80.4848 67.5914 80.733 67.0724 80.9034C66.5573 81.0739 66.0062 81.1591 65.419 81.1591C64.4266 81.1591 63.544 80.9167 62.7713 80.4318C61.9986 79.947 61.3906 79.2576 60.9474 78.3636C60.5043 77.4697 60.2827 76.4091 60.2827 75.1818C60.2827 73.9545 60.5043 72.8939 60.9474 72C61.3906 71.1061 61.9986 70.4167 62.7713 69.9318C63.544 69.447 64.4266 69.2045 65.419 69.2045C66.0062 69.2045 66.5573 69.2898 67.0724 69.4602C67.5914 69.6307 68.0592 69.8807 68.4759 70.2102C68.8925 70.536 69.241 70.9337 69.5213 71.4034C69.8016 71.8693 69.9948 72.4015 70.1009 73ZM72.196 81V72.2727H73.4915V73.5909H73.5824C73.7415 73.1591 74.0294 72.8087 74.446 72.5398C74.8627 72.2708 75.3324 72.1364 75.8551 72.1364C75.9536 72.1364 76.0767 72.1383 76.2244 72.142C76.3722 72.1458 76.4839 72.1515 76.5597 72.1591V73.5227C76.5142 73.5114 76.41 73.4943 76.2472 73.4716C76.0881 73.4451 75.9195 73.4318 75.7415 73.4318C75.3172 73.4318 74.9384 73.5208 74.6051 73.6989C74.2756 73.8731 74.0142 74.1155 73.821 74.4261C73.6316 74.733 73.5369 75.0833 73.5369 75.4773V81H72.196ZM78.1491 81V72.2727H79.4901V81H78.1491ZM78.831 70.8182C78.5696 70.8182 78.3442 70.7292 78.1548 70.5511C77.9692 70.3731 77.8764 70.1591 77.8764 69.9091C77.8764 69.6591 77.9692 69.4451 78.1548 69.267C78.3442 69.089 78.5696 69 78.831 69C79.0923 69 79.3158 69.089 79.5014 69.267C79.6908 69.4451 79.7855 69.6591 79.7855 69.9091C79.7855 70.1591 79.6908 70.3731 79.5014 70.5511C79.3158 70.7292 79.0923 70.8182 78.831 70.8182ZM88.1278 74.2273L86.9233 74.5682C86.8475 74.3674 86.7358 74.1723 86.5881 73.983C86.4441 73.7898 86.2472 73.6307 85.9972 73.5057C85.7472 73.3807 85.4271 73.3182 85.0369 73.3182C84.5028 73.3182 84.0578 73.4413 83.7017 73.6875C83.3494 73.9299 83.1733 74.2386 83.1733 74.6136C83.1733 74.947 83.2945 75.2102 83.5369 75.4034C83.7794 75.5966 84.1581 75.7576 84.6733 75.8864L85.9688 76.2045C86.7491 76.3939 87.3305 76.6837 87.7131 77.0739C88.0956 77.4602 88.2869 77.9583 88.2869 78.5682C88.2869 79.0682 88.143 79.5152 87.8551 79.9091C87.571 80.303 87.1733 80.6136 86.6619 80.8409C86.1506 81.0682 85.5559 81.1818 84.8778 81.1818C83.9877 81.1818 83.2509 80.9886 82.6676 80.6023C82.0843 80.2159 81.715 79.6515 81.5597 78.9091L82.8324 78.5909C82.9536 79.0606 83.1828 79.4129 83.5199 79.6477C83.8608 79.8826 84.3059 80 84.8551 80C85.4801 80 85.9763 79.8674 86.3438 79.6023C86.715 79.3333 86.9006 79.0114 86.9006 78.6364C86.9006 78.3333 86.7945 78.0795 86.5824 77.875C86.3703 77.6667 86.0445 77.5114 85.6051 77.4091L84.1506 77.0682C83.3513 76.8788 82.7642 76.5852 82.3892 76.1875C82.018 75.786 81.8324 75.2841 81.8324 74.6818C81.8324 74.1894 81.9706 73.7538 82.2472 73.375C82.5275 72.9962 82.9081 72.6989 83.3892 72.483C83.8741 72.267 84.4233 72.1591 85.0369 72.1591C85.9006 72.1591 86.5786 72.3485 87.071 72.7273C87.5672 73.1061 87.9195 73.6061 88.1278 74.2273ZM94.1009 72.2727V73.4091H89.5781V72.2727H94.1009ZM90.8963 70.1818H92.2372V78.5C92.2372 78.8788 92.2921 79.1629 92.402 79.3523C92.5156 79.5379 92.6596 79.6629 92.8338 79.7273C93.0118 79.7879 93.1993 79.8182 93.3963 79.8182C93.544 79.8182 93.6652 79.8106 93.7599 79.7955C93.8546 79.7765 93.9304 79.7614 93.9872 79.75L94.2599 80.9545C94.169 80.9886 94.0421 81.0227 93.8793 81.0568C93.7164 81.0947 93.5099 81.1136 93.2599 81.1136C92.8812 81.1136 92.5099 81.0322 92.1463 80.8693C91.7865 80.7064 91.4872 80.4583 91.2486 80.125C91.0137 79.7917 90.8963 79.3712 90.8963 78.8636V70.1818ZM98.6861 81.2045C98.133 81.2045 97.6312 81.1004 97.1804 80.892C96.7296 80.6799 96.3717 80.375 96.1065 79.9773C95.8414 79.5758 95.7088 79.0909 95.7088 78.5227C95.7088 78.0227 95.8073 77.6174 96.0043 77.3068C96.2012 76.9924 96.4645 76.7462 96.794 76.5682C97.1236 76.3902 97.4872 76.2576 97.8849 76.1705C98.2865 76.0795 98.6899 76.0076 99.0952 75.9545C99.6255 75.8864 100.055 75.8352 100.385 75.8011C100.718 75.7633 100.961 75.7008 101.112 75.6136C101.268 75.5265 101.345 75.375 101.345 75.1591V75.1136C101.345 74.553 101.192 74.1174 100.885 73.8068C100.582 73.4962 100.122 73.3409 99.5043 73.3409C98.8641 73.3409 98.3622 73.4811 97.9986 73.7614C97.6349 74.0417 97.3793 74.3409 97.2315 74.6591L95.9588 74.2045C96.1861 73.6742 96.4891 73.2614 96.8679 72.9659C97.2505 72.6667 97.6671 72.4583 98.1179 72.3409C98.5724 72.2197 99.0194 72.1591 99.4588 72.1591C99.7391 72.1591 100.061 72.1932 100.425 72.2614C100.792 72.3258 101.146 72.4602 101.487 72.6648C101.832 72.8693 102.118 73.178 102.345 73.5909C102.572 74.0038 102.686 74.5568 102.686 75.25V81H101.345V79.8182H101.277C101.186 80.0076 101.035 80.2102 100.822 80.4261C100.61 80.642 100.328 80.8258 99.9759 80.9773C99.6236 81.1288 99.1937 81.2045 98.6861 81.2045ZM98.8906 80C99.4209 80 99.8679 79.8958 100.232 79.6875C100.599 79.4792 100.875 79.2102 101.061 78.8807C101.25 78.5511 101.345 78.2045 101.345 77.8409V76.6136C101.288 76.6818 101.163 76.7443 100.97 76.8011C100.781 76.8542 100.561 76.9015 100.311 76.9432C100.065 76.9811 99.8243 77.0152 99.5895 77.0455C99.3584 77.072 99.1709 77.0947 99.027 77.1136C98.6785 77.1591 98.3527 77.233 98.0497 77.3352C97.7505 77.4337 97.508 77.5833 97.3224 77.7841C97.1406 77.9811 97.0497 78.25 97.0497 78.5909C97.0497 79.0568 97.2221 79.4091 97.5668 79.6477C97.9152 79.8826 98.3565 80 98.8906 80ZM106.474 69.3636V81H105.134V69.3636H106.474ZM113.612 81V69.3636H117.68C118.491 69.3636 119.16 69.5038 119.686 69.7841C120.213 70.0606 120.605 70.4337 120.862 70.9034C121.12 71.3693 121.249 71.8864 121.249 72.4545C121.249 72.9545 121.16 73.3674 120.982 73.6932C120.807 74.0189 120.576 74.2765 120.288 74.4659C120.004 74.6553 119.696 74.7955 119.362 74.8864V75C119.718 75.0227 120.076 75.1477 120.436 75.375C120.796 75.6023 121.097 75.928 121.339 76.3523C121.582 76.7765 121.703 77.2955 121.703 77.9091C121.703 78.4924 121.571 79.017 121.305 79.483C121.04 79.9489 120.622 80.3182 120.05 80.5909C119.478 80.8636 118.733 81 117.817 81H113.612ZM115.021 79.75H117.817C118.737 79.75 119.391 79.572 119.777 79.2159C120.167 78.8561 120.362 78.4205 120.362 77.9091C120.362 77.5152 120.262 77.1515 120.061 76.8182C119.86 76.4811 119.574 76.2121 119.203 76.0114C118.832 75.8068 118.393 75.7045 117.885 75.7045H115.021V79.75ZM115.021 74.4773H117.635C118.059 74.4773 118.442 74.3939 118.783 74.2273C119.127 74.0606 119.4 73.8258 119.601 73.5227C119.805 73.2197 119.908 72.8636 119.908 72.4545C119.908 71.9432 119.73 71.5095 119.374 71.1534C119.018 70.7936 118.453 70.6136 117.68 70.6136H115.021V74.4773ZM126.405 81.2045C125.852 81.2045 125.35 81.1004 124.899 80.892C124.448 80.6799 124.09 80.375 123.825 79.9773C123.56 79.5758 123.428 79.0909 123.428 78.5227C123.428 78.0227 123.526 77.6174 123.723 77.3068C123.92 76.9924 124.183 76.7462 124.513 76.5682C124.842 76.3902 125.206 76.2576 125.604 76.1705C126.005 76.0795 126.409 76.0076 126.814 75.9545C127.344 75.8864 127.774 75.8352 128.104 75.8011C128.437 75.7633 128.679 75.7008 128.831 75.6136C128.986 75.5265 129.064 75.375 129.064 75.1591V75.1136C129.064 74.553 128.911 74.1174 128.604 73.8068C128.301 73.4962 127.84 73.3409 127.223 73.3409C126.583 73.3409 126.081 73.4811 125.717 73.7614C125.354 74.0417 125.098 74.3409 124.95 74.6591L123.678 74.2045C123.905 73.6742 124.208 73.2614 124.587 72.9659C124.969 72.6667 125.386 72.4583 125.837 72.3409C126.291 72.2197 126.738 72.1591 127.178 72.1591C127.458 72.1591 127.78 72.1932 128.143 72.2614C128.511 72.3258 128.865 72.4602 129.206 72.6648C129.551 72.8693 129.837 73.178 130.064 73.5909C130.291 74.0038 130.405 74.5568 130.405 75.25V81H129.064V79.8182H128.996C128.905 80.0076 128.753 80.2102 128.541 80.4261C128.329 80.642 128.047 80.8258 127.695 80.9773C127.342 81.1288 126.912 81.2045 126.405 81.2045ZM126.609 80C127.14 80 127.587 79.8958 127.95 79.6875C128.318 79.4792 128.594 79.2102 128.78 78.8807C128.969 78.5511 129.064 78.2045 129.064 77.8409V76.6136C129.007 76.6818 128.882 76.7443 128.689 76.8011C128.5 76.8542 128.28 76.9015 128.03 76.9432C127.784 76.9811 127.543 77.0152 127.308 77.0455C127.077 77.072 126.89 77.0947 126.746 77.1136C126.397 77.1591 126.071 77.233 125.768 77.3352C125.469 77.4337 125.227 77.5833 125.041 77.7841C124.859 77.9811 124.768 78.25 124.768 78.5909C124.768 79.0568 124.941 79.4091 125.286 79.6477C125.634 79.8826 126.075 80 126.609 80ZM134.193 69.3636V81H132.852V69.3636H134.193ZM137.99 69.3636V81H136.649V69.3636H137.99ZM146.923 81L144.264 72.2727H145.673L147.56 78.9545H147.651L149.514 72.2727H150.946L152.787 78.9318H152.878L154.764 72.2727H156.173L153.514 81H152.196L150.287 74.2955H150.151L148.241 81H146.923ZM157.946 81V72.2727H159.287V81H157.946ZM158.628 70.8182C158.366 70.8182 158.141 70.7292 157.952 70.5511C157.766 70.3731 157.673 70.1591 157.673 69.9091C157.673 69.6591 157.766 69.4451 157.952 69.267C158.141 69.089 158.366 69 158.628 69C158.889 69 159.113 69.089 159.298 69.267C159.488 69.4451 159.582 69.6591 159.582 69.9091C159.582 70.1591 159.488 70.3731 159.298 70.5511C159.113 70.7292 158.889 70.8182 158.628 70.8182ZM163.084 69.3636V81H161.743V69.3636H163.084ZM166.881 69.3636V81H165.54V69.3636H166.881ZM180.018 74.2273L178.814 74.5682C178.738 74.3674 178.626 74.1723 178.479 73.983C178.335 73.7898 178.138 73.6307 177.888 73.5057C177.638 73.3807 177.318 73.3182 176.928 73.3182C176.393 73.3182 175.948 73.4413 175.592 73.6875C175.24 73.9299 175.064 74.2386 175.064 74.6136C175.064 74.947 175.185 75.2102 175.428 75.4034C175.67 75.5966 176.049 75.7576 176.564 75.8864L177.859 76.2045C178.64 76.3939 179.221 76.6837 179.604 77.0739C179.986 77.4602 180.178 77.9583 180.178 78.5682C180.178 79.0682 180.034 79.5152 179.746 79.9091C179.462 80.303 179.064 80.6136 178.553 80.8409C178.041 81.0682 177.446 81.1818 176.768 81.1818C175.878 81.1818 175.142 80.9886 174.558 80.6023C173.975 80.2159 173.606 79.6515 173.45 78.9091L174.723 78.5909C174.844 79.0606 175.073 79.4129 175.411 79.6477C175.751 79.8826 176.196 80 176.746 80C177.371 80 177.867 79.8674 178.234 79.6023C178.606 79.3333 178.791 79.0114 178.791 78.6364C178.791 78.3333 178.685 78.0795 178.473 77.875C178.261 77.6667 177.935 77.5114 177.496 77.4091L176.041 77.0682C175.242 76.8788 174.655 76.5852 174.28 76.1875C173.909 75.786 173.723 75.2841 173.723 74.6818C173.723 74.1894 173.861 73.7538 174.138 73.375C174.418 72.9962 174.799 72.6989 175.28 72.483C175.765 72.267 176.314 72.1591 176.928 72.1591C177.791 72.1591 178.469 72.3485 178.962 72.7273C179.458 73.1061 179.81 73.6061 180.018 74.2273ZM183.537 75.75V81H182.196V69.3636H183.537V73.6364H183.651C183.855 73.1856 184.162 72.8277 184.571 72.5625C184.984 72.2936 185.533 72.1591 186.219 72.1591C186.813 72.1591 187.334 72.2784 187.781 72.517C188.228 72.7519 188.575 73.1136 188.821 73.6023C189.071 74.0871 189.196 74.7045 189.196 75.4545V81H187.855V75.5455C187.855 74.8523 187.675 74.3163 187.315 73.9375C186.959 73.5549 186.465 73.3636 185.832 73.3636C185.393 73.3636 184.999 73.4564 184.651 73.642C184.306 73.8277 184.033 74.0985 183.832 74.4545C183.635 74.8106 183.537 75.2424 183.537 75.75ZM195.195 81.1818C194.407 81.1818 193.715 80.9943 193.121 80.6193C192.53 80.2443 192.068 79.7197 191.734 79.0455C191.405 78.3712 191.24 77.5833 191.24 76.6818C191.24 75.7727 191.405 74.9792 191.734 74.3011C192.068 73.6231 192.53 73.0966 193.121 72.7216C193.715 72.3466 194.407 72.1591 195.195 72.1591C195.982 72.1591 196.672 72.3466 197.263 72.7216C197.857 73.0966 198.32 73.6231 198.649 74.3011C198.982 74.9792 199.149 75.7727 199.149 76.6818C199.149 77.5833 198.982 78.3712 198.649 79.0455C198.32 79.7197 197.857 80.2443 197.263 80.6193C196.672 80.9943 195.982 81.1818 195.195 81.1818ZM195.195 79.9773C195.793 79.9773 196.286 79.8239 196.672 79.517C197.058 79.2102 197.344 78.8068 197.53 78.3068C197.715 77.8068 197.808 77.2652 197.808 76.6818C197.808 76.0985 197.715 75.5549 197.53 75.0511C197.344 74.5473 197.058 74.1402 196.672 73.8295C196.286 73.5189 195.793 73.3636 195.195 73.3636C194.596 73.3636 194.104 73.5189 193.717 73.8295C193.331 74.1402 193.045 74.5473 192.859 75.0511C192.674 75.5549 192.581 76.0985 192.581 76.6818C192.581 77.2652 192.674 77.8068 192.859 78.3068C193.045 78.8068 193.331 79.2102 193.717 79.517C194.104 79.8239 194.596 79.9773 195.195 79.9773ZM202.876 81L200.217 72.2727H201.626L203.513 78.9545H203.604L205.467 72.2727H206.899L208.74 78.9318H208.831L210.717 72.2727H212.126L209.467 81H208.149L206.24 74.2955H206.104L204.195 81H202.876ZM68.4972 103.273C68.2699 103.273 68.0672 103.254 67.8892 103.216C67.7112 103.182 67.5881 103.148 67.5199 103.114L67.8608 101.932C68.1866 102.015 68.4744 102.045 68.7244 102.023C68.9744 102 69.196 101.888 69.3892 101.688C69.5862 101.491 69.7661 101.17 69.929 100.727L70.179 100.045L66.9517 91.2727H68.4062L70.8153 98.2273H70.9062L73.3153 91.2727H74.7699L71.0653 101.273C70.8987 101.723 70.6922 102.097 70.446 102.392C70.1998 102.691 69.9138 102.913 69.5881 103.057C69.2661 103.201 68.9025 103.273 68.4972 103.273ZM79.7727 100.182C78.9848 100.182 78.2936 99.9943 77.6989 99.6193C77.108 99.2443 76.6458 98.7197 76.3125 98.0455C75.983 97.3712 75.8182 96.5833 75.8182 95.6818C75.8182 94.7727 75.983 93.9792 76.3125 93.3011C76.6458 92.6231 77.108 92.0966 77.6989 91.7216C78.2936 91.3466 78.9848 91.1591 79.7727 91.1591C80.5606 91.1591 81.25 91.3466 81.8409 91.7216C82.4356 92.0966 82.8977 92.6231 83.2273 93.3011C83.5606 93.9792 83.7273 94.7727 83.7273 95.6818C83.7273 96.5833 83.5606 97.3712 83.2273 98.0455C82.8977 98.7197 82.4356 99.2443 81.8409 99.6193C81.25 99.9943 80.5606 100.182 79.7727 100.182ZM79.7727 98.9773C80.3712 98.9773 80.8636 98.8239 81.25 98.517C81.6364 98.2102 81.9223 97.8068 82.108 97.3068C82.2936 96.8068 82.3864 96.2652 82.3864 95.6818C82.3864 95.0985 82.2936 94.5549 82.108 94.0511C81.9223 93.5473 81.6364 93.1402 81.25 92.8295C80.8636 92.5189 80.3712 92.3636 79.7727 92.3636C79.1742 92.3636 78.6818 92.5189 78.2955 92.8295C77.9091 93.1402 77.6231 93.5473 77.4375 94.0511C77.2519 94.5549 77.1591 95.0985 77.1591 95.6818C77.1591 96.2652 77.2519 96.8068 77.4375 97.3068C77.6231 97.8068 77.9091 98.2102 78.2955 98.517C78.6818 98.8239 79.1742 98.9773 79.7727 98.9773ZM91.2741 96.4318V91.2727H92.6151V100H91.2741V98.5227H91.1832C90.9787 98.9659 90.6605 99.3428 90.2287 99.6534C89.7969 99.9602 89.2514 100.114 88.5923 100.114C88.0469 100.114 87.562 99.9943 87.1378 99.7557C86.7135 99.5133 86.3802 99.1496 86.1378 98.6648C85.8954 98.1761 85.7741 97.5606 85.7741 96.8182V91.2727H87.1151V96.7273C87.1151 97.3636 87.2931 97.8712 87.6491 98.25C88.009 98.6288 88.4673 98.8182 89.0241 98.8182C89.3575 98.8182 89.6965 98.733 90.0412 98.5625C90.3897 98.392 90.6813 98.1307 90.9162 97.7784C91.1548 97.4261 91.2741 96.9773 91.2741 96.4318ZM103.366 91.2727V92.4091H98.8438V91.2727H103.366ZM100.162 89.1818H101.503V97.5C101.503 97.8788 101.558 98.1629 101.668 98.3523C101.781 98.5379 101.925 98.6629 102.099 98.7273C102.277 98.7879 102.465 98.8182 102.662 98.8182C102.81 98.8182 102.931 98.8106 103.026 98.7955C103.12 98.7765 103.196 98.7614 103.253 98.75L103.526 99.9545C103.435 99.9886 103.308 100.023 103.145 100.057C102.982 100.095 102.776 100.114 102.526 100.114C102.147 100.114 101.776 100.032 101.412 99.8693C101.052 99.7064 100.753 99.4583 100.514 99.125C100.279 98.7917 100.162 98.3712 100.162 97.8636V89.1818ZM106.912 94.75V100H105.571V88.3636H106.912V92.6364H107.026C107.23 92.1856 107.537 91.8277 107.946 91.5625C108.359 91.2936 108.908 91.1591 109.594 91.1591C110.188 91.1591 110.709 91.2784 111.156 91.517C111.603 91.7519 111.95 92.1136 112.196 92.6023C112.446 93.0871 112.571 93.7045 112.571 94.4545V100H111.23V94.5455C111.23 93.8523 111.05 93.3163 110.69 92.9375C110.334 92.5549 109.84 92.3636 109.207 92.3636C108.768 92.3636 108.374 92.4564 108.026 92.642C107.681 92.8277 107.408 93.0985 107.207 93.4545C107.01 93.8106 106.912 94.2424 106.912 94.75ZM118.683 100.182C117.842 100.182 117.117 99.9962 116.507 99.625C115.901 99.25 115.433 98.7273 115.104 98.0568C114.778 97.3826 114.615 96.5985 114.615 95.7045C114.615 94.8106 114.778 94.0227 115.104 93.3409C115.433 92.6553 115.892 92.1212 116.479 91.7386C117.07 91.3523 117.759 91.1591 118.547 91.1591C119.001 91.1591 119.45 91.2348 119.893 91.3864C120.337 91.5379 120.74 91.7841 121.104 92.125C121.467 92.4621 121.757 92.9091 121.973 93.4659C122.189 94.0227 122.297 94.7083 122.297 95.5227V96.0909H115.57V94.9318H120.933C120.933 94.4394 120.835 94 120.638 93.6136C120.445 93.2273 120.168 92.9223 119.808 92.6989C119.452 92.4754 119.032 92.3636 118.547 92.3636C118.013 92.3636 117.551 92.4962 117.161 92.7614C116.774 93.0227 116.477 93.3636 116.268 93.7841C116.06 94.2045 115.956 94.6553 115.956 95.1364V95.9091C115.956 96.5682 116.07 97.1269 116.297 97.5852C116.528 98.0398 116.848 98.3864 117.257 98.625C117.666 98.8598 118.142 98.9773 118.683 98.9773C119.036 98.9773 119.354 98.928 119.638 98.8295C119.926 98.7273 120.174 98.5758 120.382 98.375C120.59 98.1705 120.751 97.9167 120.865 97.6136L122.161 97.9773C122.024 98.4167 121.795 98.803 121.473 99.1364C121.151 99.4659 120.753 99.7235 120.28 99.9091C119.806 100.091 119.274 100.182 118.683 100.182ZM132.723 91.2727V92.4091H128.018V91.2727H132.723ZM129.428 100V90.0682C129.428 89.5682 129.545 89.1515 129.78 88.8182C130.015 88.4848 130.32 88.2348 130.695 88.0682C131.07 87.9015 131.465 87.8182 131.882 87.8182C132.212 87.8182 132.481 87.8447 132.689 87.8977C132.897 87.9508 133.053 88 133.155 88.0455L132.768 89.2045C132.7 89.1818 132.606 89.1534 132.484 89.1193C132.367 89.0852 132.212 89.0682 132.018 89.0682C131.575 89.0682 131.255 89.1799 131.058 89.4034C130.865 89.6269 130.768 89.9545 130.768 90.3864V100H129.428ZM140.102 96.4318V91.2727H141.443V100H140.102V98.5227H140.011C139.807 98.9659 139.489 99.3428 139.057 99.6534C138.625 99.9602 138.08 100.114 137.42 100.114C136.875 100.114 136.39 99.9943 135.966 99.7557C135.542 99.5133 135.208 99.1496 134.966 98.6648C134.723 98.1761 134.602 97.5606 134.602 96.8182V91.2727H135.943V96.7273C135.943 97.3636 136.121 97.8712 136.477 98.25C136.837 98.6288 137.295 98.8182 137.852 98.8182C138.186 98.8182 138.525 98.733 138.869 98.5625C139.218 98.392 139.509 98.1307 139.744 97.7784C139.983 97.4261 140.102 96.9773 140.102 96.4318ZM147.695 91.2727V92.4091H143.172V91.2727H147.695ZM144.49 89.1818H145.831V97.5C145.831 97.8788 145.886 98.1629 145.996 98.3523C146.109 98.5379 146.253 98.6629 146.428 98.7273C146.606 98.7879 146.793 98.8182 146.99 98.8182C147.138 98.8182 147.259 98.8106 147.354 98.7955C147.448 98.7765 147.524 98.7614 147.581 98.75L147.854 99.9545C147.763 99.9886 147.636 100.023 147.473 100.057C147.31 100.095 147.104 100.114 146.854 100.114C146.475 100.114 146.104 100.032 145.74 99.8693C145.38 99.7064 145.081 99.4583 144.842 99.125C144.607 98.7917 144.49 98.3712 144.49 97.8636V89.1818ZM155.212 96.4318V91.2727H156.553V100H155.212V98.5227H155.121C154.916 98.9659 154.598 99.3428 154.166 99.6534C153.734 99.9602 153.189 100.114 152.53 100.114C151.984 100.114 151.5 99.9943 151.075 99.7557C150.651 99.5133 150.318 99.1496 150.075 98.6648C149.833 98.1761 149.712 97.5606 149.712 96.8182V91.2727H151.053V96.7273C151.053 97.3636 151.231 97.8712 151.587 98.25C151.946 98.6288 152.405 98.8182 152.962 98.8182C153.295 98.8182 153.634 98.733 153.979 98.5625C154.327 98.392 154.619 98.1307 154.854 97.7784C155.092 97.4261 155.212 96.9773 155.212 96.4318ZM159.009 100V91.2727H160.304V92.5909H160.395C160.554 92.1591 160.842 91.8087 161.259 91.5398C161.675 91.2708 162.145 91.1364 162.668 91.1364C162.766 91.1364 162.889 91.1383 163.037 91.142C163.185 91.1458 163.296 91.1515 163.372 91.1591V92.5227C163.327 92.5114 163.223 92.4943 163.06 92.4716C162.901 92.4451 162.732 92.4318 162.554 92.4318C162.13 92.4318 161.751 92.5208 161.418 92.6989C161.088 92.8731 160.827 93.1155 160.634 93.4261C160.444 93.733 160.349 94.0833 160.349 94.4773V100H159.009ZM168.355 100.182C167.514 100.182 166.789 99.9962 166.179 99.625C165.573 99.25 165.105 98.7273 164.776 98.0568C164.45 97.3826 164.287 96.5985 164.287 95.7045C164.287 94.8106 164.45 94.0227 164.776 93.3409C165.105 92.6553 165.563 92.1212 166.151 91.7386C166.741 91.3523 167.431 91.1591 168.219 91.1591C168.673 91.1591 169.122 91.2348 169.565 91.3864C170.009 91.5379 170.412 91.7841 170.776 92.125C171.139 92.4621 171.429 92.9091 171.645 93.4659C171.861 94.0227 171.969 94.7083 171.969 95.5227V96.0909H165.241V94.9318H170.605C170.605 94.4394 170.507 94 170.31 93.6136C170.116 93.2273 169.84 92.9223 169.48 92.6989C169.124 92.4754 168.704 92.3636 168.219 92.3636C167.685 92.3636 167.223 92.4962 166.832 92.7614C166.446 93.0227 166.149 93.3636 165.94 93.7841C165.732 94.2045 165.628 94.6553 165.628 95.1364V95.9091C165.628 96.5682 165.741 97.1269 165.969 97.5852C166.2 98.0398 166.52 98.3864 166.929 98.625C167.338 98.8598 167.813 98.9773 168.355 98.9773C168.707 98.9773 169.026 98.928 169.31 98.8295C169.598 98.7273 169.846 98.5758 170.054 98.375C170.262 98.1705 170.423 97.9167 170.537 97.6136L171.832 97.9773C171.696 98.4167 171.467 98.803 171.145 99.1364C170.823 99.4659 170.425 99.7235 169.952 99.9091C169.478 100.091 168.946 100.182 168.355 100.182ZM181.077 100.205C180.524 100.205 180.022 100.1 179.571 99.892C179.12 99.6799 178.762 99.375 178.497 98.9773C178.232 98.5758 178.099 98.0909 178.099 97.5227C178.099 97.0227 178.198 96.6174 178.395 96.3068C178.592 95.9924 178.855 95.7462 179.185 95.5682C179.514 95.3902 179.878 95.2576 180.276 95.1705C180.677 95.0795 181.08 95.0076 181.486 94.9545C182.016 94.8864 182.446 94.8352 182.776 94.8011C183.109 94.7633 183.351 94.7008 183.503 94.6136C183.658 94.5265 183.736 94.375 183.736 94.1591V94.1136C183.736 93.553 183.582 93.1174 183.276 92.8068C182.973 92.4962 182.512 92.3409 181.895 92.3409C181.255 92.3409 180.753 92.4811 180.389 92.7614C180.026 93.0417 179.77 93.3409 179.622 93.6591L178.349 93.2045C178.577 92.6742 178.88 92.2614 179.259 91.9659C179.641 91.6667 180.058 91.4583 180.509 91.3409C180.963 91.2197 181.41 91.1591 181.849 91.1591C182.13 91.1591 182.452 91.1932 182.815 91.2614C183.183 91.3258 183.537 91.4602 183.878 91.6648C184.223 91.8693 184.509 92.178 184.736 92.5909C184.963 93.0038 185.077 93.5568 185.077 94.25V100H183.736V98.8182H183.668C183.577 99.0076 183.425 99.2102 183.213 99.4261C183.001 99.642 182.719 99.8258 182.366 99.9773C182.014 100.129 181.584 100.205 181.077 100.205ZM181.281 99C181.812 99 182.259 98.8958 182.622 98.6875C182.99 98.4792 183.266 98.2102 183.452 97.8807C183.641 97.5511 183.736 97.2045 183.736 96.8409V95.6136C183.679 95.6818 183.554 95.7443 183.361 95.8011C183.171 95.8542 182.952 95.9015 182.702 95.9432C182.455 95.9811 182.215 96.0152 181.98 96.0455C181.749 96.072 181.562 96.0947 181.418 96.1136C181.069 96.1591 180.743 96.233 180.44 96.3352C180.141 96.4337 179.899 96.5833 179.713 96.7841C179.531 96.9811 179.44 97.25 179.44 97.5909C179.44 98.0568 179.613 98.4091 179.957 98.6477C180.306 98.8826 180.747 99 181.281 99ZM188.865 94.75V100H187.524V91.2727H188.82V92.6364H188.933C189.138 92.1932 189.448 91.8371 189.865 91.5682C190.282 91.2955 190.82 91.1591 191.479 91.1591C192.07 91.1591 192.587 91.2803 193.03 91.5227C193.473 91.7614 193.818 92.125 194.064 92.6136C194.31 93.0985 194.433 93.7121 194.433 94.4545V100H193.092V94.5455C193.092 93.8598 192.914 93.3258 192.558 92.9432C192.202 92.5568 191.714 92.3636 191.092 92.3636C190.664 92.3636 190.282 92.4564 189.945 92.642C189.611 92.8277 189.348 93.0985 189.155 93.4545C188.962 93.8106 188.865 94.2424 188.865 94.75ZM200.179 100.182C199.452 100.182 198.81 99.9981 198.253 99.6307C197.696 99.2595 197.26 98.7367 196.946 98.0625C196.632 97.3845 196.474 96.5833 196.474 95.6591C196.474 94.7424 196.632 93.947 196.946 93.2727C197.26 92.5985 197.698 92.0777 198.259 91.7102C198.819 91.3428 199.467 91.1591 200.202 91.1591C200.77 91.1591 201.219 91.2538 201.548 91.4432C201.882 91.6288 202.135 91.8409 202.31 92.0795C202.488 92.3144 202.626 92.5076 202.724 92.6591H202.838V88.3636H204.179V100H202.884V98.6591H202.724C202.626 98.8182 202.486 99.0189 202.304 99.2614C202.122 99.5 201.863 99.714 201.526 99.9034C201.188 100.089 200.74 100.182 200.179 100.182ZM200.361 98.9773C200.899 98.9773 201.353 98.8371 201.724 98.5568C202.096 98.2727 202.378 97.8807 202.571 97.3807C202.764 96.8769 202.861 96.2955 202.861 95.6364C202.861 94.9848 202.766 94.4148 202.577 93.9261C202.387 93.4337 202.107 93.0511 201.736 92.7784C201.365 92.5019 200.906 92.3636 200.361 92.3636C199.793 92.3636 199.319 92.5095 198.94 92.8011C198.565 93.089 198.283 93.4811 198.094 93.9773C197.908 94.4697 197.815 95.0227 197.815 95.6364C197.815 96.2576 197.91 96.822 198.099 97.3295C198.293 97.8333 198.577 98.2348 198.952 98.5341C199.33 98.8295 199.8 98.9773 200.361 98.9773ZM48.2763 119V107.364H49.6172V111.659H49.7308C49.8293 111.508 49.9657 111.314 50.1399 111.08C50.3179 110.841 50.5717 110.629 50.9013 110.443C51.2346 110.254 51.6854 110.159 52.2536 110.159C52.9884 110.159 53.6361 110.343 54.1967 110.71C54.7573 111.078 55.1948 111.598 55.5092 112.273C55.8236 112.947 55.9808 113.742 55.9808 114.659C55.9808 115.583 55.8236 116.384 55.5092 117.062C55.1948 117.737 54.7592 118.259 54.2024 118.631C53.6456 118.998 53.0036 119.182 52.2763 119.182C51.7157 119.182 51.2668 119.089 50.9297 118.903C50.5926 118.714 50.3331 118.5 50.1513 118.261C49.9695 118.019 49.8293 117.818 49.7308 117.659H49.5717V119H48.2763ZM49.5945 114.636C49.5945 115.295 49.6911 115.877 49.8842 116.381C50.0774 116.881 50.3596 117.273 50.7308 117.557C51.102 117.837 51.5566 117.977 52.0945 117.977C52.6551 117.977 53.1229 117.83 53.4979 117.534C53.8767 117.235 54.1607 116.833 54.3501 116.33C54.5433 115.822 54.6399 115.258 54.6399 114.636C54.6399 114.023 54.5452 113.47 54.3558 112.977C54.1702 112.481 53.888 112.089 53.5092 111.801C53.1342 111.509 52.6626 111.364 52.0945 111.364C51.549 111.364 51.0907 111.502 50.7195 111.778C50.3482 112.051 50.0679 112.434 49.8786 112.926C49.6892 113.415 49.5945 113.985 49.5945 114.636ZM58.032 119V110.273H59.3274V111.591H59.4183C59.5774 111.159 59.8653 110.809 60.282 110.54C60.6986 110.271 61.1683 110.136 61.6911 110.136C61.7895 110.136 61.9126 110.138 62.0604 110.142C62.2081 110.146 62.3198 110.152 62.3956 110.159V111.523C62.3501 111.511 62.246 111.494 62.0831 111.472C61.924 111.445 61.7554 111.432 61.5774 111.432C61.1532 111.432 60.7744 111.521 60.4411 111.699C60.1115 111.873 59.8501 112.116 59.657 112.426C59.4676 112.733 59.3729 113.083 59.3729 113.477V119H58.032ZM67.3786 119.182C66.5376 119.182 65.8123 118.996 65.2024 118.625C64.5964 118.25 64.1286 117.727 63.799 117.057C63.4732 116.383 63.3104 115.598 63.3104 114.705C63.3104 113.811 63.4732 113.023 63.799 112.341C64.1286 111.655 64.5869 111.121 65.174 110.739C65.7649 110.352 66.4543 110.159 67.2422 110.159C67.6967 110.159 68.1456 110.235 68.5888 110.386C69.032 110.538 69.4354 110.784 69.799 111.125C70.1626 111.462 70.4524 111.909 70.6683 112.466C70.8842 113.023 70.9922 113.708 70.9922 114.523V115.091H64.2649V113.932H69.6286C69.6286 113.439 69.5301 113 69.3331 112.614C69.1399 112.227 68.8634 111.922 68.5036 111.699C68.1475 111.475 67.727 111.364 67.2422 111.364C66.7081 111.364 66.246 111.496 65.8558 111.761C65.4695 112.023 65.1721 112.364 64.9638 112.784C64.7554 113.205 64.6513 113.655 64.6513 114.136V114.909C64.6513 115.568 64.7649 116.127 64.9922 116.585C65.2232 117.04 65.5433 117.386 65.9524 117.625C66.3615 117.86 66.8369 117.977 67.3786 117.977C67.7308 117.977 68.049 117.928 68.3331 117.83C68.621 117.727 68.8691 117.576 69.0774 117.375C69.2857 117.17 69.4467 116.917 69.5604 116.614L70.8558 116.977C70.7195 117.417 70.4903 117.803 70.1683 118.136C69.8464 118.466 69.4486 118.723 68.9751 118.909C68.5017 119.091 67.9695 119.182 67.3786 119.182ZM75.6001 119.205C75.0471 119.205 74.5452 119.1 74.0945 118.892C73.6437 118.68 73.2857 118.375 73.0206 117.977C72.7554 117.576 72.6229 117.091 72.6229 116.523C72.6229 116.023 72.7214 115.617 72.9183 115.307C73.1153 114.992 73.3786 114.746 73.7081 114.568C74.0376 114.39 74.4013 114.258 74.799 114.17C75.2005 114.08 75.6039 114.008 76.0092 113.955C76.5395 113.886 76.9695 113.835 77.299 113.801C77.6323 113.763 77.8748 113.701 78.0263 113.614C78.1816 113.527 78.2592 113.375 78.2592 113.159V113.114C78.2592 112.553 78.1058 112.117 77.799 111.807C77.496 111.496 77.0357 111.341 76.4183 111.341C75.7782 111.341 75.2763 111.481 74.9126 111.761C74.549 112.042 74.2933 112.341 74.1456 112.659L72.8729 112.205C73.1001 111.674 73.4032 111.261 73.782 110.966C74.1645 110.667 74.5812 110.458 75.032 110.341C75.4865 110.22 75.9335 110.159 76.3729 110.159C76.6532 110.159 76.9751 110.193 77.3388 110.261C77.7062 110.326 78.0604 110.46 78.4013 110.665C78.746 110.869 79.032 111.178 79.2592 111.591C79.4865 112.004 79.6001 112.557 79.6001 113.25V119H78.2592V117.818H78.1911C78.1001 118.008 77.9486 118.21 77.7365 118.426C77.5244 118.642 77.2422 118.826 76.8899 118.977C76.5376 119.129 76.1077 119.205 75.6001 119.205ZM75.8047 118C76.335 118 76.782 117.896 77.1456 117.688C77.513 117.479 77.7895 117.21 77.9751 116.881C78.1645 116.551 78.2592 116.205 78.2592 115.841V114.614C78.2024 114.682 78.0774 114.744 77.8842 114.801C77.6948 114.854 77.4751 114.902 77.2251 114.943C76.9789 114.981 76.7384 115.015 76.5036 115.045C76.2725 115.072 76.085 115.095 75.9411 115.114C75.5926 115.159 75.2668 115.233 74.9638 115.335C74.6645 115.434 74.4221 115.583 74.2365 115.784C74.0547 115.981 73.9638 116.25 73.9638 116.591C73.9638 117.057 74.1361 117.409 74.4808 117.648C74.8293 117.883 75.2706 118 75.8047 118ZM83.2976 115.818L83.2749 114.159H83.5476L87.3658 110.273H89.0249L84.9567 114.386H84.843L83.2976 115.818ZM82.0476 119V107.364H83.3885V119H82.0476ZM87.593 119L84.1839 114.682L85.1385 113.75L89.2976 119H87.593ZM97.8189 119.205C97.2659 119.205 96.764 119.1 96.3132 118.892C95.8625 118.68 95.5045 118.375 95.2393 117.977C94.9742 117.576 94.8416 117.091 94.8416 116.523C94.8416 116.023 94.9401 115.617 95.1371 115.307C95.334 114.992 95.5973 114.746 95.9268 114.568C96.2564 114.39 96.62 114.258 97.0178 114.17C97.4193 114.08 97.8227 114.008 98.228 113.955C98.7583 113.886 99.1882 113.835 99.5178 113.801C99.8511 113.763 100.094 113.701 100.245 113.614C100.4 113.527 100.478 113.375 100.478 113.159V113.114C100.478 112.553 100.325 112.117 100.018 111.807C99.7147 111.496 99.2545 111.341 98.6371 111.341C97.9969 111.341 97.495 111.481 97.1314 111.761C96.7678 112.042 96.5121 112.341 96.3643 112.659L95.0916 112.205C95.3189 111.674 95.6219 111.261 96.0007 110.966C96.3833 110.667 96.8 110.458 97.2507 110.341C97.7053 110.22 98.1522 110.159 98.5916 110.159C98.8719 110.159 99.1939 110.193 99.5575 110.261C99.925 110.326 100.279 110.46 100.62 110.665C100.965 110.869 101.251 111.178 101.478 111.591C101.705 112.004 101.819 112.557 101.819 113.25V119H100.478V117.818H100.41C100.319 118.008 100.167 118.21 99.9553 118.426C99.7431 118.642 99.4609 118.826 99.1087 118.977C98.7564 119.129 98.3265 119.205 97.8189 119.205ZM98.0234 118C98.5537 118 99.0007 117.896 99.3643 117.688C99.7318 117.479 100.008 117.21 100.194 116.881C100.383 116.551 100.478 116.205 100.478 115.841V114.614C100.421 114.682 100.296 114.744 100.103 114.801C99.9136 114.854 99.6939 114.902 99.4439 114.943C99.1977 114.981 98.9571 115.015 98.7223 115.045C98.4912 115.072 98.3037 115.095 98.1598 115.114C97.8113 115.159 97.4856 115.233 97.1825 115.335C96.8833 115.434 96.6409 115.583 96.4553 115.784C96.2734 115.981 96.1825 116.25 96.1825 116.591C96.1825 117.057 96.3549 117.409 96.6996 117.648C97.0481 117.883 97.4893 118 98.0234 118ZM105.607 113.75V119H104.266V110.273H105.562V111.636H105.675C105.88 111.193 106.191 110.837 106.607 110.568C107.024 110.295 107.562 110.159 108.221 110.159C108.812 110.159 109.329 110.28 109.772 110.523C110.215 110.761 110.56 111.125 110.806 111.614C111.052 112.098 111.175 112.712 111.175 113.455V119H109.835V113.545C109.835 112.86 109.656 112.326 109.3 111.943C108.944 111.557 108.456 111.364 107.835 111.364C107.406 111.364 107.024 111.456 106.687 111.642C106.353 111.828 106.09 112.098 105.897 112.455C105.704 112.811 105.607 113.242 105.607 113.75ZM114.177 122.273C113.95 122.273 113.747 122.254 113.569 122.216C113.391 122.182 113.268 122.148 113.2 122.114L113.54 120.932C113.866 121.015 114.154 121.045 114.404 121.023C114.654 121 114.876 120.888 115.069 120.688C115.266 120.491 115.446 120.17 115.609 119.727L115.859 119.045L112.631 110.273H114.086L116.495 117.227H116.586L118.995 110.273H120.45L116.745 120.273C116.578 120.723 116.372 121.097 116.126 121.392C115.879 121.691 115.594 121.913 115.268 122.057C114.946 122.201 114.582 122.273 114.177 122.273ZM130.379 119.182C129.538 119.182 128.812 118.996 128.202 118.625C127.596 118.25 127.129 117.727 126.799 117.057C126.473 116.383 126.31 115.598 126.31 114.705C126.31 113.811 126.473 113.023 126.799 112.341C127.129 111.655 127.587 111.121 128.174 110.739C128.765 110.352 129.454 110.159 130.242 110.159C130.697 110.159 131.146 110.235 131.589 110.386C132.032 110.538 132.435 110.784 132.799 111.125C133.163 111.462 133.452 111.909 133.668 112.466C133.884 113.023 133.992 113.708 133.992 114.523V115.091H127.265V113.932H132.629C132.629 113.439 132.53 113 132.333 112.614C132.14 112.227 131.863 111.922 131.504 111.699C131.147 111.475 130.727 111.364 130.242 111.364C129.708 111.364 129.246 111.496 128.856 111.761C128.469 112.023 128.172 112.364 127.964 112.784C127.755 113.205 127.651 113.655 127.651 114.136V114.909C127.651 115.568 127.765 116.127 127.992 116.585C128.223 117.04 128.543 117.386 128.952 117.625C129.362 117.86 129.837 117.977 130.379 117.977C130.731 117.977 131.049 117.928 131.333 117.83C131.621 117.727 131.869 117.576 132.077 117.375C132.286 117.17 132.447 116.917 132.56 116.614L133.856 116.977C133.719 117.417 133.49 117.803 133.168 118.136C132.846 118.466 132.449 118.723 131.975 118.909C131.502 119.091 130.969 119.182 130.379 119.182ZM137.373 113.75V119H136.032V110.273H137.327V111.636H137.441C137.646 111.193 137.956 110.837 138.373 110.568C138.79 110.295 139.327 110.159 139.987 110.159C140.577 110.159 141.094 110.28 141.538 110.523C141.981 110.761 142.326 111.125 142.572 111.614C142.818 112.098 142.941 112.712 142.941 113.455V119H141.6V113.545C141.6 112.86 141.422 112.326 141.066 111.943C140.71 111.557 140.221 111.364 139.6 111.364C139.172 111.364 138.79 111.456 138.452 111.642C138.119 111.828 137.856 112.098 137.663 112.455C137.469 112.811 137.373 113.242 137.373 113.75ZM148.937 119.182C148.119 119.182 147.414 118.989 146.823 118.602C146.232 118.216 145.778 117.684 145.46 117.006C145.141 116.328 144.982 115.553 144.982 114.682C144.982 113.795 145.145 113.013 145.471 112.335C145.8 111.653 146.259 111.121 146.846 110.739C147.437 110.352 148.126 110.159 148.914 110.159C149.528 110.159 150.081 110.273 150.573 110.5C151.066 110.727 151.469 111.045 151.783 111.455C152.098 111.864 152.293 112.341 152.369 112.886H151.028C150.925 112.489 150.698 112.136 150.346 111.83C149.997 111.519 149.528 111.364 148.937 111.364C148.414 111.364 147.956 111.5 147.562 111.773C147.172 112.042 146.867 112.422 146.647 112.915C146.431 113.403 146.323 113.977 146.323 114.636C146.323 115.311 146.429 115.898 146.641 116.398C146.857 116.898 147.16 117.286 147.55 117.562C147.944 117.839 148.406 117.977 148.937 117.977C149.285 117.977 149.602 117.917 149.886 117.795C150.17 117.674 150.41 117.5 150.607 117.273C150.804 117.045 150.944 116.773 151.028 116.455H152.369C152.293 116.97 152.105 117.434 151.806 117.847C151.511 118.256 151.119 118.581 150.63 118.824C150.145 119.062 149.581 119.182 148.937 119.182ZM155.67 113.75V119H154.329V107.364H155.67V111.636H155.783C155.988 111.186 156.295 110.828 156.704 110.562C157.117 110.294 157.666 110.159 158.352 110.159C158.946 110.159 159.467 110.278 159.914 110.517C160.361 110.752 160.708 111.114 160.954 111.602C161.204 112.087 161.329 112.705 161.329 113.455V119H159.988V113.545C159.988 112.852 159.808 112.316 159.448 111.938C159.092 111.555 158.598 111.364 157.965 111.364C157.526 111.364 157.132 111.456 156.783 111.642C156.439 111.828 156.166 112.098 155.965 112.455C155.768 112.811 155.67 113.242 155.67 113.75ZM166.35 119.205C165.797 119.205 165.295 119.1 164.844 118.892C164.394 118.68 164.036 118.375 163.771 117.977C163.505 117.576 163.373 117.091 163.373 116.523C163.373 116.023 163.471 115.617 163.668 115.307C163.865 114.992 164.129 114.746 164.458 114.568C164.788 114.39 165.151 114.258 165.549 114.17C165.951 114.08 166.354 114.008 166.759 113.955C167.29 113.886 167.719 113.835 168.049 113.801C168.382 113.763 168.625 113.701 168.776 113.614C168.932 113.527 169.009 113.375 169.009 113.159V113.114C169.009 112.553 168.856 112.117 168.549 111.807C168.246 111.496 167.786 111.341 167.168 111.341C166.528 111.341 166.026 111.481 165.663 111.761C165.299 112.042 165.043 112.341 164.896 112.659L163.623 112.205C163.85 111.674 164.153 111.261 164.532 110.966C164.915 110.667 165.331 110.458 165.782 110.341C166.237 110.22 166.683 110.159 167.123 110.159C167.403 110.159 167.725 110.193 168.089 110.261C168.456 110.326 168.81 110.46 169.151 110.665C169.496 110.869 169.782 111.178 170.009 111.591C170.237 112.004 170.35 112.557 170.35 113.25V119H169.009V117.818H168.941C168.85 118.008 168.699 118.21 168.487 118.426C168.274 118.642 167.992 118.826 167.64 118.977C167.288 119.129 166.858 119.205 166.35 119.205ZM166.555 118C167.085 118 167.532 117.896 167.896 117.688C168.263 117.479 168.54 117.21 168.725 116.881C168.915 116.551 169.009 116.205 169.009 115.841V114.614C168.952 114.682 168.827 114.744 168.634 114.801C168.445 114.854 168.225 114.902 167.975 114.943C167.729 114.981 167.488 115.015 167.254 115.045C167.022 115.072 166.835 115.095 166.691 115.114C166.343 115.159 166.017 115.233 165.714 115.335C165.415 115.434 165.172 115.583 164.987 115.784C164.805 115.981 164.714 116.25 164.714 116.591C164.714 117.057 164.886 117.409 165.231 117.648C165.579 117.883 166.021 118 166.555 118ZM174.138 113.75V119H172.798V110.273H174.093V111.636H174.207C174.411 111.193 174.722 110.837 175.138 110.568C175.555 110.295 176.093 110.159 176.752 110.159C177.343 110.159 177.86 110.28 178.303 110.523C178.746 110.761 179.091 111.125 179.337 111.614C179.584 112.098 179.707 112.712 179.707 113.455V119H178.366V113.545C178.366 112.86 178.188 112.326 177.832 111.943C177.476 111.557 176.987 111.364 176.366 111.364C175.938 111.364 175.555 111.456 175.218 111.642C174.885 111.828 174.621 112.098 174.428 112.455C174.235 112.811 174.138 113.242 174.138 113.75ZM185.952 110.273V111.409H181.43V110.273H185.952ZM182.748 108.182H184.089V116.5C184.089 116.879 184.144 117.163 184.254 117.352C184.367 117.538 184.511 117.663 184.685 117.727C184.863 117.788 185.051 117.818 185.248 117.818C185.396 117.818 185.517 117.811 185.612 117.795C185.706 117.777 185.782 117.761 185.839 117.75L186.112 118.955C186.021 118.989 185.894 119.023 185.731 119.057C185.568 119.095 185.362 119.114 185.112 119.114C184.733 119.114 184.362 119.032 183.998 118.869C183.638 118.706 183.339 118.458 183.1 118.125C182.865 117.792 182.748 117.371 182.748 116.864V108.182ZM187.969 119V110.273H189.265V111.636H189.379C189.56 111.17 189.854 110.809 190.259 110.551C190.665 110.29 191.151 110.159 191.719 110.159C192.295 110.159 192.774 110.29 193.157 110.551C193.543 110.809 193.844 111.17 194.06 111.636H194.151C194.375 111.186 194.71 110.828 195.157 110.562C195.604 110.294 196.14 110.159 196.765 110.159C197.545 110.159 198.183 110.403 198.68 110.892C199.176 111.377 199.424 112.133 199.424 113.159V119H198.083V113.159C198.083 112.515 197.907 112.055 197.555 111.778C197.202 111.502 196.788 111.364 196.31 111.364C195.697 111.364 195.221 111.549 194.884 111.92C194.547 112.288 194.379 112.754 194.379 113.318V119H193.015V113.023C193.015 112.527 192.854 112.127 192.532 111.824C192.21 111.517 191.795 111.364 191.288 111.364C190.939 111.364 190.613 111.456 190.31 111.642C190.011 111.828 189.769 112.085 189.583 112.415C189.401 112.741 189.31 113.117 189.31 113.545V119H187.969ZM205.535 119.182C204.694 119.182 203.969 118.996 203.359 118.625C202.753 118.25 202.285 117.727 201.955 117.057C201.629 116.383 201.467 115.598 201.467 114.705C201.467 113.811 201.629 113.023 201.955 112.341C202.285 111.655 202.743 111.121 203.33 110.739C203.921 110.352 204.611 110.159 205.398 110.159C205.853 110.159 206.302 110.235 206.745 110.386C207.188 110.538 207.592 110.784 207.955 111.125C208.319 111.462 208.609 111.909 208.825 112.466C209.04 113.023 209.148 113.708 209.148 114.523V115.091H202.421V113.932H207.785C207.785 113.439 207.686 113 207.489 112.614C207.296 112.227 207.02 111.922 206.66 111.699C206.304 111.475 205.883 111.364 205.398 111.364C204.864 111.364 204.402 111.496 204.012 111.761C203.626 112.023 203.328 112.364 203.12 112.784C202.912 113.205 202.808 113.655 202.808 114.136V114.909C202.808 115.568 202.921 116.127 203.148 116.585C203.379 117.04 203.7 117.386 204.109 117.625C204.518 117.86 204.993 117.977 205.535 117.977C205.887 117.977 206.205 117.928 206.489 117.83C206.777 117.727 207.025 117.576 207.234 117.375C207.442 117.17 207.603 116.917 207.717 116.614L209.012 116.977C208.876 117.417 208.647 117.803 208.325 118.136C208.003 118.466 207.605 118.723 207.131 118.909C206.658 119.091 206.126 119.182 205.535 119.182ZM212.529 113.75V119H211.188V110.273H212.484V111.636H212.597C212.802 111.193 213.112 110.837 213.529 110.568C213.946 110.295 214.484 110.159 215.143 110.159C215.734 110.159 216.251 110.28 216.694 110.523C217.137 110.761 217.482 111.125 217.728 111.614C217.974 112.098 218.097 112.712 218.097 113.455V119H216.756V113.545C216.756 112.86 216.578 112.326 216.222 111.943C215.866 111.557 215.378 111.364 214.756 111.364C214.328 111.364 213.946 111.456 213.609 111.642C213.275 111.828 213.012 112.098 212.819 112.455C212.626 112.811 212.529 113.242 212.529 113.75ZM224.343 110.273V111.409H219.82V110.273H224.343ZM221.138 108.182H222.479V116.5C222.479 116.879 222.534 117.163 222.644 117.352C222.758 117.538 222.902 117.663 223.076 117.727C223.254 117.788 223.442 117.818 223.638 117.818C223.786 117.818 223.907 117.811 224.002 117.795C224.097 117.777 224.173 117.761 224.229 117.75L224.502 118.955C224.411 118.989 224.284 119.023 224.121 119.057C223.959 119.095 223.752 119.114 223.502 119.114C223.123 119.114 222.752 119.032 222.388 118.869C222.029 118.706 221.729 118.458 221.491 118.125C221.256 117.792 221.138 117.371 221.138 116.864V108.182Z" fill="black"/>
<defs>
<linearGradient id="paint0_linear_4_5" x1="160" y1="226" x2="180" y2="63" gradientUnits="userSpaceOnUse">
<stop stop-color="#A68656"/>
<stop offset="1" stop-color="#A65656" stop-opacity="0"/>
</linearGradient>
</defs>
</svg>
