<svg width="271" height="171" viewBox="0 0 271 171" fill="none" xmlns="http://www.w3.org/2000/svg">
<rect width="271" height="171" rx="50" fill="url(#paint0_linear_4_5)"/>
<path d="M49.8864 50H48.4091L52.6818 38.3636H54.1364L58.4091 50H56.9318L53.4545 40.2045H53.3636L49.8864 50ZM50.4318 45.4545H56.3864V46.7045H50.4318V45.4545ZM66.517 50L63.858 41.2727H65.267L67.1534 47.9545H67.2443L69.108 41.2727H70.5398L72.3807 47.9318H72.4716L74.358 41.2727H75.767L73.108 50H71.7898L69.8807 43.2955H69.7443L67.8352 50H66.517ZM80.7884 50.1818C80.0005 50.1818 79.3092 49.9943 78.7145 49.6193C78.1236 49.2443 77.6615 48.7197 77.3281 48.0455C76.9986 47.3712 76.8338 46.5833 76.8338 45.6818C76.8338 44.7727 76.9986 43.9792 77.3281 43.3011C77.6615 42.6231 78.1236 42.0966 78.7145 41.7216C79.3092 41.3466 80.0005 41.1591 80.7884 41.1591C81.5762 41.1591 82.2656 41.3466 82.8565 41.7216C83.4512 42.0966 83.9134 42.6231 84.2429 43.3011C84.5762 43.9792 84.7429 44.7727 84.7429 45.6818C84.7429 46.5833 84.5762 47.3712 84.2429 48.0455C83.9134 48.7197 83.4512 49.2443 82.8565 49.6193C82.2656 49.9943 81.5762 50.1818 80.7884 50.1818ZM80.7884 48.9773C81.3868 48.9773 81.8793 48.8239 82.2656 48.517C82.652 48.2102 82.938 47.8068 83.1236 47.3068C83.3092 46.8068 83.402 46.2652 83.402 45.6818C83.402 45.0985 83.3092 44.5549 83.1236 44.0511C82.938 43.5473 82.652 43.1402 82.2656 42.8295C81.8793 42.5189 81.3868 42.3636 80.7884 42.3636C80.1899 42.3636 79.6974 42.5189 79.3111 42.8295C78.9247 43.1402 78.6387 43.5473 78.4531 44.0511C78.2675 44.5549 78.1747 45.0985 78.1747 45.6818C78.1747 46.2652 78.2675 46.8068 78.4531 47.3068C78.6387 47.8068 78.9247 48.2102 79.3111 48.517C79.6974 48.8239 80.1899 48.9773 80.7884 48.9773ZM88.1307 44.75V50H86.7898V41.2727H88.0852V42.6364H88.1989C88.4034 42.1932 88.714 41.8371 89.1307 41.5682C89.5473 41.2955 90.0852 41.1591 90.7443 41.1591C91.3352 41.1591 91.8523 41.2803 92.2955 41.5227C92.7386 41.7614 93.0833 42.125 93.3295 42.6136C93.5758 43.0985 93.6989 43.7121 93.6989 44.4545V50H92.358V44.5455C92.358 43.8598 92.1799 43.3258 91.8239 42.9432C91.4678 42.5568 90.9792 42.3636 90.358 42.3636C89.9299 42.3636 89.5473 42.4564 89.2102 42.642C88.8769 42.8277 88.6136 43.0985 88.4205 43.4545C88.2273 43.8106 88.1307 44.2424 88.1307 44.75ZM99.4446 50.1818C98.7173 50.1818 98.0753 49.9981 97.5185 49.6307C96.9616 49.2595 96.526 48.7367 96.2116 48.0625C95.8973 47.3845 95.7401 46.5833 95.7401 45.6591C95.7401 44.7424 95.8973 43.947 96.2116 43.2727C96.526 42.5985 96.9635 42.0777 97.5241 41.7102C98.0848 41.3428 98.7325 41.1591 99.4673 41.1591C100.036 41.1591 100.484 41.2538 100.814 41.4432C101.147 41.6288 101.401 41.8409 101.575 42.0795C101.753 42.3144 101.892 42.5076 101.99 42.6591H102.104V38.3636H103.445V50H102.149V48.6591H101.99C101.892 48.8182 101.751 49.0189 101.57 49.2614C101.388 49.5 101.128 49.714 100.791 49.9034C100.454 50.089 100.005 50.1818 99.4446 50.1818ZM99.6264 48.9773C100.164 48.9773 100.619 48.8371 100.99 48.5568C101.361 48.2727 101.643 47.8807 101.837 47.3807C102.03 46.8769 102.126 46.2955 102.126 45.6364C102.126 44.9848 102.032 44.4148 101.842 43.9261C101.653 43.4337 101.373 43.0511 101.001 42.7784C100.63 42.5019 100.172 42.3636 99.6264 42.3636C99.0582 42.3636 98.5848 42.5095 98.206 42.8011C97.831 43.089 97.5488 43.4811 97.3594 43.9773C97.1738 44.4697 97.081 45.0227 97.081 45.6364C97.081 46.2576 97.1757 46.822 97.3651 47.3295C97.5582 47.8333 97.8423 48.2348 98.2173 48.5341C98.5961 48.8295 99.0658 48.9773 99.6264 48.9773ZM109.746 50.1818C108.905 50.1818 108.179 49.9962 107.57 49.625C106.964 49.25 106.496 48.7273 106.166 48.0568C105.84 47.3826 105.678 46.5985 105.678 45.7045C105.678 44.8106 105.84 44.0227 106.166 43.3409C106.496 42.6553 106.954 42.1212 107.541 41.7386C108.132 41.3523 108.821 41.1591 109.609 41.1591C110.064 41.1591 110.513 41.2348 110.956 41.3864C111.399 41.5379 111.803 41.7841 112.166 42.125C112.53 42.4621 112.82 42.9091 113.036 43.4659C113.251 44.0227 113.359 44.7083 113.359 45.5227V46.0909H106.632V44.9318H111.996C111.996 44.4394 111.897 44 111.7 43.6136C111.507 43.2273 111.231 42.9223 110.871 42.6989C110.515 42.4754 110.094 42.3636 109.609 42.3636C109.075 42.3636 108.613 42.4962 108.223 42.7614C107.837 43.0227 107.539 43.3636 107.331 43.7841C107.123 44.2045 107.018 44.6553 107.018 45.1364V45.9091C107.018 46.5682 107.132 47.1269 107.359 47.5852C107.59 48.0398 107.911 48.3864 108.32 48.625C108.729 48.8598 109.204 48.9773 109.746 48.9773C110.098 48.9773 110.416 48.928 110.7 48.8295C110.988 48.7273 111.236 48.5758 111.445 48.375C111.653 48.1705 111.814 47.9167 111.928 47.6136L113.223 47.9773C113.087 48.4167 112.857 48.803 112.536 49.1364C112.214 49.4659 111.816 49.7235 111.342 49.9091C110.869 50.0909 110.337 50.1818 109.746 50.1818ZM115.399 50V41.2727H116.695V42.5909H116.786C116.945 42.1591 117.232 41.8087 117.649 41.5398C118.066 41.2708 118.536 41.1364 119.058 41.1364C119.157 41.1364 119.28 41.1383 119.428 41.142C119.575 41.1458 119.687 41.1515 119.763 41.1591V42.5227C119.717 42.5114 119.613 42.4943 119.45 42.4716C119.291 42.4451 119.123 42.4318 118.945 42.4318C118.52 42.4318 118.142 42.5208 117.808 42.6989C117.479 42.8731 117.217 43.1155 117.024 43.4261C116.835 43.733 116.74 44.0833 116.74 44.4773V50H115.399ZM125.786 41.2727V42.4091H121.081V41.2727H125.786ZM122.49 50V40.0682C122.49 39.5682 122.607 39.1515 122.842 38.8182C123.077 38.4848 123.382 38.2348 123.757 38.0682C124.132 37.9015 124.528 37.8182 124.945 37.8182C125.274 37.8182 125.543 37.8447 125.751 37.8977C125.96 37.9508 126.115 38 126.217 38.0455L125.831 39.2045C125.763 39.1818 125.668 39.1534 125.547 39.1193C125.429 39.0852 125.274 39.0682 125.081 39.0682C124.638 39.0682 124.318 39.1799 124.121 39.4034C123.928 39.6269 123.831 39.9545 123.831 40.3864V50H122.49ZM133.165 46.4318V41.2727H134.506V50H133.165V48.5227H133.074C132.869 48.9659 132.551 49.3428 132.119 49.6534C131.688 49.9602 131.142 50.1136 130.483 50.1136C129.938 50.1136 129.453 49.9943 129.028 49.7557C128.604 49.5133 128.271 49.1496 128.028 48.6648C127.786 48.1761 127.665 47.5606 127.665 46.8182V41.2727H129.006V46.7273C129.006 47.3636 129.184 47.8712 129.54 48.25C129.9 48.6288 130.358 48.8182 130.915 48.8182C131.248 48.8182 131.587 48.733 131.932 48.5625C132.28 48.392 132.572 48.1307 132.807 47.7784C133.045 47.4261 133.165 46.9773 133.165 46.4318ZM138.303 38.3636V50H136.962V38.3636H138.303ZM145.44 50V38.3636H146.781V42.6591H146.895C146.993 42.5076 147.13 42.3144 147.304 42.0795C147.482 41.8409 147.736 41.6288 148.065 41.4432C148.399 41.2538 148.849 41.1591 149.418 41.1591C150.152 41.1591 150.8 41.3428 151.361 41.7102C151.921 42.0777 152.359 42.5985 152.673 43.2727C152.988 43.947 153.145 44.7424 153.145 45.6591C153.145 46.5833 152.988 47.3845 152.673 48.0625C152.359 48.7367 151.923 49.2595 151.366 49.6307C150.81 49.9981 150.168 50.1818 149.44 50.1818C148.88 50.1818 148.431 50.089 148.094 49.9034C147.757 49.714 147.497 49.5 147.315 49.2614C147.134 49.0189 146.993 48.8182 146.895 48.6591H146.736V50H145.44ZM146.759 45.6364C146.759 46.2955 146.855 46.8769 147.048 47.3807C147.241 47.8807 147.524 48.2727 147.895 48.5568C148.266 48.8371 148.721 48.9773 149.259 48.9773C149.819 48.9773 150.287 48.8295 150.662 48.5341C151.041 48.2348 151.325 47.8333 151.514 47.3295C151.707 46.822 151.804 46.2576 151.804 45.6364C151.804 45.0227 151.709 44.4697 151.52 43.9773C151.334 43.4811 151.052 43.089 150.673 42.8011C150.298 42.5095 149.827 42.3636 149.259 42.3636C148.713 42.3636 148.255 42.5019 147.884 42.7784C147.512 43.0511 147.232 43.4337 147.043 43.9261C146.853 44.4148 146.759 44.9848 146.759 45.6364ZM155.196 50V41.2727H156.537V50H155.196ZM155.878 39.8182C155.616 39.8182 155.391 39.7292 155.202 39.5511C155.016 39.3731 154.923 39.1591 154.923 38.9091C154.923 38.6591 155.016 38.4451 155.202 38.267C155.391 38.089 155.616 38 155.878 38C156.139 38 156.363 38.089 156.548 38.267C156.738 38.4451 156.832 38.6591 156.832 38.9091C156.832 39.1591 156.738 39.3731 156.548 39.5511C156.363 39.7292 156.139 39.8182 155.878 39.8182ZM158.993 50V41.2727H160.288V42.5909H160.379C160.538 42.1591 160.826 41.8087 161.243 41.5398C161.66 41.2708 162.129 41.1364 162.652 41.1364C162.75 41.1364 162.874 41.1383 163.021 41.142C163.169 41.1458 163.281 41.1515 163.357 41.1591V42.5227C163.311 42.5114 163.207 42.4943 163.044 42.4716C162.885 42.4451 162.716 42.4318 162.538 42.4318C162.114 42.4318 161.735 42.5208 161.402 42.6989C161.072 42.8731 160.811 43.1155 160.618 43.4261C160.429 43.733 160.334 44.0833 160.334 44.4773V50H158.993ZM167.976 50.1818C167.249 50.1818 166.607 49.9981 166.05 49.6307C165.493 49.2595 165.057 48.7367 164.743 48.0625C164.429 47.3845 164.271 46.5833 164.271 45.6591C164.271 44.7424 164.429 43.947 164.743 43.2727C165.057 42.5985 165.495 42.0777 166.055 41.7102C166.616 41.3428 167.264 41.1591 167.999 41.1591C168.567 41.1591 169.016 41.2538 169.345 41.4432C169.679 41.6288 169.932 41.8409 170.107 42.0795C170.285 42.3144 170.423 42.5076 170.521 42.6591H170.635V38.3636H171.976V50H170.68V48.6591H170.521C170.423 48.8182 170.283 49.0189 170.101 49.2614C169.919 49.5 169.66 49.714 169.322 49.9034C168.985 50.089 168.536 50.1818 167.976 50.1818ZM168.158 48.9773C168.696 48.9773 169.15 48.8371 169.521 48.5568C169.893 48.2727 170.175 47.8807 170.368 47.3807C170.561 46.8769 170.658 46.2955 170.658 45.6364C170.658 44.9848 170.563 44.4148 170.374 43.9261C170.184 43.4337 169.904 43.0511 169.533 42.7784C169.161 42.5019 168.703 42.3636 168.158 42.3636C167.589 42.3636 167.116 42.5095 166.737 42.8011C166.362 43.089 166.08 43.4811 165.891 43.9773C165.705 44.4697 165.612 45.0227 165.612 45.6364C165.612 46.2576 165.707 46.822 165.896 47.3295C166.089 47.8333 166.374 48.2348 166.749 48.5341C167.127 48.8295 167.597 48.9773 168.158 48.9773ZM182.413 50.1818C181.686 50.1818 181.044 49.9981 180.487 49.6307C179.93 49.2595 179.495 48.7367 179.18 48.0625C178.866 47.3845 178.709 46.5833 178.709 45.6591C178.709 44.7424 178.866 43.947 179.18 43.2727C179.495 42.5985 179.932 42.0777 180.493 41.7102C181.054 41.3428 181.701 41.1591 182.436 41.1591C183.004 41.1591 183.453 41.2538 183.783 41.4432C184.116 41.6288 184.37 41.8409 184.544 42.0795C184.722 42.3144 184.86 42.5076 184.959 42.6591H185.072V38.3636H186.413V50H185.118V48.6591H184.959C184.86 48.8182 184.72 49.0189 184.538 49.2614C184.357 49.5 184.097 49.714 183.76 49.9034C183.423 50.089 182.974 50.1818 182.413 50.1818ZM182.595 48.9773C183.133 48.9773 183.588 48.8371 183.959 48.5568C184.33 48.2727 184.612 47.8807 184.805 47.3807C184.999 46.8769 185.095 46.2955 185.095 45.6364C185.095 44.9848 185 44.4148 184.811 43.9261C184.622 43.4337 184.341 43.0511 183.97 42.7784C183.599 42.5019 183.141 42.3636 182.595 42.3636C182.027 42.3636 181.554 42.5095 181.175 42.8011C180.8 43.089 180.518 43.4811 180.328 43.9773C180.143 44.4697 180.05 45.0227 180.05 45.6364C180.05 46.2576 180.144 46.822 180.334 47.3295C180.527 47.8333 180.811 48.2348 181.186 48.5341C181.565 48.8295 182.035 48.9773 182.595 48.9773ZM189.055 50V41.2727H190.351V42.5909H190.442C190.601 42.1591 190.889 41.8087 191.305 41.5398C191.722 41.2708 192.192 41.1364 192.714 41.1364C192.813 41.1364 192.936 41.1383 193.084 41.142C193.232 41.1458 193.343 41.1515 193.419 41.1591V42.5227C193.374 42.5114 193.269 42.4943 193.107 42.4716C192.947 42.4451 192.779 42.4318 192.601 42.4318C192.177 42.4318 191.798 42.5208 191.464 42.6989C191.135 42.8731 190.874 43.1155 190.68 43.4261C190.491 43.733 190.396 44.0833 190.396 44.4773V50H189.055ZM198.288 50.1818C197.5 50.1818 196.809 49.9943 196.214 49.6193C195.624 49.2443 195.161 48.7197 194.828 48.0455C194.499 47.3712 194.334 46.5833 194.334 45.6818C194.334 44.7727 194.499 43.9792 194.828 43.3011C195.161 42.6231 195.624 42.0966 196.214 41.7216C196.809 41.3466 197.5 41.1591 198.288 41.1591C199.076 41.1591 199.766 41.3466 200.357 41.7216C200.951 42.0966 201.413 42.6231 201.743 43.3011C202.076 43.9792 202.243 44.7727 202.243 45.6818C202.243 46.5833 202.076 47.3712 201.743 48.0455C201.413 48.7197 200.951 49.2443 200.357 49.6193C199.766 49.9943 199.076 50.1818 198.288 50.1818ZM198.288 48.9773C198.887 48.9773 199.379 48.8239 199.766 48.517C200.152 48.2102 200.438 47.8068 200.624 47.3068C200.809 46.8068 200.902 46.2652 200.902 45.6818C200.902 45.0985 200.809 44.5549 200.624 44.0511C200.438 43.5473 200.152 43.1402 199.766 42.8295C199.379 42.5189 198.887 42.3636 198.288 42.3636C197.69 42.3636 197.197 42.5189 196.811 42.8295C196.425 43.1402 196.139 43.5473 195.953 44.0511C195.768 44.5549 195.675 45.0985 195.675 45.6818C195.675 46.2652 195.768 46.8068 195.953 47.3068C196.139 47.8068 196.425 48.2102 196.811 48.517C197.197 48.8239 197.69 48.9773 198.288 48.9773ZM204.29 53.2727V41.2727H205.585V42.6591H205.744C205.843 42.5076 205.979 42.3144 206.153 42.0795C206.331 41.8409 206.585 41.6288 206.915 41.4432C207.248 41.2538 207.699 41.1591 208.267 41.1591C209.002 41.1591 209.65 41.3428 210.21 41.7102C210.771 42.0777 211.208 42.5985 211.523 43.2727C211.837 43.947 211.994 44.7424 211.994 45.6591C211.994 46.5833 211.837 47.3845 211.523 48.0625C211.208 48.7367 210.773 49.2595 210.216 49.6307C209.659 49.9981 209.017 50.1818 208.29 50.1818C207.729 50.1818 207.28 50.089 206.943 49.9034C206.606 49.714 206.347 49.5 206.165 49.2614C205.983 49.0189 205.843 48.8182 205.744 48.6591H205.631V53.2727H204.29ZM205.608 45.6364C205.608 46.2955 205.705 46.8769 205.898 47.3807C206.091 47.8807 206.373 48.2727 206.744 48.5568C207.116 48.8371 207.57 48.9773 208.108 48.9773C208.669 48.9773 209.136 48.8295 209.511 48.5341C209.89 48.2348 210.174 47.8333 210.364 47.3295C210.557 46.822 210.653 46.2576 210.653 45.6364C210.653 45.0227 210.559 44.4697 210.369 43.9773C210.184 43.4811 209.902 43.089 209.523 42.8011C209.148 42.5095 208.676 42.3636 208.108 42.3636C207.563 42.3636 207.104 42.5019 206.733 42.7784C206.362 43.0511 206.081 43.4337 205.892 43.9261C205.703 44.4148 205.608 44.9848 205.608 45.6364ZM220.222 43.2273L219.017 43.5682C218.941 43.3674 218.83 43.1723 218.682 42.983C218.538 42.7898 218.341 42.6307 218.091 42.5057C217.841 42.3807 217.521 42.3182 217.131 42.3182C216.597 42.3182 216.152 42.4413 215.795 42.6875C215.443 42.9299 215.267 43.2386 215.267 43.6136C215.267 43.947 215.388 44.2102 215.631 44.4034C215.873 44.5966 216.252 44.7576 216.767 44.8864L218.062 45.2045C218.843 45.3939 219.424 45.6837 219.807 46.0739C220.189 46.4602 220.381 46.9583 220.381 47.5682C220.381 48.0682 220.237 48.5152 219.949 48.9091C219.665 49.303 219.267 49.6136 218.756 49.8409C218.244 50.0682 217.65 50.1818 216.972 50.1818C216.081 50.1818 215.345 49.9886 214.761 49.6023C214.178 49.2159 213.809 48.6515 213.653 47.9091L214.926 47.5909C215.047 48.0606 215.277 48.4129 215.614 48.6477C215.955 48.8826 216.4 49 216.949 49C217.574 49 218.07 48.8674 218.438 48.6023C218.809 48.3333 218.994 48.0114 218.994 47.6364C218.994 47.3333 218.888 47.0795 218.676 46.875C218.464 46.6667 218.138 46.5114 217.699 46.4091L216.244 46.0682C215.445 45.8788 214.858 45.5852 214.483 45.1875C214.112 44.786 213.926 44.2841 213.926 43.6818C213.926 43.1894 214.064 42.7538 214.341 42.375C214.621 41.9962 215.002 41.6989 215.483 41.483C215.968 41.267 216.517 41.1591 217.131 41.1591C217.994 41.1591 218.672 41.3485 219.165 41.7273C219.661 42.1061 220.013 42.6061 220.222 43.2273ZM51.7955 69.2045C51.2424 69.2045 50.7405 69.1004 50.2898 68.892C49.839 68.6799 49.4811 68.375 49.2159 67.9773C48.9508 67.5758 48.8182 67.0909 48.8182 66.5227C48.8182 66.0227 48.9167 65.6174 49.1136 65.3068C49.3106 64.9924 49.5739 64.7462 49.9034 64.5682C50.233 64.3902 50.5966 64.2576 50.9943 64.1705C51.3958 64.0795 51.7992 64.0076 52.2045 63.9545C52.7348 63.8864 53.1648 63.8352 53.4943 63.8011C53.8277 63.7633 54.0701 63.7008 54.2216 63.6136C54.3769 63.5265 54.4545 63.375 54.4545 63.1591V63.1136C54.4545 62.553 54.3011 62.1174 53.9943 61.8068C53.6913 61.4962 53.2311 61.3409 52.6136 61.3409C51.9735 61.3409 51.4716 61.4811 51.108 61.7614C50.7443 62.0417 50.4886 62.3409 50.3409 62.6591L49.0682 62.2045C49.2955 61.6742 49.5985 61.2614 49.9773 60.9659C50.3598 60.6667 50.7765 60.4583 51.2273 60.3409C51.6818 60.2197 52.1288 60.1591 52.5682 60.1591C52.8485 60.1591 53.1705 60.1932 53.5341 60.2614C53.9015 60.3258 54.2557 60.4602 54.5966 60.6648C54.9413 60.8693 55.2273 61.178 55.4545 61.5909C55.6818 62.0038 55.7955 62.5568 55.7955 63.25V69H54.4545V67.8182H54.3864C54.2955 68.0076 54.1439 68.2102 53.9318 68.4261C53.7197 68.642 53.4375 68.8258 53.0852 68.9773C52.733 69.1288 52.303 69.2045 51.7955 69.2045ZM52 68C52.5303 68 52.9773 67.8958 53.3409 67.6875C53.7083 67.4792 53.9848 67.2102 54.1705 66.8807C54.3598 66.5511 54.4545 66.2045 54.4545 65.8409V64.6136C54.3977 64.6818 54.2727 64.7443 54.0795 64.8011C53.8902 64.8542 53.6705 64.9015 53.4205 64.9432C53.1742 64.9811 52.9337 65.0152 52.6989 65.0455C52.4678 65.072 52.2803 65.0947 52.1364 65.1136C51.7879 65.1591 51.4621 65.233 51.1591 65.3352C50.8598 65.4337 50.6174 65.5833 50.4318 65.7841C50.25 65.9811 50.1591 66.25 50.1591 66.5909C50.1591 67.0568 50.3314 67.4091 50.6761 67.6477C51.0246 67.8826 51.4659 68 52 68ZM66.6293 60.2727V61.4091H61.9247V60.2727H66.6293ZM63.3338 69V59.0682C63.3338 58.5682 63.4512 58.1515 63.6861 57.8182C63.9209 57.4848 64.2259 57.2348 64.6009 57.0682C64.9759 56.9015 65.3717 56.8182 65.7884 56.8182C66.1179 56.8182 66.3868 56.8447 66.5952 56.8977C66.8035 56.9508 66.9588 57 67.0611 57.0455L66.6747 58.2045C66.6065 58.1818 66.5118 58.1534 66.3906 58.1193C66.2732 58.0852 66.1179 58.0682 65.9247 58.0682C65.4815 58.0682 65.1615 58.1799 64.9645 58.4034C64.7713 58.6269 64.6747 58.9545 64.6747 59.3864V69H63.3338ZM71.8082 69.1818C70.9673 69.1818 70.242 68.9962 69.6321 68.625C69.026 68.25 68.5582 67.7273 68.2287 67.0568C67.9029 66.3826 67.7401 65.5985 67.7401 64.7045C67.7401 63.8106 67.9029 63.0227 68.2287 62.3409C68.5582 61.6553 69.0166 61.1212 69.6037 60.7386C70.1946 60.3523 70.884 60.1591 71.6719 60.1591C72.1264 60.1591 72.5753 60.2348 73.0185 60.3864C73.4616 60.5379 73.8651 60.7841 74.2287 61.125C74.5923 61.4621 74.8821 61.9091 75.098 62.4659C75.3139 63.0227 75.4219 63.7083 75.4219 64.5227V65.0909H68.6946V63.9318H74.0582C74.0582 63.4394 73.9598 63 73.7628 62.6136C73.5696 62.2273 73.2931 61.9223 72.9332 61.6989C72.5772 61.4754 72.1567 61.3636 71.6719 61.3636C71.1378 61.3636 70.6757 61.4962 70.2855 61.7614C69.8991 62.0227 69.6018 62.3636 69.3935 62.7841C69.1851 63.2045 69.081 63.6553 69.081 64.1364V64.9091C69.081 65.5682 69.1946 66.1269 69.4219 66.5852C69.6529 67.0398 69.973 67.3864 70.3821 67.625C70.7912 67.8598 71.2666 67.9773 71.8082 67.9773C72.1605 67.9773 72.4787 67.928 72.7628 67.8295C73.0507 67.7273 73.2988 67.5758 73.5071 67.375C73.7154 67.1705 73.8764 66.9167 73.9901 66.6136L75.2855 66.9773C75.1491 67.4167 74.92 67.803 74.598 68.1364C74.276 68.4659 73.8783 68.7235 73.4048 68.9091C72.9313 69.0909 72.3991 69.1818 71.8082 69.1818ZM80.0298 69.2045C79.4768 69.2045 78.9749 69.1004 78.5241 68.892C78.0734 68.6799 77.7154 68.375 77.4503 67.9773C77.1851 67.5758 77.0526 67.0909 77.0526 66.5227C77.0526 66.0227 77.151 65.6174 77.348 65.3068C77.545 64.9924 77.8082 64.7462 78.1378 64.5682C78.4673 64.3902 78.831 64.2576 79.2287 64.1705C79.6302 64.0795 80.0336 64.0076 80.4389 63.9545C80.9692 63.8864 81.3991 63.8352 81.7287 63.8011C82.062 63.7633 82.3045 63.7008 82.456 63.6136C82.6113 63.5265 82.6889 63.375 82.6889 63.1591V63.1136C82.6889 62.553 82.5355 62.1174 82.2287 61.8068C81.9257 61.4962 81.4654 61.3409 80.848 61.3409C80.2079 61.3409 79.706 61.4811 79.3423 61.7614C78.9787 62.0417 78.723 62.3409 78.5753 62.6591L77.3026 62.2045C77.5298 61.6742 77.8329 61.2614 78.2116 60.9659C78.5942 60.6667 79.0109 60.4583 79.4616 60.3409C79.9162 60.2197 80.3632 60.1591 80.8026 60.1591C81.0829 60.1591 81.4048 60.1932 81.7685 60.2614C82.1359 60.3258 82.4901 60.4602 82.831 60.6648C83.1757 60.8693 83.4616 61.178 83.6889 61.5909C83.9162 62.0038 84.0298 62.5568 84.0298 63.25V69H82.6889V67.8182H82.6207C82.5298 68.0076 82.3783 68.2102 82.1662 68.4261C81.9541 68.642 81.6719 68.8258 81.3196 68.9773C80.9673 69.1288 80.5374 69.2045 80.0298 69.2045ZM80.2344 68C80.7647 68 81.2116 67.8958 81.5753 67.6875C81.9427 67.4792 82.2192 67.2102 82.4048 66.8807C82.5942 66.5511 82.6889 66.2045 82.6889 65.8409V64.6136C82.6321 64.6818 82.5071 64.7443 82.3139 64.8011C82.1245 64.8542 81.9048 64.9015 81.6548 64.9432C81.4086 64.9811 81.1681 65.0152 80.9332 65.0455C80.7022 65.072 80.5147 65.0947 80.3707 65.1136C80.0223 65.1591 79.6965 65.233 79.3935 65.3352C79.0942 65.4337 78.8518 65.5833 78.6662 65.7841C78.4844 65.9811 78.3935 66.25 78.3935 66.5909C78.3935 67.0568 78.5658 67.4091 78.9105 67.6477C79.259 67.8826 79.7003 68 80.2344 68ZM90.2727 60.2727V61.4091H85.75V60.2727H90.2727ZM87.0682 58.1818H88.4091V66.5C88.4091 66.8788 88.464 67.1629 88.5739 67.3523C88.6875 67.5379 88.8314 67.6629 89.0057 67.7273C89.1837 67.7879 89.3712 67.8182 89.5682 67.8182C89.7159 67.8182 89.8371 67.8106 89.9318 67.7955C90.0265 67.7765 90.1023 67.7614 90.1591 67.75L90.4318 68.9545C90.3409 68.9886 90.214 69.0227 90.0511 69.0568C89.8883 69.0947 89.6818 69.1136 89.4318 69.1136C89.053 69.1136 88.6818 69.0322 88.3182 68.8693C87.9583 68.7064 87.6591 68.4583 87.4205 68.125C87.1856 67.7917 87.0682 67.3712 87.0682 66.8636V58.1818ZM93.8182 63.75V69H92.4773V57.3636H93.8182V61.6364H93.9318C94.1364 61.1856 94.4432 60.8277 94.8523 60.5625C95.2652 60.2936 95.8144 60.1591 96.5 60.1591C97.0947 60.1591 97.6155 60.2784 98.0625 60.517C98.5095 60.7519 98.8561 61.1136 99.1023 61.6023C99.3523 62.0871 99.4773 62.7045 99.4773 63.4545V69H98.1364V63.5455C98.1364 62.8523 97.9564 62.3163 97.5966 61.9375C97.2405 61.5549 96.7462 61.3636 96.1136 61.3636C95.6742 61.3636 95.2803 61.4564 94.9318 61.642C94.5871 61.8277 94.3144 62.0985 94.1136 62.4545C93.9167 62.8106 93.8182 63.2424 93.8182 63.75ZM105.589 69.1818C104.749 69.1818 104.023 68.9962 103.413 68.625C102.807 68.25 102.339 67.7273 102.01 67.0568C101.684 66.3826 101.521 65.5985 101.521 64.7045C101.521 63.8106 101.684 63.0227 102.01 62.3409C102.339 61.6553 102.798 61.1212 103.385 60.7386C103.976 60.3523 104.665 60.1591 105.453 60.1591C105.908 60.1591 106.357 60.2348 106.8 60.3864C107.243 60.5379 107.646 60.7841 108.01 61.125C108.374 61.4621 108.663 61.9091 108.879 62.4659C109.095 63.0227 109.203 63.7083 109.203 64.5227V65.0909H102.476V63.9318H107.839C107.839 63.4394 107.741 63 107.544 62.6136C107.351 62.2273 107.074 61.9223 106.714 61.6989C106.358 61.4754 105.938 61.3636 105.453 61.3636C104.919 61.3636 104.457 61.4962 104.067 61.7614C103.68 62.0227 103.383 62.3636 103.175 62.7841C102.966 63.2045 102.862 63.6553 102.862 64.1364V64.9091C102.862 65.5682 102.976 66.1269 103.203 66.5852C103.434 67.0398 103.754 67.3864 104.163 67.625C104.572 67.8598 105.048 67.9773 105.589 67.9773C105.942 67.9773 106.26 67.928 106.544 67.8295C106.832 67.7273 107.08 67.5758 107.288 67.375C107.497 67.1705 107.658 66.9167 107.771 66.6136L109.067 66.9773C108.93 67.4167 108.701 67.803 108.379 68.1364C108.057 68.4659 107.66 68.7235 107.186 68.9091C106.713 69.0909 106.18 69.1818 105.589 69.1818ZM111.243 69V60.2727H112.538V61.5909H112.629C112.788 61.1591 113.076 60.8087 113.493 60.5398C113.91 60.2708 114.379 60.1364 114.902 60.1364C115 60.1364 115.124 60.1383 115.271 60.142C115.419 60.1458 115.531 60.1515 115.607 60.1591V61.5227C115.561 61.5114 115.457 61.4943 115.294 61.4716C115.135 61.4451 114.966 61.4318 114.788 61.4318C114.364 61.4318 113.985 61.5208 113.652 61.6989C113.322 61.8731 113.061 62.1155 112.868 62.4261C112.679 62.733 112.584 63.0833 112.584 63.4773V69H111.243ZM121.696 69V60.2727H123.037V69H121.696ZM122.378 58.8182C122.116 58.8182 121.891 58.7292 121.702 58.5511C121.516 58.3731 121.423 58.1591 121.423 57.9091C121.423 57.6591 121.516 57.4451 121.702 57.267C121.891 57.089 122.116 57 122.378 57C122.639 57 122.863 57.089 123.048 57.267C123.238 57.4451 123.332 57.6591 123.332 57.9091C123.332 58.1591 123.238 58.3731 123.048 58.5511C122.863 58.7292 122.639 58.8182 122.378 58.8182ZM126.834 63.75V69H125.493V60.2727H126.788V61.6364H126.902C127.107 61.1932 127.417 60.8371 127.834 60.5682C128.25 60.2955 128.788 60.1591 129.447 60.1591C130.038 60.1591 130.555 60.2803 130.999 60.5227C131.442 60.7614 131.786 61.125 132.033 61.6136C132.279 62.0985 132.402 62.7121 132.402 63.4545V69H131.061V63.5455C131.061 62.8598 130.883 62.3258 130.527 61.9432C130.171 61.5568 129.682 61.3636 129.061 61.3636C128.633 61.3636 128.25 61.4564 127.913 61.642C127.58 61.8277 127.317 62.0985 127.124 62.4545C126.93 62.8106 126.834 63.2424 126.834 63.75ZM141.92 69.2045C141.367 69.2045 140.866 69.1004 140.415 68.892C139.964 68.6799 139.606 68.375 139.341 67.9773C139.076 67.5758 138.943 67.0909 138.943 66.5227C138.943 66.0227 139.042 65.6174 139.239 65.3068C139.436 64.9924 139.699 64.7462 140.028 64.5682C140.358 64.3902 140.722 64.2576 141.119 64.1705C141.521 64.0795 141.924 64.0076 142.33 63.9545C142.86 63.8864 143.29 63.8352 143.619 63.8011C143.953 63.7633 144.195 63.7008 144.347 63.6136C144.502 63.5265 144.58 63.375 144.58 63.1591V63.1136C144.58 62.553 144.426 62.1174 144.119 61.8068C143.816 61.4962 143.356 61.3409 142.739 61.3409C142.098 61.3409 141.597 61.4811 141.233 61.7614C140.869 62.0417 140.614 62.3409 140.466 62.6591L139.193 62.2045C139.42 61.6742 139.723 61.2614 140.102 60.9659C140.485 60.6667 140.902 60.4583 141.352 60.3409C141.807 60.2197 142.254 60.1591 142.693 60.1591C142.973 60.1591 143.295 60.1932 143.659 60.2614C144.027 60.3258 144.381 60.4602 144.722 60.6648C145.066 60.8693 145.352 61.178 145.58 61.5909C145.807 62.0038 145.92 62.5568 145.92 63.25V69H144.58V67.8182H144.511C144.42 68.0076 144.269 68.2102 144.057 68.4261C143.845 68.642 143.563 68.8258 143.21 68.9773C142.858 69.1288 142.428 69.2045 141.92 69.2045ZM142.125 68C142.655 68 143.102 67.8958 143.466 67.6875C143.833 67.4792 144.11 67.2102 144.295 66.8807C144.485 66.5511 144.58 66.2045 144.58 65.8409V64.6136C144.523 64.6818 144.398 64.7443 144.205 64.8011C144.015 64.8542 143.795 64.9015 143.545 64.9432C143.299 64.9811 143.059 65.0152 142.824 65.0455C142.593 65.072 142.405 65.0947 142.261 65.1136C141.913 65.1591 141.587 65.233 141.284 65.3352C140.985 65.4337 140.742 65.5833 140.557 65.7841C140.375 65.9811 140.284 66.25 140.284 66.5909C140.284 67.0568 140.456 67.4091 140.801 67.6477C141.15 67.8826 141.591 68 142.125 68ZM156.754 60.2727V61.4091H152.05V60.2727H156.754ZM153.459 69V59.0682C153.459 58.5682 153.576 58.1515 153.811 57.8182C154.046 57.4848 154.351 57.2348 154.726 57.0682C155.101 56.9015 155.497 56.8182 155.913 56.8182C156.243 56.8182 156.512 56.8447 156.72 56.8977C156.929 56.9508 157.084 57 157.186 57.0455L156.8 58.2045C156.732 58.1818 156.637 58.1534 156.516 58.1193C156.398 58.0852 156.243 58.0682 156.05 58.0682C155.607 58.0682 155.286 58.1799 155.089 58.4034C154.896 58.6269 154.8 58.9545 154.8 59.3864V69H153.459ZM161.82 69.1818C161.032 69.1818 160.34 68.9943 159.746 68.6193C159.155 68.2443 158.693 67.7197 158.359 67.0455C158.03 66.3712 157.865 65.5833 157.865 64.6818C157.865 63.7727 158.03 62.9792 158.359 62.3011C158.693 61.6231 159.155 61.0966 159.746 60.7216C160.34 60.3466 161.032 60.1591 161.82 60.1591C162.607 60.1591 163.297 60.3466 163.888 60.7216C164.482 61.0966 164.945 61.6231 165.274 62.3011C165.607 62.9792 165.774 63.7727 165.774 64.6818C165.774 65.5833 165.607 66.3712 165.274 67.0455C164.945 67.7197 164.482 68.2443 163.888 68.6193C163.297 68.9943 162.607 69.1818 161.82 69.1818ZM161.82 67.9773C162.418 67.9773 162.911 67.8239 163.297 67.517C163.683 67.2102 163.969 66.8068 164.155 66.3068C164.34 65.8068 164.433 65.2652 164.433 64.6818C164.433 64.0985 164.34 63.5549 164.155 63.0511C163.969 62.5473 163.683 62.1402 163.297 61.8295C162.911 61.5189 162.418 61.3636 161.82 61.3636C161.221 61.3636 160.729 61.5189 160.342 61.8295C159.956 62.1402 159.67 62.5473 159.484 63.0511C159.299 63.5549 159.206 64.0985 159.206 64.6818C159.206 65.2652 159.299 65.8068 159.484 66.3068C159.67 66.8068 159.956 67.2102 160.342 67.517C160.729 67.8239 161.221 67.9773 161.82 67.9773ZM167.821 69V60.2727H169.116V61.5909H169.207C169.366 61.1591 169.654 60.8087 170.071 60.5398C170.488 60.2708 170.957 60.1364 171.48 60.1364C171.579 60.1364 171.702 60.1383 171.849 60.142C171.997 60.1458 172.109 60.1515 172.185 60.1591V61.5227C172.139 61.5114 172.035 61.4943 171.872 61.4716C171.713 61.4451 171.545 61.4318 171.366 61.4318C170.942 61.4318 170.563 61.5208 170.23 61.6989C169.901 61.8731 169.639 62.1155 169.446 62.4261C169.257 62.733 169.162 63.0833 169.162 63.4773V69H167.821ZM177.168 69.1818C176.327 69.1818 175.601 68.9962 174.991 68.625C174.385 68.25 173.918 67.7273 173.588 67.0568C173.262 66.3826 173.099 65.5985 173.099 64.7045C173.099 63.8106 173.262 63.0227 173.588 62.3409C173.918 61.6553 174.376 61.1212 174.963 60.7386C175.554 60.3523 176.243 60.1591 177.031 60.1591C177.486 60.1591 177.935 60.2348 178.378 60.3864C178.821 60.5379 179.224 60.7841 179.588 61.125C179.952 61.4621 180.241 61.9091 180.457 62.4659C180.673 63.0227 180.781 63.7083 180.781 64.5227V65.0909H174.054V63.9318H179.418C179.418 63.4394 179.319 63 179.122 62.6136C178.929 62.2273 178.652 61.9223 178.293 61.6989C177.937 61.4754 177.516 61.3636 177.031 61.3636C176.497 61.3636 176.035 61.4962 175.645 61.7614C175.259 62.0227 174.961 62.3636 174.753 62.7841C174.545 63.2045 174.44 63.6553 174.44 64.1364V64.9091C174.44 65.5682 174.554 66.1269 174.781 66.5852C175.012 67.0398 175.332 67.3864 175.741 67.625C176.151 67.8598 176.626 67.9773 177.168 67.9773C177.52 67.9773 177.838 67.928 178.122 67.8295C178.41 67.7273 178.658 67.5758 178.866 67.375C179.075 67.1705 179.236 66.9167 179.349 66.6136L180.645 66.9773C180.509 67.4167 180.279 67.803 179.957 68.1364C179.635 68.4659 179.238 68.7235 178.764 68.9091C178.291 69.0909 177.759 69.1818 177.168 69.1818ZM189.003 62.2273L187.798 62.5682C187.723 62.3674 187.611 62.1723 187.463 61.983C187.319 61.7898 187.122 61.6307 186.872 61.5057C186.622 61.3807 186.302 61.3182 185.912 61.3182C185.378 61.3182 184.933 61.4413 184.577 61.6875C184.224 61.9299 184.048 62.2386 184.048 62.6136C184.048 62.947 184.17 63.2102 184.412 63.4034C184.654 63.5966 185.033 63.7576 185.548 63.8864L186.844 64.2045C187.624 64.3939 188.205 64.6837 188.588 65.0739C188.971 65.4602 189.162 65.9583 189.162 66.5682C189.162 67.0682 189.018 67.5152 188.73 67.9091C188.446 68.303 188.048 68.6136 187.537 68.8409C187.026 69.0682 186.431 69.1818 185.753 69.1818C184.863 69.1818 184.126 68.9886 183.543 68.6023C182.959 68.2159 182.59 67.6515 182.435 66.9091L183.707 66.5909C183.829 67.0606 184.058 67.4129 184.395 67.6477C184.736 67.8826 185.181 68 185.73 68C186.355 68 186.851 67.8674 187.219 67.6023C187.59 67.3333 187.776 67.0114 187.776 66.6364C187.776 66.3333 187.67 66.0795 187.457 65.875C187.245 65.6667 186.92 65.5114 186.48 65.4091L185.026 65.0682C184.226 64.8788 183.639 64.5852 183.264 64.1875C182.893 63.786 182.707 63.2841 182.707 62.6818C182.707 62.1894 182.846 61.7538 183.122 61.375C183.402 60.9962 183.783 60.6989 184.264 60.483C184.749 60.267 185.298 60.1591 185.912 60.1591C186.776 60.1591 187.454 60.3485 187.946 60.7273C188.442 61.1061 188.795 61.6061 189.003 62.2273ZM194.976 60.2727V61.4091H190.453V60.2727H194.976ZM191.771 58.1818H193.112V66.5C193.112 66.8788 193.167 67.1629 193.277 67.3523C193.391 67.5379 193.535 67.6629 193.709 67.7273C193.887 67.7879 194.074 67.8182 194.271 67.8182C194.419 67.8182 194.54 67.8106 194.635 67.7955C194.73 67.7765 194.805 67.7614 194.862 67.75L195.135 68.9545C195.044 68.9886 194.917 69.0227 194.754 69.0568C194.591 69.0947 194.385 69.1136 194.135 69.1136C193.756 69.1136 193.385 69.0322 193.021 68.8693C192.661 68.7064 192.362 68.4583 192.124 68.125C191.889 67.7917 191.771 67.3712 191.771 66.8636V58.1818ZM197.97 69.0909C197.69 69.0909 197.449 68.9905 197.249 68.7898C197.048 68.589 196.947 68.3485 196.947 68.0682C196.947 67.7879 197.048 67.5473 197.249 67.3466C197.449 67.1458 197.69 67.0455 197.97 67.0455C198.25 67.0455 198.491 67.1458 198.692 67.3466C198.893 67.5473 198.993 67.7879 198.993 68.0682C198.993 68.2538 198.946 68.4242 198.851 68.5795C198.76 68.7348 198.637 68.8598 198.482 68.9545C198.33 69.0455 198.16 69.0909 197.97 69.0909ZM207.49 57.3636V69H206.081V57.3636H207.49ZM214.02 60.2727V61.4091H209.315V60.2727H214.02ZM210.724 69V59.0682C210.724 58.5682 210.842 58.1515 211.077 57.8182C211.312 57.4848 211.616 57.2348 211.991 57.0682C212.366 56.9015 212.762 56.8182 213.179 56.8182C213.509 56.8182 213.777 56.8447 213.986 56.8977C214.194 56.9508 214.349 57 214.452 57.0455L214.065 58.2045C213.997 58.1818 213.902 58.1534 213.781 58.1193C213.664 58.0852 213.509 58.0682 213.315 58.0682C212.872 58.0682 212.552 58.1799 212.355 58.4034C212.162 58.6269 212.065 58.9545 212.065 59.3864V69H210.724ZM50.0909 91.2727C49.8636 91.2727 49.661 91.2538 49.483 91.2159C49.3049 91.1818 49.1818 91.1477 49.1136 91.1136L49.4545 89.9318C49.7803 90.0152 50.0682 90.0455 50.3182 90.0227C50.5682 90 50.7898 89.8883 50.983 89.6875C51.1799 89.4905 51.3598 89.1705 51.5227 88.7273L51.7727 88.0455L48.5455 79.2727H50L52.4091 86.2273H52.5L54.9091 79.2727H56.3636L52.6591 89.2727C52.4924 89.7235 52.286 90.0966 52.0398 90.392C51.7936 90.6913 51.5076 90.9129 51.1818 91.0568C50.8598 91.2008 50.4962 91.2727 50.0909 91.2727ZM61.3665 88.1818C60.5786 88.1818 59.8873 87.9943 59.2926 87.6193C58.7017 87.2443 58.2396 86.7197 57.9062 86.0455C57.5767 85.3712 57.4119 84.5833 57.4119 83.6818C57.4119 82.7727 57.5767 81.9792 57.9062 81.3011C58.2396 80.6231 58.7017 80.0966 59.2926 79.7216C59.8873 79.3466 60.5786 79.1591 61.3665 79.1591C62.1544 79.1591 62.8438 79.3466 63.4347 79.7216C64.0294 80.0966 64.4915 80.6231 64.821 81.3011C65.1544 81.9792 65.321 82.7727 65.321 83.6818C65.321 84.5833 65.1544 85.3712 64.821 86.0455C64.4915 86.7197 64.0294 87.2443 63.4347 87.6193C62.8438 87.9943 62.1544 88.1818 61.3665 88.1818ZM61.3665 86.9773C61.965 86.9773 62.4574 86.8239 62.8438 86.517C63.2301 86.2102 63.5161 85.8068 63.7017 85.3068C63.8873 84.8068 63.9801 84.2652 63.9801 83.6818C63.9801 83.0985 63.8873 82.5549 63.7017 82.0511C63.5161 81.5473 63.2301 81.1402 62.8438 80.8295C62.4574 80.5189 61.965 80.3636 61.3665 80.3636C60.768 80.3636 60.2756 80.5189 59.8892 80.8295C59.5028 81.1402 59.2169 81.5473 59.0312 82.0511C58.8456 82.5549 58.7528 83.0985 58.7528 83.6818C58.7528 84.2652 58.8456 84.8068 59.0312 85.3068C59.2169 85.8068 59.5028 86.2102 59.8892 86.517C60.2756 86.8239 60.768 86.9773 61.3665 86.9773ZM72.8679 84.4318V79.2727H74.2088V88H72.8679V86.5227H72.777C72.5724 86.9659 72.2543 87.3428 71.8224 87.6534C71.3906 87.9602 70.8452 88.1136 70.1861 88.1136C69.6406 88.1136 69.1558 87.9943 68.7315 87.7557C68.3073 87.5133 67.974 87.1496 67.7315 86.6648C67.4891 86.1761 67.3679 85.5606 67.3679 84.8182V79.2727H68.7088V84.7273C68.7088 85.3636 68.8868 85.8712 69.2429 86.25C69.6027 86.6288 70.0611 86.8182 70.6179 86.8182C70.9512 86.8182 71.2902 86.733 71.6349 86.5625C71.9834 86.392 72.2751 86.1307 72.5099 85.7784C72.7486 85.4261 72.8679 84.9773 72.8679 84.4318ZM81.1648 91.2727V79.2727H82.4602V80.6591H82.6193C82.7178 80.5076 82.8542 80.3144 83.0284 80.0795C83.2064 79.8409 83.4602 79.6288 83.7898 79.4432C84.1231 79.2538 84.5739 79.1591 85.142 79.1591C85.8769 79.1591 86.5246 79.3428 87.0852 79.7102C87.6458 80.0777 88.0833 80.5985 88.3977 81.2727C88.7121 81.947 88.8693 82.7424 88.8693 83.6591C88.8693 84.5833 88.7121 85.3845 88.3977 86.0625C88.0833 86.7367 87.6477 87.2595 87.0909 87.6307C86.5341 87.9981 85.892 88.1818 85.1648 88.1818C84.6042 88.1818 84.1553 88.089 83.8182 87.9034C83.4811 87.714 83.2216 87.5 83.0398 87.2614C82.858 87.0189 82.7178 86.8182 82.6193 86.6591H82.5057V91.2727H81.1648ZM82.483 83.6364C82.483 84.2955 82.5795 84.8769 82.7727 85.3807C82.9659 85.8807 83.2481 86.2727 83.6193 86.5568C83.9905 86.8371 84.4451 86.9773 84.983 86.9773C85.5436 86.9773 86.0114 86.8295 86.3864 86.5341C86.7652 86.2348 87.0492 85.8333 87.2386 85.3295C87.4318 84.822 87.5284 84.2576 87.5284 83.6364C87.5284 83.0227 87.4337 82.4697 87.2443 81.9773C87.0587 81.4811 86.7765 81.089 86.3977 80.8011C86.0227 80.5095 85.5511 80.3636 84.983 80.3636C84.4375 80.3636 83.9792 80.5019 83.608 80.7784C83.2367 81.0511 82.9564 81.4337 82.767 81.9261C82.5777 82.4148 82.483 82.9848 82.483 83.6364ZM90.9148 88V79.2727H92.2557V88H90.9148ZM91.5966 77.8182C91.3352 77.8182 91.1098 77.7292 90.9205 77.5511C90.7348 77.3731 90.642 77.1591 90.642 76.9091C90.642 76.6591 90.7348 76.4451 90.9205 76.267C91.1098 76.089 91.3352 76 91.5966 76C91.858 76 92.0814 76.089 92.267 76.267C92.4564 76.4451 92.5511 76.6591 92.5511 76.9091C92.5511 77.1591 92.4564 77.3731 92.267 77.5511C92.0814 77.7292 91.858 77.8182 91.5966 77.8182ZM98.2571 88.1818C97.4389 88.1818 96.7344 87.9886 96.1435 87.6023C95.5526 87.2159 95.098 86.6837 94.7798 86.0057C94.4616 85.3277 94.3026 84.553 94.3026 83.6818C94.3026 82.7955 94.4654 82.0133 94.7912 81.3352C95.1207 80.6534 95.5791 80.1212 96.1662 79.7386C96.7571 79.3523 97.4465 79.1591 98.2344 79.1591C98.848 79.1591 99.401 79.2727 99.8935 79.5C100.386 79.7273 100.789 80.0455 101.104 80.4545C101.418 80.8636 101.613 81.3409 101.689 81.8864H100.348C100.246 81.4886 100.018 81.1364 99.6662 80.8295C99.3177 80.5189 98.848 80.3636 98.2571 80.3636C97.7344 80.3636 97.276 80.5 96.8821 80.7727C96.492 81.0417 96.187 81.4223 95.9673 81.9148C95.7514 82.4034 95.6435 82.9773 95.6435 83.6364C95.6435 84.3106 95.7495 84.8977 95.9616 85.3977C96.1776 85.8977 96.4806 86.286 96.8707 86.5625C97.2647 86.839 97.7268 86.9773 98.2571 86.9773C98.6056 86.9773 98.9219 86.9167 99.206 86.7955C99.4901 86.6742 99.7306 86.5 99.9276 86.2727C100.125 86.0455 100.265 85.7727 100.348 85.4545H101.689C101.613 85.9697 101.426 86.4337 101.126 86.8466C100.831 87.2557 100.439 87.5814 99.9503 87.8239C99.4654 88.0625 98.901 88.1818 98.2571 88.1818ZM104.899 84.8182L104.876 83.1591H105.149L108.967 79.2727H110.626L106.558 83.3864H106.445L104.899 84.8182ZM103.649 88V76.3636H104.99V88H103.649ZM109.195 88L105.786 83.6818L106.74 82.75L110.899 88H109.195ZM116.852 88V79.2727H118.193V88H116.852ZM117.534 77.8182C117.273 77.8182 117.047 77.7292 116.858 77.5511C116.672 77.3731 116.58 77.1591 116.58 76.9091C116.58 76.6591 116.672 76.4451 116.858 76.267C117.047 76.089 117.273 76 117.534 76C117.795 76 118.019 76.089 118.205 76.267C118.394 76.4451 118.489 76.6591 118.489 76.9091C118.489 77.1591 118.394 77.3731 118.205 77.5511C118.019 77.7292 117.795 77.8182 117.534 77.8182ZM124.445 79.2727V80.4091H119.922V79.2727H124.445ZM121.24 77.1818H122.581V85.5C122.581 85.8788 122.636 86.1629 122.746 86.3523C122.859 86.5379 123.003 86.6629 123.178 86.7273C123.356 86.7879 123.543 86.8182 123.74 86.8182C123.888 86.8182 124.009 86.8106 124.104 86.7955C124.198 86.7765 124.274 86.7614 124.331 86.75L124.604 87.9545C124.513 87.9886 124.386 88.0227 124.223 88.0568C124.06 88.0947 123.854 88.1136 123.604 88.1136C123.225 88.1136 122.854 88.0322 122.49 87.8693C122.13 87.7064 121.831 87.4583 121.592 87.125C121.357 86.7917 121.24 86.3712 121.24 85.8636V77.1818ZM136.462 84.4318V79.2727H137.803V88H136.462V86.5227H136.371C136.166 86.9659 135.848 87.3428 135.416 87.6534C134.984 87.9602 134.439 88.1136 133.78 88.1136C133.234 88.1136 132.75 87.9943 132.325 87.7557C131.901 87.5133 131.568 87.1496 131.325 86.6648C131.083 86.1761 130.962 85.5606 130.962 84.8182V79.2727H132.303V84.7273C132.303 85.3636 132.481 85.8712 132.837 86.25C133.196 86.6288 133.655 86.8182 134.212 86.8182C134.545 86.8182 134.884 86.733 135.229 86.5625C135.577 86.392 135.869 86.1307 136.104 85.7784C136.342 85.4261 136.462 84.9773 136.462 84.4318ZM140.259 91.2727V79.2727H141.554V80.6591H141.713C141.812 80.5076 141.948 80.3144 142.122 80.0795C142.3 79.8409 142.554 79.6288 142.884 79.4432C143.217 79.2538 143.668 79.1591 144.236 79.1591C144.971 79.1591 145.618 79.3428 146.179 79.7102C146.74 80.0777 147.177 80.5985 147.491 81.2727C147.806 81.947 147.963 82.7424 147.963 83.6591C147.963 84.5833 147.806 85.3845 147.491 86.0625C147.177 86.7367 146.741 87.2595 146.185 87.6307C145.628 87.9981 144.986 88.1818 144.259 88.1818C143.698 88.1818 143.249 88.089 142.912 87.9034C142.575 87.714 142.315 87.5 142.134 87.2614C141.952 87.0189 141.812 86.8182 141.713 86.6591H141.599V91.2727H140.259ZM141.577 83.6364C141.577 84.2955 141.673 84.8769 141.866 85.3807C142.06 85.8807 142.342 86.2727 142.713 86.5568C143.084 86.8371 143.539 86.9773 144.077 86.9773C144.637 86.9773 145.105 86.8295 145.48 86.5341C145.859 86.2348 146.143 85.8333 146.332 85.3295C146.526 84.822 146.622 84.2576 146.622 83.6364C146.622 83.0227 146.527 82.4697 146.338 81.9773C146.152 81.4811 145.87 81.089 145.491 80.8011C145.116 80.5095 144.645 80.3636 144.077 80.3636C143.531 80.3636 143.073 80.5019 142.702 80.7784C142.33 81.0511 142.05 81.4337 141.861 81.9261C141.671 82.4148 141.577 82.9848 141.577 83.6364ZM152.009 86.4091L151.918 87.0227C151.853 87.4545 151.755 87.9167 151.622 88.4091C151.493 88.9015 151.359 89.3655 151.219 89.8011C151.079 90.2367 150.963 90.5833 150.872 90.8409H149.849C149.899 90.5985 149.963 90.2784 150.043 89.8807C150.122 89.483 150.202 89.0379 150.281 88.5455C150.365 88.0568 150.433 87.5568 150.486 87.0455L150.554 86.4091H152.009ZM159.857 91.2727C159.629 91.2727 159.427 91.2538 159.249 91.2159C159.071 91.1818 158.947 91.1477 158.879 91.1136L159.22 89.9318C159.546 90.0152 159.834 90.0455 160.084 90.0227C160.334 90 160.555 89.8883 160.749 89.6875C160.946 89.4905 161.125 89.1705 161.288 88.7273L161.538 88.0455L158.311 79.2727H159.766L162.175 86.2273H162.266L164.675 79.2727H166.129L162.425 89.2727C162.258 89.7235 162.052 90.0966 161.805 90.392C161.559 90.6913 161.273 90.9129 160.947 91.0568C160.625 91.2008 160.262 91.2727 159.857 91.2727ZM171.132 88.1818C170.344 88.1818 169.653 87.9943 169.058 87.6193C168.467 87.2443 168.005 86.7197 167.672 86.0455C167.342 85.3712 167.178 84.5833 167.178 83.6818C167.178 82.7727 167.342 81.9792 167.672 81.3011C168.005 80.6231 168.467 80.0966 169.058 79.7216C169.653 79.3466 170.344 79.1591 171.132 79.1591C171.92 79.1591 172.609 79.3466 173.2 79.7216C173.795 80.0966 174.257 80.6231 174.587 81.3011C174.92 81.9792 175.087 82.7727 175.087 83.6818C175.087 84.5833 174.92 85.3712 174.587 86.0455C174.257 86.7197 173.795 87.2443 173.2 87.6193C172.609 87.9943 171.92 88.1818 171.132 88.1818ZM171.132 86.9773C171.731 86.9773 172.223 86.8239 172.609 86.517C172.996 86.2102 173.282 85.8068 173.467 85.3068C173.653 84.8068 173.746 84.2652 173.746 83.6818C173.746 83.0985 173.653 82.5549 173.467 82.0511C173.282 81.5473 172.996 81.1402 172.609 80.8295C172.223 80.5189 171.731 80.3636 171.132 80.3636C170.534 80.3636 170.041 80.5189 169.655 80.8295C169.268 81.1402 168.982 81.5473 168.797 82.0511C168.611 82.5549 168.518 83.0985 168.518 83.6818C168.518 84.2652 168.611 84.8068 168.797 85.3068C168.982 85.8068 169.268 86.2102 169.655 86.517C170.041 86.8239 170.534 86.9773 171.132 86.9773ZM182.634 84.4318V79.2727H183.974V88H182.634V86.5227H182.543C182.338 86.9659 182.02 87.3428 181.588 87.6534C181.156 87.9602 180.611 88.1136 179.952 88.1136C179.406 88.1136 178.921 87.9943 178.497 87.7557C178.073 87.5133 177.74 87.1496 177.497 86.6648C177.255 86.1761 177.134 85.5606 177.134 84.8182V79.2727H178.474V84.7273C178.474 85.3636 178.652 85.8712 179.009 86.25C179.368 86.6288 179.827 86.8182 180.384 86.8182C180.717 86.8182 181.056 86.733 181.401 86.5625C181.749 86.392 182.041 86.1307 182.276 85.7784C182.514 85.4261 182.634 84.9773 182.634 84.4318ZM187.847 76.3636V77.3864C187.847 77.697 187.79 78.0284 187.676 78.3807C187.566 78.7292 187.403 79.0682 187.188 79.3977C186.975 79.7235 186.718 80.0076 186.415 80.25L185.688 79.6591C185.926 79.3182 186.133 78.964 186.307 78.5966C186.485 78.2254 186.574 77.8295 186.574 77.4091V76.3636H187.847ZM190.959 76.3636V88H189.618V76.3636H190.959ZM194.756 76.3636V88H193.415V76.3636H194.756ZM49.4091 107V95.3636H50.75V99.6591H50.8636C50.9621 99.5076 51.0985 99.3144 51.2727 99.0795C51.4508 98.8409 51.7045 98.6288 52.0341 98.4432C52.3674 98.2538 52.8182 98.1591 53.3864 98.1591C54.1212 98.1591 54.7689 98.3428 55.3295 98.7102C55.8902 99.0777 56.3277 99.5985 56.642 100.273C56.9564 100.947 57.1136 101.742 57.1136 102.659C57.1136 103.583 56.9564 104.384 56.642 105.062C56.3277 105.737 55.892 106.259 55.3352 106.631C54.7784 106.998 54.1364 107.182 53.4091 107.182C52.8485 107.182 52.3996 107.089 52.0625 106.903C51.7254 106.714 51.4659 106.5 51.2841 106.261C51.1023 106.019 50.9621 105.818 50.8636 105.659H50.7045V107H49.4091ZM50.7273 102.636C50.7273 103.295 50.8239 103.877 51.017 104.381C51.2102 104.881 51.4924 105.273 51.8636 105.557C52.2348 105.837 52.6894 105.977 53.2273 105.977C53.7879 105.977 54.2557 105.83 54.6307 105.534C55.0095 105.235 55.2936 104.833 55.483 104.33C55.6761 103.822 55.7727 103.258 55.7727 102.636C55.7727 102.023 55.678 101.47 55.4886 100.977C55.303 100.481 55.0208 100.089 54.642 99.8011C54.267 99.5095 53.7955 99.3636 53.2273 99.3636C52.6818 99.3636 52.2235 99.5019 51.8523 99.7784C51.4811 100.051 51.2008 100.434 51.0114 100.926C50.822 101.415 50.7273 101.985 50.7273 102.636ZM62.8239 107.182C61.983 107.182 61.2576 106.996 60.6477 106.625C60.0417 106.25 59.5739 105.727 59.2443 105.057C58.9186 104.383 58.7557 103.598 58.7557 102.705C58.7557 101.811 58.9186 101.023 59.2443 100.341C59.5739 99.6553 60.0322 99.1212 60.6193 98.7386C61.2102 98.3523 61.8996 98.1591 62.6875 98.1591C63.142 98.1591 63.5909 98.2348 64.0341 98.3864C64.4773 98.5379 64.8807 98.7841 65.2443 99.125C65.608 99.4621 65.8977 99.9091 66.1136 100.466C66.3295 101.023 66.4375 101.708 66.4375 102.523V103.091H59.7102V101.932H65.0739C65.0739 101.439 64.9754 101 64.7784 100.614C64.5852 100.227 64.3087 99.9223 63.9489 99.6989C63.5928 99.4754 63.1723 99.3636 62.6875 99.3636C62.1534 99.3636 61.6913 99.4962 61.3011 99.7614C60.9148 100.023 60.6174 100.364 60.4091 100.784C60.2008 101.205 60.0966 101.655 60.0966 102.136V102.909C60.0966 103.568 60.2102 104.127 60.4375 104.585C60.6686 105.04 60.9886 105.386 61.3977 105.625C61.8068 105.86 62.2822 105.977 62.8239 105.977C63.1761 105.977 63.4943 105.928 63.7784 105.83C64.0663 105.727 64.3144 105.576 64.5227 105.375C64.7311 105.17 64.892 104.917 65.0057 104.614L66.3011 104.977C66.1648 105.417 65.9356 105.803 65.6136 106.136C65.2917 106.466 64.8939 106.723 64.4205 106.909C63.947 107.091 63.4148 107.182 62.8239 107.182ZM72 110.455C71.3523 110.455 70.7955 110.371 70.3295 110.205C69.8636 110.042 69.4754 109.826 69.1648 109.557C68.858 109.292 68.6136 109.008 68.4318 108.705L69.5 107.955C69.6212 108.114 69.7746 108.295 69.9602 108.5C70.1458 108.708 70.3996 108.888 70.7216 109.04C71.0473 109.195 71.4735 109.273 72 109.273C72.7045 109.273 73.286 109.102 73.7443 108.761C74.2027 108.42 74.4318 107.886 74.4318 107.159V105.386H74.3182C74.2197 105.545 74.0795 105.742 73.8977 105.977C73.7197 106.208 73.4621 106.415 73.125 106.597C72.7917 106.775 72.3409 106.864 71.7727 106.864C71.0682 106.864 70.4356 106.697 69.875 106.364C69.3182 106.03 68.8769 105.545 68.5511 104.909C68.2292 104.273 68.0682 103.5 68.0682 102.591C68.0682 101.697 68.2254 100.919 68.5398 100.256C68.8542 99.589 69.2917 99.0739 69.8523 98.7102C70.4129 98.3428 71.0606 98.1591 71.7955 98.1591C72.3636 98.1591 72.8144 98.2538 73.1477 98.4432C73.4848 98.6288 73.7424 98.8409 73.9205 99.0795C74.1023 99.3144 74.2424 99.5076 74.3409 99.6591H74.4773V98.2727H75.7727V107.25C75.7727 108 75.6023 108.61 75.2614 109.08C74.9242 109.553 74.4697 109.9 73.8977 110.119C73.3295 110.343 72.697 110.455 72 110.455ZM71.9545 105.659C72.4924 105.659 72.947 105.536 73.3182 105.29C73.6894 105.044 73.9716 104.689 74.1648 104.227C74.358 103.765 74.4545 103.212 74.4545 102.568C74.4545 101.939 74.3598 101.384 74.1705 100.903C73.9811 100.422 73.7008 100.045 73.3295 99.7727C72.9583 99.5 72.5 99.3636 71.9545 99.3636C71.3864 99.3636 70.9129 99.5076 70.5341 99.7955C70.1591 100.083 69.8769 100.47 69.6875 100.955C69.5019 101.439 69.4091 101.977 69.4091 102.568C69.4091 103.174 69.5038 103.71 69.6932 104.176C69.8864 104.638 70.1705 105.002 70.5455 105.267C70.9242 105.528 71.3939 105.659 71.9545 105.659ZM78.2273 107V98.2727H79.5682V107H78.2273ZM78.9091 96.8182C78.6477 96.8182 78.4223 96.7292 78.233 96.5511C78.0473 96.3731 77.9545 96.1591 77.9545 95.9091C77.9545 95.6591 78.0473 95.4451 78.233 95.267C78.4223 95.089 78.6477 95 78.9091 95C79.1705 95 79.3939 95.089 79.5795 95.267C79.7689 95.4451 79.8636 95.6591 79.8636 95.9091C79.8636 96.1591 79.7689 96.3731 79.5795 96.5511C79.3939 96.7292 79.1705 96.8182 78.9091 96.8182ZM83.3651 101.75V107H82.0241V98.2727H83.3196V99.6364H83.4332C83.6378 99.1932 83.9484 98.8371 84.3651 98.5682C84.7817 98.2955 85.3196 98.1591 85.9787 98.1591C86.5696 98.1591 87.0866 98.2803 87.5298 98.5227C87.973 98.7614 88.3177 99.125 88.5639 99.6136C88.8101 100.098 88.9332 100.712 88.9332 101.455V107H87.5923V101.545C87.5923 100.86 87.4143 100.326 87.0582 99.9432C86.7022 99.5568 86.2135 99.3636 85.5923 99.3636C85.1643 99.3636 84.7817 99.4564 84.4446 99.642C84.1113 99.8277 83.848 100.098 83.6548 100.455C83.4616 100.811 83.3651 101.242 83.3651 101.75ZM98.4517 107.205C97.8987 107.205 97.3968 107.1 96.946 106.892C96.4953 106.68 96.1373 106.375 95.8722 105.977C95.607 105.576 95.4744 105.091 95.4744 104.523C95.4744 104.023 95.5729 103.617 95.7699 103.307C95.9669 102.992 96.2301 102.746 96.5597 102.568C96.8892 102.39 97.2528 102.258 97.6506 102.17C98.0521 102.08 98.4555 102.008 98.8608 101.955C99.3911 101.886 99.821 101.835 100.151 101.801C100.484 101.763 100.726 101.701 100.878 101.614C101.033 101.527 101.111 101.375 101.111 101.159V101.114C101.111 100.553 100.957 100.117 100.651 99.8068C100.348 99.4962 99.8873 99.3409 99.2699 99.3409C98.6297 99.3409 98.1278 99.4811 97.7642 99.7614C97.4006 100.042 97.1449 100.341 96.9972 100.659L95.7244 100.205C95.9517 99.6742 96.2547 99.2614 96.6335 98.9659C97.0161 98.6667 97.4328 98.4583 97.8835 98.3409C98.3381 98.2197 98.785 98.1591 99.2244 98.1591C99.5047 98.1591 99.8267 98.1932 100.19 98.2614C100.558 98.3258 100.912 98.4602 101.253 98.6648C101.598 98.8693 101.884 99.178 102.111 99.5909C102.338 100.004 102.452 100.557 102.452 101.25V107H101.111V105.818H101.043C100.952 106.008 100.8 106.21 100.588 106.426C100.376 106.642 100.094 106.826 99.7415 106.977C99.3892 107.129 98.9593 107.205 98.4517 107.205ZM98.6562 106C99.1866 106 99.6335 105.896 99.9972 105.688C100.365 105.479 100.641 105.21 100.827 104.881C101.016 104.551 101.111 104.205 101.111 103.841V102.614C101.054 102.682 100.929 102.744 100.736 102.801C100.546 102.854 100.327 102.902 100.077 102.943C99.8305 102.981 99.59 103.015 99.3551 103.045C99.1241 103.072 98.9366 103.095 98.7926 103.114C98.4441 103.159 98.1184 103.233 97.8153 103.335C97.5161 103.434 97.2737 103.583 97.0881 103.784C96.9063 103.981 96.8153 104.25 96.8153 104.591C96.8153 105.057 96.9877 105.409 97.3324 105.648C97.6809 105.883 98.1222 106 98.6562 106ZM109.399 98.2727H110.74V107.636C110.74 108.174 110.647 108.64 110.462 109.034C110.28 109.428 110.003 109.733 109.632 109.949C109.265 110.165 108.801 110.273 108.24 110.273C108.195 110.273 108.149 110.273 108.104 110.273C108.058 110.273 108.013 110.273 107.967 110.273V109.023C108.013 109.023 108.054 109.023 108.092 109.023C108.13 109.023 108.172 109.023 108.217 109.023C108.626 109.023 108.926 108.902 109.115 108.659C109.304 108.42 109.399 108.08 109.399 107.636V98.2727ZM110.058 96.8182C109.797 96.8182 109.571 96.7292 109.382 96.5511C109.196 96.3731 109.104 96.1591 109.104 95.9091C109.104 95.6591 109.196 95.4451 109.382 95.267C109.571 95.089 109.797 95 110.058 95C110.32 95 110.543 95.089 110.729 95.267C110.918 95.4451 111.013 95.6591 111.013 95.9091C111.013 96.1591 110.918 96.3731 110.729 96.5511C110.543 96.7292 110.32 96.8182 110.058 96.8182ZM116.741 107.182C115.954 107.182 115.262 106.994 114.668 106.619C114.077 106.244 113.615 105.72 113.281 105.045C112.952 104.371 112.787 103.583 112.787 102.682C112.787 101.773 112.952 100.979 113.281 100.301C113.615 99.6231 114.077 99.0966 114.668 98.7216C115.262 98.3466 115.954 98.1591 116.741 98.1591C117.529 98.1591 118.219 98.3466 118.81 98.7216C119.404 99.0966 119.866 99.6231 120.196 100.301C120.529 100.979 120.696 101.773 120.696 102.682C120.696 103.583 120.529 104.371 120.196 105.045C119.866 105.72 119.404 106.244 118.81 106.619C118.219 106.994 117.529 107.182 116.741 107.182ZM116.741 105.977C117.34 105.977 117.832 105.824 118.219 105.517C118.605 105.21 118.891 104.807 119.077 104.307C119.262 103.807 119.355 103.265 119.355 102.682C119.355 102.098 119.262 101.555 119.077 101.051C118.891 100.547 118.605 100.14 118.219 99.8295C117.832 99.5189 117.34 99.3636 116.741 99.3636C116.143 99.3636 115.651 99.5189 115.264 99.8295C114.878 100.14 114.592 100.547 114.406 101.051C114.221 101.555 114.128 102.098 114.128 102.682C114.128 103.265 114.221 103.807 114.406 104.307C114.592 104.807 114.878 105.21 115.264 105.517C115.651 105.824 116.143 105.977 116.741 105.977ZM128.243 103.432V98.2727H129.584V107H128.243V105.523H128.152C127.947 105.966 127.629 106.343 127.197 106.653C126.766 106.96 126.22 107.114 125.561 107.114C125.016 107.114 124.531 106.994 124.107 106.756C123.682 106.513 123.349 106.15 123.107 105.665C122.864 105.176 122.743 104.561 122.743 103.818V98.2727H124.084V103.727C124.084 104.364 124.262 104.871 124.618 105.25C124.978 105.629 125.436 105.818 125.993 105.818C126.326 105.818 126.665 105.733 127.01 105.562C127.358 105.392 127.65 105.131 127.885 104.778C128.124 104.426 128.243 103.977 128.243 103.432ZM132.04 107V98.2727H133.335V99.5909H133.426C133.585 99.1591 133.873 98.8087 134.29 98.5398C134.706 98.2708 135.176 98.1364 135.699 98.1364C135.797 98.1364 135.92 98.1383 136.068 98.142C136.216 98.1458 136.328 98.1515 136.403 98.1591V99.5227C136.358 99.5114 136.254 99.4943 136.091 99.4716C135.932 99.4451 135.763 99.4318 135.585 99.4318C135.161 99.4318 134.782 99.5208 134.449 99.6989C134.119 99.8731 133.858 100.116 133.665 100.426C133.475 100.733 133.381 101.083 133.381 101.477V107H132.04ZM139.334 101.75V107H137.993V98.2727H139.288V99.6364H139.402C139.607 99.1932 139.917 98.8371 140.334 98.5682C140.75 98.2955 141.288 98.1591 141.947 98.1591C142.538 98.1591 143.055 98.2803 143.499 98.5227C143.942 98.7614 144.286 99.125 144.533 99.6136C144.779 100.098 144.902 100.712 144.902 101.455V107H143.561V101.545C143.561 100.86 143.383 100.326 143.027 99.9432C142.671 99.5568 142.182 99.3636 141.561 99.3636C141.133 99.3636 140.75 99.4564 140.413 99.642C140.08 99.8277 139.817 100.098 139.624 100.455C139.43 100.811 139.334 101.242 139.334 101.75ZM151.011 107.182C150.17 107.182 149.445 106.996 148.835 106.625C148.229 106.25 147.761 105.727 147.432 105.057C147.106 104.383 146.943 103.598 146.943 102.705C146.943 101.811 147.106 101.023 147.432 100.341C147.761 99.6553 148.22 99.1212 148.807 98.7386C149.398 98.3523 150.087 98.1591 150.875 98.1591C151.33 98.1591 151.778 98.2348 152.222 98.3864C152.665 98.5379 153.068 98.7841 153.432 99.125C153.795 99.4621 154.085 99.9091 154.301 100.466C154.517 101.023 154.625 101.708 154.625 102.523V103.091H147.898V101.932H153.261C153.261 101.439 153.163 101 152.966 100.614C152.773 100.227 152.496 99.9223 152.136 99.6989C151.78 99.4754 151.36 99.3636 150.875 99.3636C150.341 99.3636 149.879 99.4962 149.489 99.7614C149.102 100.023 148.805 100.364 148.597 100.784C148.388 101.205 148.284 101.655 148.284 102.136V102.909C148.284 103.568 148.398 104.127 148.625 104.585C148.856 105.04 149.176 105.386 149.585 105.625C149.994 105.86 150.47 105.977 151.011 105.977C151.364 105.977 151.682 105.928 151.966 105.83C152.254 105.727 152.502 105.576 152.71 105.375C152.919 105.17 153.08 104.917 153.193 104.614L154.489 104.977C154.352 105.417 154.123 105.803 153.801 106.136C153.479 106.466 153.081 106.723 152.608 106.909C152.134 107.091 151.602 107.182 151.011 107.182ZM157.263 110.273C157.036 110.273 156.833 110.254 156.655 110.216C156.477 110.182 156.354 110.148 156.286 110.114L156.626 108.932C156.952 109.015 157.24 109.045 157.49 109.023C157.74 109 157.962 108.888 158.155 108.688C158.352 108.491 158.532 108.17 158.695 107.727L158.945 107.045L155.717 98.2727H157.172L159.581 105.227H159.672L162.081 98.2727H163.536L159.831 108.273C159.664 108.723 159.458 109.097 159.212 109.392C158.965 109.691 158.679 109.913 158.354 110.057C158.032 110.201 157.668 110.273 157.263 110.273ZM169.805 107V98.2727H171.146V107H169.805ZM170.487 96.8182C170.226 96.8182 170 96.7292 169.811 96.5511C169.625 96.3731 169.533 96.1591 169.533 95.9091C169.533 95.6591 169.625 95.4451 169.811 95.267C170 95.089 170.226 95 170.487 95C170.749 95 170.972 95.089 171.158 95.267C171.347 95.4451 171.442 95.6591 171.442 95.9091C171.442 96.1591 171.347 96.3731 171.158 96.5511C170.972 96.7292 170.749 96.8182 170.487 96.8182ZM174.943 101.75V107H173.602V98.2727H174.898V99.6364H175.011C175.216 99.1932 175.527 98.8371 175.943 98.5682C176.36 98.2955 176.898 98.1591 177.557 98.1591C178.148 98.1591 178.665 98.2803 179.108 98.5227C179.551 98.7614 179.896 99.125 180.142 99.6136C180.388 100.098 180.511 100.712 180.511 101.455V107H179.17V101.545C179.17 100.86 178.992 100.326 178.636 99.9432C178.28 99.5568 177.792 99.3636 177.17 99.3636C176.742 99.3636 176.36 99.4564 176.023 99.642C175.689 99.8277 175.426 100.098 175.233 100.455C175.04 100.811 174.943 101.242 174.943 101.75ZM186.757 98.2727V99.4091H182.234V98.2727H186.757ZM183.553 96.1818H184.893V104.5C184.893 104.879 184.948 105.163 185.058 105.352C185.172 105.538 185.316 105.663 185.49 105.727C185.668 105.788 185.856 105.818 186.053 105.818C186.2 105.818 186.321 105.811 186.416 105.795C186.511 105.777 186.587 105.761 186.643 105.75L186.916 106.955C186.825 106.989 186.698 107.023 186.536 107.057C186.373 107.095 186.166 107.114 185.916 107.114C185.537 107.114 185.166 107.032 184.803 106.869C184.443 106.706 184.143 106.458 183.905 106.125C183.67 105.792 183.553 105.371 183.553 104.864V96.1818ZM192.226 107.182C191.438 107.182 190.747 106.994 190.152 106.619C189.561 106.244 189.099 105.72 188.766 105.045C188.436 104.371 188.271 103.583 188.271 102.682C188.271 101.773 188.436 100.979 188.766 100.301C189.099 99.6231 189.561 99.0966 190.152 98.7216C190.747 98.3466 191.438 98.1591 192.226 98.1591C193.014 98.1591 193.703 98.3466 194.294 98.7216C194.889 99.0966 195.351 99.6231 195.68 100.301C196.014 100.979 196.18 101.773 196.18 102.682C196.18 103.583 196.014 104.371 195.68 105.045C195.351 105.72 194.889 106.244 194.294 106.619C193.703 106.994 193.014 107.182 192.226 107.182ZM192.226 105.977C192.824 105.977 193.317 105.824 193.703 105.517C194.089 105.21 194.375 104.807 194.561 104.307C194.747 103.807 194.839 103.265 194.839 102.682C194.839 102.098 194.747 101.555 194.561 101.051C194.375 100.547 194.089 100.14 193.703 99.8295C193.317 99.5189 192.824 99.3636 192.226 99.3636C191.627 99.3636 191.135 99.5189 190.749 99.8295C190.362 100.14 190.076 100.547 189.891 101.051C189.705 101.555 189.612 102.098 189.612 102.682C189.612 103.265 189.705 103.807 189.891 104.307C190.076 104.807 190.362 105.21 190.749 105.517C191.135 105.824 191.627 105.977 192.226 105.977ZM205.295 107.205C204.742 107.205 204.241 107.1 203.79 106.892C203.339 106.68 202.981 106.375 202.716 105.977C202.451 105.576 202.318 105.091 202.318 104.523C202.318 104.023 202.417 103.617 202.614 103.307C202.811 102.992 203.074 102.746 203.403 102.568C203.733 102.39 204.097 102.258 204.494 102.17C204.896 102.08 205.299 102.008 205.705 101.955C206.235 101.886 206.665 101.835 206.994 101.801C207.328 101.763 207.57 101.701 207.722 101.614C207.877 101.527 207.955 101.375 207.955 101.159V101.114C207.955 100.553 207.801 100.117 207.494 99.8068C207.191 99.4962 206.731 99.3409 206.114 99.3409C205.473 99.3409 204.972 99.4811 204.608 99.7614C204.244 100.042 203.989 100.341 203.841 100.659L202.568 100.205C202.795 99.6742 203.098 99.2614 203.477 98.9659C203.86 98.6667 204.277 98.4583 204.727 98.3409C205.182 98.2197 205.629 98.1591 206.068 98.1591C206.348 98.1591 206.67 98.1932 207.034 98.2614C207.402 98.3258 207.756 98.4602 208.097 98.6648C208.441 98.8693 208.727 99.178 208.955 99.5909C209.182 100.004 209.295 100.557 209.295 101.25V107H207.955V105.818H207.886C207.795 106.008 207.644 106.21 207.432 106.426C207.22 106.642 206.938 106.826 206.585 106.977C206.233 107.129 205.803 107.205 205.295 107.205ZM205.5 106C206.03 106 206.477 105.896 206.841 105.688C207.208 105.479 207.485 105.21 207.67 104.881C207.86 104.551 207.955 104.205 207.955 103.841V102.614C207.898 102.682 207.773 102.744 207.58 102.801C207.39 102.854 207.17 102.902 206.92 102.943C206.674 102.981 206.434 103.015 206.199 103.045C205.968 103.072 205.78 103.095 205.636 103.114C205.288 103.159 204.962 103.233 204.659 103.335C204.36 103.434 204.117 103.583 203.932 103.784C203.75 103.981 203.659 104.25 203.659 104.591C203.659 105.057 203.831 105.409 204.176 105.648C204.525 105.883 204.966 106 205.5 106ZM49.2273 126V117.273H50.5227V118.636H50.6364C50.8182 118.17 51.1117 117.809 51.517 117.551C51.9223 117.29 52.4091 117.159 52.9773 117.159C53.553 117.159 54.0322 117.29 54.4148 117.551C54.8011 117.809 55.1023 118.17 55.3182 118.636H55.4091C55.6326 118.186 55.9678 117.828 56.4148 117.562C56.8617 117.294 57.3977 117.159 58.0227 117.159C58.803 117.159 59.4413 117.403 59.9375 117.892C60.4337 118.377 60.6818 119.133 60.6818 120.159V126H59.3409V120.159C59.3409 119.515 59.1648 119.055 58.8125 118.778C58.4602 118.502 58.0455 118.364 57.5682 118.364C56.9545 118.364 56.4792 118.549 56.142 118.92C55.8049 119.288 55.6364 119.754 55.6364 120.318V126H54.2727V120.023C54.2727 119.527 54.1117 119.127 53.7898 118.824C53.4678 118.517 53.053 118.364 52.5455 118.364C52.197 118.364 51.8712 118.456 51.5682 118.642C51.2689 118.828 51.0265 119.085 50.8409 119.415C50.6591 119.741 50.5682 120.117 50.5682 120.545V126H49.2273ZM65.7017 126.205C65.1487 126.205 64.6468 126.1 64.196 125.892C63.7453 125.68 63.3873 125.375 63.1222 124.977C62.857 124.576 62.7244 124.091 62.7244 123.523C62.7244 123.023 62.8229 122.617 63.0199 122.307C63.2169 121.992 63.4801 121.746 63.8097 121.568C64.1392 121.39 64.5028 121.258 64.9006 121.17C65.3021 121.08 65.7055 121.008 66.1108 120.955C66.6411 120.886 67.071 120.835 67.4006 120.801C67.7339 120.763 67.9763 120.701 68.1278 120.614C68.2831 120.527 68.3608 120.375 68.3608 120.159V120.114C68.3608 119.553 68.2074 119.117 67.9006 118.807C67.5975 118.496 67.1373 118.341 66.5199 118.341C65.8797 118.341 65.3778 118.481 65.0142 118.761C64.6506 119.042 64.3949 119.341 64.2472 119.659L62.9744 119.205C63.2017 118.674 63.5047 118.261 63.8835 117.966C64.2661 117.667 64.6828 117.458 65.1335 117.341C65.5881 117.22 66.035 117.159 66.4744 117.159C66.7547 117.159 67.0767 117.193 67.4403 117.261C67.8078 117.326 68.1619 117.46 68.5028 117.665C68.8475 117.869 69.1335 118.178 69.3608 118.591C69.5881 119.004 69.7017 119.557 69.7017 120.25V126H68.3608V124.818H68.2926C68.2017 125.008 68.0502 125.21 67.8381 125.426C67.6259 125.642 67.3438 125.826 66.9915 125.977C66.6392 126.129 66.2093 126.205 65.7017 126.205ZM65.9062 125C66.4366 125 66.8835 124.896 67.2472 124.688C67.6146 124.479 67.8911 124.21 68.0767 123.881C68.2661 123.551 68.3608 123.205 68.3608 122.841V121.614C68.304 121.682 68.179 121.744 67.9858 121.801C67.7964 121.854 67.5767 121.902 67.3267 121.943C67.0805 121.981 66.84 122.015 66.6051 122.045C66.3741 122.072 66.1866 122.095 66.0426 122.114C65.6941 122.159 65.3684 122.233 65.0653 122.335C64.7661 122.434 64.5237 122.583 64.3381 122.784C64.1563 122.981 64.0653 123.25 64.0653 123.591C64.0653 124.057 64.2377 124.409 64.5824 124.648C64.9309 124.883 65.3722 125 65.9062 125ZM75.6719 129.455C75.0241 129.455 74.4673 129.371 74.0014 129.205C73.5355 129.042 73.1473 128.826 72.8366 128.557C72.5298 128.292 72.2855 128.008 72.1037 127.705L73.1719 126.955C73.2931 127.114 73.4465 127.295 73.6321 127.5C73.8177 127.708 74.0715 127.888 74.3935 128.04C74.7192 128.195 75.1454 128.273 75.6719 128.273C76.3764 128.273 76.9579 128.102 77.4162 127.761C77.8745 127.42 78.1037 126.886 78.1037 126.159V124.386H77.9901C77.8916 124.545 77.7514 124.742 77.5696 124.977C77.3916 125.208 77.134 125.415 76.7969 125.597C76.4635 125.775 76.0128 125.864 75.4446 125.864C74.7401 125.864 74.1075 125.697 73.5469 125.364C72.9901 125.03 72.5488 124.545 72.223 123.909C71.901 123.273 71.7401 122.5 71.7401 121.591C71.7401 120.697 71.8973 119.919 72.2116 119.256C72.526 118.589 72.9635 118.074 73.5241 117.71C74.0848 117.343 74.7325 117.159 75.4673 117.159C76.0355 117.159 76.4863 117.254 76.8196 117.443C77.1567 117.629 77.4143 117.841 77.5923 118.08C77.7741 118.314 77.9143 118.508 78.0128 118.659H78.1491V117.273H79.4446V126.25C79.4446 127 79.2741 127.61 78.9332 128.08C78.5961 128.553 78.1416 128.9 77.5696 129.119C77.0014 129.343 76.3688 129.455 75.6719 129.455ZM75.6264 124.659C76.1643 124.659 76.6188 124.536 76.9901 124.29C77.3613 124.044 77.6435 123.689 77.8366 123.227C78.0298 122.765 78.1264 122.212 78.1264 121.568C78.1264 120.939 78.0317 120.384 77.8423 119.903C77.6529 119.422 77.3726 119.045 77.0014 118.773C76.6302 118.5 76.1719 118.364 75.6264 118.364C75.0582 118.364 74.5848 118.508 74.206 118.795C73.831 119.083 73.5488 119.47 73.3594 119.955C73.1738 120.439 73.081 120.977 73.081 121.568C73.081 122.174 73.1757 122.71 73.3651 123.176C73.5582 123.638 73.8423 124.002 74.2173 124.267C74.5961 124.528 75.0658 124.659 75.6264 124.659ZM81.8991 126V117.273H83.2401V126H81.8991ZM82.581 115.818C82.3196 115.818 82.0942 115.729 81.9048 115.551C81.7192 115.373 81.6264 115.159 81.6264 114.909C81.6264 114.659 81.7192 114.445 81.9048 114.267C82.0942 114.089 82.3196 114 82.581 114C82.8423 114 83.0658 114.089 83.2514 114.267C83.4408 114.445 83.5355 114.659 83.5355 114.909C83.5355 115.159 83.4408 115.373 83.2514 115.551C83.0658 115.729 82.8423 115.818 82.581 115.818ZM89.2415 126.182C88.4233 126.182 87.7188 125.989 87.1278 125.602C86.5369 125.216 86.0824 124.684 85.7642 124.006C85.446 123.328 85.2869 122.553 85.2869 121.682C85.2869 120.795 85.4498 120.013 85.7756 119.335C86.1051 118.653 86.5634 118.121 87.1506 117.739C87.7415 117.352 88.4309 117.159 89.2188 117.159C89.8324 117.159 90.3854 117.273 90.8778 117.5C91.3703 117.727 91.7737 118.045 92.0881 118.455C92.4025 118.864 92.5975 119.341 92.6733 119.886H91.3324C91.2301 119.489 91.0028 119.136 90.6506 118.83C90.3021 118.519 89.8324 118.364 89.2415 118.364C88.7188 118.364 88.2604 118.5 87.8665 118.773C87.4763 119.042 87.1714 119.422 86.9517 119.915C86.7358 120.403 86.6278 120.977 86.6278 121.636C86.6278 122.311 86.7339 122.898 86.946 123.398C87.1619 123.898 87.465 124.286 87.8551 124.562C88.2491 124.839 88.7112 124.977 89.2415 124.977C89.59 124.977 89.9062 124.917 90.1903 124.795C90.4744 124.674 90.715 124.5 90.9119 124.273C91.1089 124.045 91.2491 123.773 91.3324 123.455H92.6733C92.5975 123.97 92.41 124.434 92.1108 124.847C91.8153 125.256 91.4233 125.581 90.9347 125.824C90.4498 126.062 89.8854 126.182 89.2415 126.182ZM97.2017 126.205C96.6487 126.205 96.1468 126.1 95.696 125.892C95.2453 125.68 94.8873 125.375 94.6222 124.977C94.357 124.576 94.2244 124.091 94.2244 123.523C94.2244 123.023 94.3229 122.617 94.5199 122.307C94.7169 121.992 94.9801 121.746 95.3097 121.568C95.6392 121.39 96.0028 121.258 96.4006 121.17C96.8021 121.08 97.2055 121.008 97.6108 120.955C98.1411 120.886 98.571 120.835 98.9006 120.801C99.2339 120.763 99.4763 120.701 99.6278 120.614C99.7831 120.527 99.8608 120.375 99.8608 120.159V120.114C99.8608 119.553 99.7074 119.117 99.4006 118.807C99.0975 118.496 98.6373 118.341 98.0199 118.341C97.3797 118.341 96.8778 118.481 96.5142 118.761C96.1506 119.042 95.8949 119.341 95.7472 119.659L94.4744 119.205C94.7017 118.674 95.0047 118.261 95.3835 117.966C95.7661 117.667 96.1828 117.458 96.6335 117.341C97.0881 117.22 97.535 117.159 97.9744 117.159C98.2547 117.159 98.5767 117.193 98.9403 117.261C99.3078 117.326 99.6619 117.46 100.003 117.665C100.348 117.869 100.634 118.178 100.861 118.591C101.088 119.004 101.202 119.557 101.202 120.25V126H99.8608V124.818H99.7926C99.7017 125.008 99.5502 125.21 99.3381 125.426C99.1259 125.642 98.8438 125.826 98.4915 125.977C98.1392 126.129 97.7093 126.205 97.2017 126.205ZM97.4062 125C97.9366 125 98.3835 124.896 98.7472 124.688C99.1146 124.479 99.3911 124.21 99.5767 123.881C99.7661 123.551 99.8608 123.205 99.8608 122.841V121.614C99.804 121.682 99.679 121.744 99.4858 121.801C99.2964 121.854 99.0767 121.902 98.8267 121.943C98.5805 121.981 98.34 122.015 98.1051 122.045C97.8741 122.072 97.6866 122.095 97.5426 122.114C97.1941 122.159 96.8684 122.233 96.5653 122.335C96.2661 122.434 96.0237 122.583 95.8381 122.784C95.6563 122.981 95.5653 123.25 95.5653 123.591C95.5653 124.057 95.7377 124.409 96.0824 124.648C96.4309 124.883 96.8722 125 97.4062 125ZM104.99 114.364V126H103.649V114.364H104.99ZM113.287 114.364V126H111.946V114.364H113.287ZM118.311 126.205C117.758 126.205 117.256 126.1 116.805 125.892C116.355 125.68 115.997 125.375 115.732 124.977C115.466 124.576 115.334 124.091 115.334 123.523C115.334 123.023 115.432 122.617 115.629 122.307C115.826 121.992 116.089 121.746 116.419 121.568C116.749 121.39 117.112 121.258 117.51 121.17C117.911 121.08 118.315 121.008 118.72 120.955C119.25 120.886 119.68 120.835 120.01 120.801C120.343 120.763 120.586 120.701 120.737 120.614C120.893 120.527 120.97 120.375 120.97 120.159V120.114C120.97 119.553 120.817 119.117 120.51 118.807C120.207 118.496 119.747 118.341 119.129 118.341C118.489 118.341 117.987 118.481 117.624 118.761C117.26 119.042 117.004 119.341 116.857 119.659L115.584 119.205C115.811 118.674 116.114 118.261 116.493 117.966C116.875 117.667 117.292 117.458 117.743 117.341C118.197 117.22 118.644 117.159 119.084 117.159C119.364 117.159 119.686 117.193 120.05 117.261C120.417 117.326 120.771 117.46 121.112 117.665C121.457 117.869 121.743 118.178 121.97 118.591C122.197 119.004 122.311 119.557 122.311 120.25V126H120.97V124.818H120.902C120.811 125.008 120.66 125.21 120.447 125.426C120.235 125.642 119.953 125.826 119.601 125.977C119.249 126.129 118.819 126.205 118.311 126.205ZM118.516 125C119.046 125 119.493 124.896 119.857 124.688C120.224 124.479 120.5 124.21 120.686 123.881C120.875 123.551 120.97 123.205 120.97 122.841V121.614C120.913 121.682 120.788 121.744 120.595 121.801C120.406 121.854 120.186 121.902 119.936 121.943C119.69 121.981 119.449 122.015 119.214 122.045C118.983 122.072 118.796 122.095 118.652 122.114C118.304 122.159 117.978 122.233 117.675 122.335C117.375 122.434 117.133 122.583 116.947 122.784C116.766 122.981 116.675 123.25 116.675 123.591C116.675 124.057 116.847 124.409 117.192 124.648C117.54 124.883 117.982 125 118.516 125ZM126.099 120.75V126H124.759V117.273H126.054V118.636H126.168C126.372 118.193 126.683 117.837 127.099 117.568C127.516 117.295 128.054 117.159 128.713 117.159C129.304 117.159 129.821 117.28 130.264 117.523C130.707 117.761 131.052 118.125 131.298 118.614C131.545 119.098 131.668 119.712 131.668 120.455V126H130.327V120.545C130.327 119.86 130.149 119.326 129.793 118.943C129.437 118.557 128.948 118.364 128.327 118.364C127.899 118.364 127.516 118.456 127.179 118.642C126.846 118.828 126.582 119.098 126.389 119.455C126.196 119.811 126.099 120.242 126.099 120.75ZM137.413 126.182C136.686 126.182 136.044 125.998 135.487 125.631C134.93 125.259 134.495 124.737 134.18 124.062C133.866 123.384 133.709 122.583 133.709 121.659C133.709 120.742 133.866 119.947 134.18 119.273C134.495 118.598 134.932 118.078 135.493 117.71C136.054 117.343 136.701 117.159 137.436 117.159C138.004 117.159 138.453 117.254 138.783 117.443C139.116 117.629 139.37 117.841 139.544 118.08C139.722 118.314 139.86 118.508 139.959 118.659H140.072V114.364H141.413V126H140.118V124.659H139.959C139.86 124.818 139.72 125.019 139.538 125.261C139.357 125.5 139.097 125.714 138.76 125.903C138.423 126.089 137.974 126.182 137.413 126.182ZM137.595 124.977C138.133 124.977 138.588 124.837 138.959 124.557C139.33 124.273 139.612 123.881 139.805 123.381C139.999 122.877 140.095 122.295 140.095 121.636C140.095 120.985 140 120.415 139.811 119.926C139.622 119.434 139.341 119.051 138.97 118.778C138.599 118.502 138.141 118.364 137.595 118.364C137.027 118.364 136.554 118.509 136.175 118.801C135.8 119.089 135.518 119.481 135.328 119.977C135.143 120.47 135.05 121.023 135.05 121.636C135.05 122.258 135.144 122.822 135.334 123.33C135.527 123.833 135.811 124.235 136.186 124.534C136.565 124.83 137.035 124.977 137.595 124.977ZM150.237 119.227L149.033 119.568C148.957 119.367 148.845 119.172 148.697 118.983C148.554 118.79 148.357 118.631 148.107 118.506C147.857 118.381 147.536 118.318 147.146 118.318C146.612 118.318 146.167 118.441 145.811 118.688C145.459 118.93 145.283 119.239 145.283 119.614C145.283 119.947 145.404 120.21 145.646 120.403C145.889 120.597 146.268 120.758 146.783 120.886L148.078 121.205C148.858 121.394 149.44 121.684 149.822 122.074C150.205 122.46 150.396 122.958 150.396 123.568C150.396 124.068 150.252 124.515 149.964 124.909C149.68 125.303 149.283 125.614 148.771 125.841C148.26 126.068 147.665 126.182 146.987 126.182C146.097 126.182 145.36 125.989 144.777 125.602C144.194 125.216 143.824 124.652 143.669 123.909L144.942 123.591C145.063 124.061 145.292 124.413 145.629 124.648C145.97 124.883 146.415 125 146.964 125C147.589 125 148.086 124.867 148.453 124.602C148.824 124.333 149.01 124.011 149.01 123.636C149.01 123.333 148.904 123.08 148.692 122.875C148.48 122.667 148.154 122.511 147.714 122.409L146.26 122.068C145.461 121.879 144.874 121.585 144.499 121.188C144.127 120.786 143.942 120.284 143.942 119.682C143.942 119.189 144.08 118.754 144.357 118.375C144.637 117.996 145.018 117.699 145.499 117.483C145.983 117.267 146.533 117.159 147.146 117.159C148.01 117.159 148.688 117.348 149.18 117.727C149.677 118.106 150.029 118.606 150.237 119.227Z" fill="black"/>
<defs>
<linearGradient id="paint0_linear_4_5" x1="160" y1="226" x2="180" y2="63" gradientUnits="userSpaceOnUse">
<stop stop-color="#A68656"/>
<stop offset="1" stop-color="#A65656" stop-opacity="0"/>
</linearGradient>
</defs>
</svg>
